<?xml version="1.0" encoding="UTF-8"?>
<svg xmlns="http://www.w3.org/2000/svg" xmlns:xlink="http://www.w3.org/1999/xlink" width="410.832" height="39" viewBox="0 0 410.832 39">
  <defs>
    <linearGradient id="linear-gradient" x1="0.5" x2="0.5" y2="1" gradientUnits="objectBoundingBox">
      <stop offset="0" stop-color="#edcf11"></stop>
      <stop offset="1" stop-color="#00a1e0" stop-opacity="0.502"></stop>
    </linearGradient>
  </defs>
  <g id="ACCELQ-vs-Others" transform="translate(-177.5 -1525)">
    <g id="Group_6428" data-name="Group 6428" transform="translate(22.5 101.003)">
      <g id="ACCELQ-WHite" transform="translate(243.154 1443.101)">
        <g id="Group_5760" data-name="Group 5760" transform="translate(-88.154 -15.983)">
          <g id="Group_5755" data-name="Group 5755" transform="translate(102.736 13.387)">
            <path id="Path_31083" data-name="Path 31083" d="M517.149,289.625H510.7a2.694,2.694,0,1,1,0-5.387h6.452a2.694,2.694,0,1,1,0,5.387Z" transform="translate(-508.003 -284.238)" fill="#fff"></path>
          </g>
          <g id="Group_5756" data-name="Group 5756" transform="translate(93.951 0.938)">
            <path id="Path_31084" data-name="Path 31084" d="M510.275,289.572H493.5a2.821,2.821,0,0,1-2.852-2.851V262.495a2.822,2.822,0,0,1,2.852-2.852h16.573a2.6,2.6,0,0,1,2.568,2.567,2.57,2.57,0,0,1-2.568,2.567H496.31v19.662h13.965A2.6,2.6,0,0,1,512.842,287,2.57,2.57,0,0,1,510.275,289.572Z" transform="translate(-490.646 -259.643)" fill="#fff"></path>
          </g>
          <g id="Group_5757" data-name="Group 5757" transform="translate(12.934 0.162)">
            <path id="Path_31085" data-name="Path 31085" d="M345.271,289.646a3.054,3.054,0,0,1-2.779-1.783l-11.644-25.429a3.054,3.054,0,1,1,5.553-2.542l11.643,25.428a3.054,3.054,0,0,1-2.774,4.325Z" transform="translate(-330.571 -258.109)" fill="#fff"></path>
          </g>
          <g id="Group_5758" data-name="Group 5758" transform="translate(0 9.847)">
            <path id="Path_31086" data-name="Path 31086" d="M308.069,299.1a3.054,3.054,0,0,0,2.779-1.783l7.182-15.744a3.054,3.054,0,0,0-5.553-2.542l-7.182,15.743a3.053,3.053,0,0,0,2.774,4.325Z" transform="translate(-305.016 -277.245)" fill="#fff"></path>
          </g>
          <g id="Group_5759" data-name="Group 5759" transform="translate(122.767 1.014)">
            <path id="Path_31087" data-name="Path 31087" d="M564.953,289.362H550.467a2.887,2.887,0,0,1-2.886-2.886v-23.8a2.886,2.886,0,0,1,5.772,0V283.59h11.6a2.886,2.886,0,0,1,0,5.772Z" transform="translate(-547.581 -259.793)" fill="#fff"></path>
          </g>
          <path id="Path_31088" data-name="Path 31088" d="M397.018,282.772a2.756,2.756,0,0,0-3.848-.62,10.345,10.345,0,1,1,0-16.786A2.755,2.755,0,1,0,396.4,260.9a15.855,15.855,0,1,0,0,25.719A2.756,2.756,0,0,0,397.018,282.772Z" transform="translate(-337.734 -257.846)" fill="#fff"></path>
          <path id="Path_31089" data-name="Path 31089" d="M454.62,282.773a2.753,2.753,0,0,0-3.846-.621,10.346,10.346,0,1,1,0-16.785A2.755,2.755,0,1,0,454,260.9a15.855,15.855,0,1,0,0,25.719A2.754,2.754,0,0,0,454.62,282.773Z" transform="translate(-366.183 -257.846)" fill="#fff"></path>
          <path id="Path_31090" data-name="Path 31090" d="M621.216,289.337l-11.9-11.9a2.886,2.886,0,1,0-4.082,4.081l5.855,5.855a10.207,10.207,0,0,1-12.15-16.136c.461-.467.5-.511.043-.053a2.882,2.882,0,0,1-4.143-4.006,15.975,15.975,0,0,0,20.436,24.382l1.863,1.863a2.886,2.886,0,0,0,4.082-4.082Z" transform="translate(-445.87 -262.424)" fill="#34c184"></path>
          <path id="Path_31091" data-name="Path 31091" d="M597.8,264.549c0,.02.005.04.005.06a2.894,2.894,0,0,0,.051.475c.011.055.034.108.048.162a2.813,2.813,0,0,0,.11.359,2.9,2.9,0,0,0,.144.275c.04.072.07.148.116.218a2.847,2.847,0,0,0,.366.448,2.882,2.882,0,0,0,4.081,0c.408-.408.42-.415.09-.081a10.208,10.208,0,0,1,16.1,12.188l4.192,4.192a15.985,15.985,0,0,0-24.461-20.38c-.024.024-.04.053-.063.078A2.882,2.882,0,0,0,597.8,264.549Z" transform="translate(-449.618 -257.789)" fill="#fff"></path>
        </g>
      </g>
      <path id="Path_49059" data-name="Path 49059" d="M14.83,11.727a8.3,8.3,0,0,1-.923,4.07,6.3,6.3,0,0,1-2.5,2.536,7.186,7.186,0,0,1-3.526.866,7.134,7.134,0,0,1-3.53-.874,6.333,6.333,0,0,1-2.489-2.539,8.289,8.289,0,0,1-.92-4.059,8.326,8.326,0,0,1,.92-4.07A6.28,6.28,0,0,1,4.354,5.122a7.18,7.18,0,0,1,3.53-.866,7.186,7.186,0,0,1,3.526.866,6.3,6.3,0,0,1,2.5,2.536A8.3,8.3,0,0,1,14.83,11.727Zm-3.594,0a6.347,6.347,0,0,0-.4-2.4A3.178,3.178,0,0,0,9.684,7.842a3.149,3.149,0,0,0-1.8-.5,3.153,3.153,0,0,0-1.8.5A3.169,3.169,0,0,0,4.933,9.327a6.347,6.347,0,0,0-.4,2.4,6.347,6.347,0,0,0,.4,2.4,3.169,3.169,0,0,0,1.154,1.484,3.153,3.153,0,0,0,1.8.5,3.149,3.149,0,0,0,1.8-.5,3.178,3.178,0,0,0,1.151-1.484A6.347,6.347,0,0,0,11.236,11.727Zm5.5-4.418V4.455H29.026V7.31H24.608L24.615,19H21.149V7.31ZM31.759,19,31.751,4.455H35.26l.007,5.838L41,10.3V4.455h3.509V19H41V13.155l-5.739-.007L35.267,19Zm15.957,0L47.709,4.455H57.851V7.31H51.217l.007,2.983,6.1.007.007,2.855-6.115-.007.007,3h6.626V19Zm13.337,0V4.455h6.009a6.326,6.326,0,0,1,2.823.586A4.275,4.275,0,0,1,71.72,6.717,4.97,4.97,0,0,1,72.366,9.3a4.744,4.744,0,0,1-.661,2.567,4.189,4.189,0,0,1-1.875,1.605,6.921,6.921,0,0,1-2.876.55h-3.8v-2.77H66.3a3.681,3.681,0,0,0,1.332-.21,1.645,1.645,0,0,0,.813-.639,2.005,2.005,0,0,0,.277-1.1,2.079,2.079,0,0,0-.277-1.119,1.693,1.693,0,0,0-.817-.668A3.476,3.476,0,0,0,66.3,7.288H64.568V19Zm8.189-6.648L72.864,19H69.028l-3.551-6.648ZM80.119,7.31V4.455H92.413V7.31H88L88,19H84.537V7.31ZM108.2,11.727a8.3,8.3,0,0,1-.923,4.07,6.3,6.3,0,0,1-2.5,2.536,7.588,7.588,0,0,1-7.056-.007,6.333,6.333,0,0,1-2.489-2.539,8.289,8.289,0,0,1-.92-4.059,8.326,8.326,0,0,1,.92-4.07,6.28,6.28,0,0,1,2.489-2.536,7.616,7.616,0,0,1,7.056,0,6.3,6.3,0,0,1,2.5,2.536A8.3,8.3,0,0,1,108.2,11.727Zm-3.594,0a6.347,6.347,0,0,0-.4-2.4,3.151,3.151,0,0,0-5.9,0,6.347,6.347,0,0,0-.4,2.4,6.347,6.347,0,0,0,.4,2.4,3.149,3.149,0,0,0,5.9,0A6.347,6.347,0,0,0,104.607,11.727Zm20.368,0a8.3,8.3,0,0,1-.923,4.07,6.3,6.3,0,0,1-2.5,2.536,7.588,7.588,0,0,1-7.056-.007,6.333,6.333,0,0,1-2.489-2.539,8.289,8.289,0,0,1-.92-4.059,8.326,8.326,0,0,1,.92-4.07A6.28,6.28,0,0,1,114.5,5.122a7.616,7.616,0,0,1,7.056,0,6.3,6.3,0,0,1,2.5,2.536A8.3,8.3,0,0,1,124.974,11.727Zm-3.594,0a6.347,6.347,0,0,0-.4-2.4,3.151,3.151,0,0,0-5.9,0,6.347,6.347,0,0,0-.4,2.4,6.347,6.347,0,0,0,.4,2.4,3.149,3.149,0,0,0,5.9,0A6.347,6.347,0,0,0,121.381,11.727ZM128.027,19,128.02,4.455h3.509l.007,11.69h6.051V19Zm20.24-10.185a1.664,1.664,0,0,0-.629-1.218,2.524,2.524,0,0,0-1.587-.437,3.146,3.146,0,0,0-1.136.178,1.492,1.492,0,0,0-.682.487,1.2,1.2,0,0,0-.234.707,1.026,1.026,0,0,0,.131.575,1.357,1.357,0,0,0,.426.437,3.068,3.068,0,0,0,.678.33,7.083,7.083,0,0,0,.895.249l1.25.284a8.878,8.878,0,0,1,1.907.625,5.216,5.216,0,0,1,1.392.93,3.622,3.622,0,0,1,.856,1.243,4.176,4.176,0,0,1,.3,1.577,4.066,4.066,0,0,1-.7,2.365,4.325,4.325,0,0,1-1.978,1.513,8.226,8.226,0,0,1-3.107.526,8.478,8.478,0,0,1-3.182-.547,4.5,4.5,0,0,1-2.109-1.662,5.05,5.05,0,0,1-.774-2.82h3.366a2.208,2.208,0,0,0,.376,1.172,2.062,2.062,0,0,0,.92.71,3.55,3.55,0,0,0,1.36.241,3.393,3.393,0,0,0,1.211-.192,1.754,1.754,0,0,0,.771-.533,1.258,1.258,0,0,0,.277-.781,1.091,1.091,0,0,0-.256-.707,1.99,1.99,0,0,0-.763-.511,8.273,8.273,0,0,0-1.31-.4l-1.52-.355a6.609,6.609,0,0,1-2.976-1.4,3.319,3.319,0,0,1-1.08-2.624,3.9,3.9,0,0,1,.724-2.365,4.813,4.813,0,0,1,2.024-1.584,7.257,7.257,0,0,1,2.947-.568A6.989,6.989,0,0,1,149,4.827a4.54,4.54,0,0,1,1.935,1.6,4.275,4.275,0,0,1,.7,2.386Z" transform="translate(414 1432)" fill="#fff"></path>
    </g>
    <g id="vs-i" transform="translate(-294 -14)">
      <circle id="Ellipse_267" data-name="Ellipse 267" cx="19.5" cy="19.5" r="19.5" transform="translate(671 1539)" fill="url(#linear-gradient)"></circle>
      <path id="Path_48905" data-name="Path 48905" d="M3.114-11.636,5.926-2.8h.108l2.818-8.841H11.58L7.568,0H4.4L.381-11.636Zm16.352,5.4L17.25-6.1a1.165,1.165,0,0,0-.244-.514,1.341,1.341,0,0,0-.491-.369,1.729,1.729,0,0,0-.724-.139,1.79,1.79,0,0,0-.949.236.711.711,0,0,0-.386.628.672.672,0,0,0,.25.528,1.984,1.984,0,0,0,.858.347l1.58.318a3.916,3.916,0,0,1,1.9.841A1.979,1.979,0,0,1,19.665-2.7a2.386,2.386,0,0,1-.5,1.506A3.284,3.284,0,0,1,17.787-.19,5.22,5.22,0,0,1,15.778.17,4.7,4.7,0,0,1,13.02-.554a2.8,2.8,0,0,1-1.2-1.974L14.2-2.653a1.213,1.213,0,0,0,.523.8,1.884,1.884,0,0,0,1.063.276,1.89,1.89,0,0,0,1.026-.247A.75.75,0,0,0,17.2-2.46.676.676,0,0,0,16.926-3a2.028,2.028,0,0,0-.841-.327l-1.511-.3a3.6,3.6,0,0,1-1.9-.886,2.194,2.194,0,0,1-.622-1.608,2.341,2.341,0,0,1,.457-1.449,2.9,2.9,0,0,1,1.29-.937,5.285,5.285,0,0,1,1.952-.33,4.318,4.318,0,0,1,2.605.7A2.7,2.7,0,0,1,19.466-6.239Z" transform="translate(680 1565)" fill="#fff"></path>
    </g>
  </g>
</svg>
