<?xml version="1.0" encoding="utf-8"?>
<!-- Generator: Adobe Illustrator 23.0.3, SVG Export Plug-In . SVG Version: 6.00 Build 0)  -->
<svg version="1.1" id="Layer_1" xmlns="http://www.w3.org/2000/svg" xmlns:xlink="http://www.w3.org/1999/xlink" x="0px" y="0px"
	 viewBox="0 0 350 64" style="enable-background:new 0 0 350 64;" xml:space="preserve">
<style type="text/css">
	.st0{fill:#FFFFFF;}
	.st1{fill:#4BBC81;}
</style>
<title>accelq-seagreen</title>
<path class="st0" d="M221.9,37.5h-12.7c-2.9,0-5.3-2.4-5.3-5.3s2.4-5.3,5.3-5.3c0,0,0,0,0,0h12.7c2.9,0,5.3,2.4,5.3,5.3
	C227.2,35.1,224.8,37.5,221.9,37.5C221.9,37.5,221.9,37.5,221.9,37.5z"/>
<path class="st0" d="M225.2,61.4h-33.1c-3.1,0-5.6-2.4-5.6-5.5c0,0,0-0.1,0-0.1V7.9c0-3.1,2.4-5.6,5.5-5.6c0,0,0.1,0,0.1,0h32.7
	c2.8,0,5.1,2.3,5.1,5.1c0,2.8-2.3,5.1-5.1,5.1h-27.2v38.8h27.6c2.8,0,5.1,2.3,5.1,5.1c0,2.8-2.2,5-5,5
	C225.2,61.4,225.2,61.4,225.2,61.4z"/>
<path class="st0" d="M55.4,63.1c-2.4,0-4.5-1.4-5.5-3.5l-23-50.2c-1.4-3,0-6.6,3-8s6.6,0,8,3l23,50.2c1.4,3,0.1,6.6-2.9,8
	c0,0-0.1,0-0.1,0C57.1,62.9,56.2,63.1,55.4,63.1z"/>
<path class="st0" d="M6.8,63.1c2.4,0,4.5-1.4,5.5-3.5l14.2-31.1c1.4-3,0-6.6-3-8s-6.6,0-8,3l-14.1,31c-1.4,3-0.1,6.6,2.9,8
	c0,0,0.1,0,0.1,0C5.1,62.9,5.9,63.1,6.8,63.1z"/>
<path class="st0" d="M277.7,60.9h-28.6c-3.1,0-5.7-2.6-5.7-5.7v-47c0-3.1,2.6-5.7,5.7-5.7c3.1,0,5.7,2.6,5.7,5.7v41.3h22.9
	c3.1,0,5.7,2.6,5.7,5.7C283.4,58.4,280.8,60.9,277.7,60.9z"/>
<path class="st1" d="M317.6,63.6C300.1,63.6,286,49.5,286,32c0-17.5,14.1-31.6,31.6-31.6c17.4,0,31.6,14.1,31.6,31.6
	C349.1,49.4,335,63.6,317.6,63.6z M317.6,11.8c-11.2,0-20.2,9-20.2,20.2s9,20.2,20.2,20.2s20.2-9,20.2-20.2c0,0,0,0,0,0
	C337.7,20.9,328.7,11.8,317.6,11.8z"/>
<path class="st0" d="M335.9,56c-1.5,0-2.9-0.6-4-1.7c-2.2-2.3-2.2-5.8,0-8.1c7.9-7.9,7.9-20.6,0-28.5s-20.6-7.9-28.5,0
	c-2.3,2.2-5.9,2.1-8.1-0.2c-2.1-2.2-2.1-5.7,0-7.9c12.3-12.4,32.4-12.4,44.7,0c12.4,12.3,12.4,32.4,0,44.7l0,0
	C338.9,55.4,337.4,56,335.9,56z"/>
<path class="st1" d="M343.2,63.4c-1.5,0-2.9-0.6-4-1.7l-23.5-23.5c-2.2-2.3-2.2-5.8,0-8.1c2.2-2.2,5.8-2.3,8.1,0c0,0,0,0,0,0
	l23.5,23.5c2.2,2.3,2.2,5.8,0,8.1C346.2,62.8,344.7,63.4,343.2,63.4z"/>
<path class="st0" d="M117.9,49.7c-1.8-2.4-5.2-3-7.6-1.2c-9.1,6.6-21.9,4.6-28.5-4.5s-4.6-21.9,4.5-28.5c3.5-2.5,7.7-3.9,12-3.9
	c4.3,0,8.5,1.3,12,3.9c2.4,1.8,5.8,1.2,7.6-1.2s1.2-5.8-1.2-7.6l0,0c-5.3-3.9-11.7-5.9-18.3-5.9c-17.3,0-31.3,14-31.3,31.3
	s14,31.3,31.3,31.3c6.6,0,13-2,18.3-5.9C119.1,55.7,119.7,52.2,117.9,49.7z"/>
<path class="st0" d="M175.5,49.7c-1.8-2.4-5.2-3-7.6-1.2c-9.1,6.6-21.9,4.6-28.5-4.5c-6.6-9.1-4.6-21.9,4.5-28.5
	c3.5-2.5,7.7-3.9,12-3.9c4.3,0,8.5,1.3,12,3.9c2.4,1.8,5.8,1.2,7.6-1.2c1.8-2.4,1.2-5.8-1.2-7.6C169,2.9,162.6,0.8,156,0.8
	c-17.3,0-31.3,14-31.3,31.3s14,31.3,31.3,31.3c6.6,0,13-2,18.3-5.9C176.8,55.7,177.3,52.2,175.5,49.7z"/>
</svg>
