<svg xmlns="http://www.w3.org/2000/svg" width="319.397" height="320.42" viewBox="0 0 319.397 320.42">
  <g id="Illustration_API_1" data-name="Illustration API 1" transform="translate(-257.953 -694.107)">
    <circle id="Ellipse_261" data-name="Ellipse 261" cx="8.869" cy="8.869" r="8.869" transform="translate(465.86 943.47)" fill="#ffa766"/>
    <path id="Path_15818" data-name="Path 15818" d="M392.841,497.291H383.66l-4.591,7.951,4.591,7.951h9.181l4.591-7.951Z" transform="translate(-16.167 357.388)" fill="#60d8d2"/>
    <rect id="Rectangle_793" data-name="Rectangle 793" width="22.481" height="22.481" transform="translate(478.906 862.631) rotate(-45)" fill="#ff6679"/>
    <path id="Path_15819" data-name="Path 15819" d="M371.622,368.443l-20.15-11.634v23.267Z" transform="translate(-1.061 434.287)" fill="#8f8fef"/>
    <path id="Path_15820" data-name="Path 15820" d="M511.479,670.967h-1.358V522.554h1.358Z" transform="translate(-87.904 343.56)"/>
    <path id="Path_15821" data-name="Path 15821" d="M491.244,457.407h0a3.23,3.23,0,0,0,2.087,2.414c7.515,2.667,35.346,13.69,39.034,22.721,3.93,9.621-13.567,49.406-16.057,54.974a1.111,1.111,0,0,0,.18,1.187l.3.34a1.113,1.113,0,0,1-.837,1.847h-10.92a1.112,1.112,0,0,1-1.064-1.443c1.2-3.827,4.368-14.416,5.083-21.322,1.69-16.316,6.556-26.687,6.556-26.687s-49.144-5.466-50.914-24.551a17.646,17.646,0,0,1,2.166-10.2" transform="translate(-62.996 379.616)" fill="#fff"/>
    <path id="Path_15822" data-name="Path 15822" d="M529.037,401.688c0-.412-22.513,3.856-31.189-3.209a20.341,20.341,0,0,1-3.263-3.431c-2.381,2.928-4.105,8.491-3.521,10.089a.984.984,0,0,1-.158.937,1.268,1.268,0,0,1-.842.321c-8.409,1-5.114,1.638-18.561.448-4.055-.358-8.3-.665-11.722-2.874a.908.908,0,0,1-.416-.448.892.892,0,0,1,.167-.693c.353-.551,6.284-12.878,14.631-30.308,3.2-1.528,6.6-3.05,10.2-4.534q5.221-2.155,10.1-3.864a36.621,36.621,0,0,1,4.072,4.6,40.392,40.392,0,0,1,7.613,21.988s.335.222,5.2.81,17.7,2.951,17.7,2.951C530.521,396.759,529.172,401.267,529.037,401.688Z" transform="translate(-60.107 430.284)" fill="#fff"/>
    <path id="Path_15822_-_Outline" data-name="Path 15822 - Outline" d="M480.945,407.4c-1.788,0-4.336-.169-9.737-.648l-.4-.035c-3.968-.348-8.071-.707-11.428-2.875a1.131,1.131,0,0,1-.511-.574,1.027,1.027,0,0,1,.189-.871l.005-.008c.31-.484,5.091-10.39,14.618-30.283l.035-.072.072-.034c3.348-1.6,6.782-3.125,10.208-4.539,3.321-1.371,6.723-2.672,10.111-3.868l.131-.046.1.1a36.985,36.985,0,0,1,4.1,4.626,37.941,37.941,0,0,1,5.99,12.151,44.414,44.414,0,0,1,1.658,9.805,46.819,46.819,0,0,0,5.01.752c4.817.582,17.582,2.929,17.711,2.953l.1.018.053.082a6.831,6.831,0,0,1,.638,4.459,16.967,16.967,0,0,1-.618,2.952l-.442,1.369v-1.24c-.31.011-.958.081-1.827.176a108.646,108.646,0,0,1-11.777.757c-8.219,0-14.108-1.4-17.5-4.165a20.324,20.324,0,0,1-3.122-3.239,18.7,18.7,0,0,0-2.656,5.248c-.656,1.957-.911,3.683-.651,4.4a1.2,1.2,0,0,1-.2,1.16l0,0a1.464,1.464,0,0,1-.987.4c-2.147.257-3.52.487-4.624.673A22.144,22.144,0,0,1,480.945,407.4Zm-6.887-35.026c-9.643,20.136-14.286,29.753-14.61,30.26l-.008.013a.6.6,0,0,0-.133.494c.037.126.187.233.324.323,3.261,2.105,7.308,2.46,11.221,2.8l.4.035c5.387.477,7.924.646,9.7.646a21.512,21.512,0,0,0,4.172-.417c1.108-.186,2.487-.418,4.646-.676a1.1,1.1,0,0,0,.7-.243.761.761,0,0,0,.119-.711c-.3-.83-.061-2.585.646-4.7a18.677,18.677,0,0,1,2.911-5.614l.181-.223.174.228a20.121,20.121,0,0,0,3.226,3.393c3.311,2.7,9.1,4.063,17.216,4.063a108.258,108.258,0,0,0,11.728-.754c.987-.107,1.642-.179,1.942-.18.256-.885,1.255-4.714.025-6.759-1.2-.22-13.006-2.377-17.585-2.931-4.564-.552-5.209-.787-5.3-.846l-.095-.063-.006-.114a40.008,40.008,0,0,0-7.568-21.865,36.525,36.525,0,0,0-3.947-4.473c-3.337,1.18-6.687,2.463-9.958,3.813C480.778,369.283,477.375,370.795,474.058,372.376Z" transform="translate(-59.834 430.598)"/>
    <path id="Path_15824" data-name="Path 15824" d="M525.891,406.249a37.724,37.724,0,0,1-4.1-6.915,63.964,63.964,0,0,1-2.8-7.11,72.465,72.465,0,0,1-2.125-7.8l.444-.087a72.017,72.017,0,0,0,2.113,7.755c1.322,4,3.58,9.654,6.833,13.885Z" transform="translate(-91.593 419.221)"/>
    <path id="Path_15825" data-name="Path 15825" d="M536.959,432.24l-.013-.014.013.014h-.249a.241.241,0,0,1,.076-.174Z" transform="translate(-102.459 393.093)"/>
    <path id="Path_15826" data-name="Path 15826" d="M519.278,393.8a26.952,26.952,0,0,0,1.481,13.743c2.8,6.93,3.544,8.915,3.544,8.915l2.928-5.176s1.368,1.054.483.562S519.542,398.117,519.278,393.8Z" transform="translate(-92.747 414.041)"/>
    <path id="Path_15827" data-name="Path 15827" d="M515.675,540.412H504.72a1.338,1.338,0,0,1-1.288-1.71c1.329-4.59,4.51-16.007,5.334-22.872.539-4.493,1.208-8.612,1.989-12.243a71.564,71.564,0,0,1,2.076-7.739,25.918,25.918,0,0,1,2.114-4.932c-.944-.115-3.671-.466-7.359-1.111a153.389,153.389,0,0,1-17.113-3.972c-7.283-2.185-13.163-4.733-17.478-7.573a24.591,24.591,0,0,1-6.061-5.4,12.839,12.839,0,0,1-2.742-6.651,17.633,17.633,0,0,1,.109-4.136,18.59,18.59,0,0,1,.78-3.27,14.792,14.792,0,0,1,1.311-2.937l.383.241a14.669,14.669,0,0,0-1.27,2.855,17.754,17.754,0,0,0-.862,7.206c.4,4.281,3.291,8.224,8.6,11.72,4.278,2.816,10.119,5.345,17.359,7.517a152.938,152.938,0,0,0,17.061,3.96c4.575.8,7.662,1.147,7.692,1.15l.388.043-.23.315a21.752,21.752,0,0,0-2.269,5.171,101.063,101.063,0,0,0-4.029,19.845,110.2,110.2,0,0,1-2.548,12.578c-1.088,4.363-2.221,8.367-2.8,10.366a.885.885,0,0,0,.853,1.131h10.956a.887.887,0,0,0,.667-1.472l-.3-.34a1.342,1.342,0,0,1-.217-1.428c1.4-3.127,6.282-14.24,10.429-25.95a147.329,147.329,0,0,0,5.112-17.114c1.225-5.619,1.4-9.566.513-11.732-.836-2.047-3.03-4.364-6.521-6.887a86.442,86.442,0,0,0-11.453-6.743,199.309,199.309,0,0,0-20.926-8.963,3.456,3.456,0,0,1-2.233-2.583l.444-.089a3.02,3.02,0,0,0,1.941,2.245,199.8,199.8,0,0,1,20.978,8.985,86.879,86.879,0,0,1,11.514,6.781,31.523,31.523,0,0,1,4.2,3.552,11.667,11.667,0,0,1,2.475,3.531,12,12,0,0,1,.557,4.994,45.122,45.122,0,0,1-1.046,7.006,147.781,147.781,0,0,1-5.128,17.169c-4.152,11.727-9.043,22.853-10.443,25.984a.889.889,0,0,0,.144.945l.3.34a1.34,1.34,0,0,1-1.007,2.223Z" transform="translate(-62.722 380.067)"/>
    <path id="Path_15828" data-name="Path 15828" d="M493.44,458.775c-.6-.72-.706-2.038-1.583-1.69s-11.809,1.356-19.035.012l-3.973-.62a.888.888,0,0,0-1.256.617l-.59,1.358s15.817,7.169,29.333,1.625C496.337,460.076,494.04,459.494,493.44,458.775Z" transform="translate(-64.302 379.775)"/>
    <path id="Path_15829" data-name="Path 15829" d="M628.049,435.126H627.6a2.112,2.112,0,0,0-1.1-1.774,8.879,8.879,0,0,0-2.889-1.118,47.884,47.884,0,0,0-7.456-.861c-1.289-.079-2.308-.141-2.911-.254l.083-.445c.576.107,1.632.172,2.855.247a48.206,48.206,0,0,1,7.532.872,9.176,9.176,0,0,1,3.04,1.184A2.563,2.563,0,0,1,628.049,435.126Z" transform="translate(-144.354 393.854)"/>
    <path id="Path_15830" data-name="Path 15830" d="M624.927,449.249a.534.534,0,0,1-.105-.011,2.769,2.769,0,0,1-.286-.08c-.238-.077-.583-.2-1.055-.387l-.126.051a4.348,4.348,0,0,1-1.7.389h0a3.662,3.662,0,0,1-2.6-1.144,5.961,5.961,0,0,1-.689-.909,4.157,4.157,0,0,0-.944-1.134,4.446,4.446,0,0,0-3.208-.582l-.09-.444a4.9,4.9,0,0,1,3.538.641,4.389,4.389,0,0,1,1.08,1.266,5.719,5.719,0,0,0,.629.837,3.221,3.221,0,0,0,3.816.661c.076-.031.136-.056.188-.073-.382-.2-.8-.42-1.175-.619-.55-.289-1.119-.587-1.6-.846l.215-.4c.478.258,1.046.556,1.6.844.7.367,1.362.714,1.863.991.272.15.471.265.607.352a1.9,1.9,0,0,1,.182.127.263.263,0,0,1,.109.329A.24.24,0,0,1,624.927,449.249Z" transform="translate(-144.832 386.065)"/>
    <path id="Path_15831" data-name="Path 15831" d="M579.356,533.11l-5.182-.572.05-.45,5.182.573Z" transform="translate(-122.967 338.341)"/>
    <path id="Path_15832" data-name="Path 15832" d="M562.537,423.725a12.3,12.3,0,0,0-.418-1.285l.422-.163a12.774,12.774,0,0,1,.433,1.332Z" transform="translate(-116.368 398.451)"/>
    <path id="Path_15833" data-name="Path 15833" d="M502.31,480.03l-.076-.084a14.976,14.976,0,0,0,4.195-6.557l.108.034a15.157,15.157,0,0,1-4.226,6.607Z" transform="translate(-83.587 370.472)"/>
    <path id="Path_15834" data-name="Path 15834" d="M533.719,550.914l-.1-.047a90.52,90.52,0,0,0,3.109-11.3c1.125-4.814,2.163-9.764,2.414-11.514a77.609,77.609,0,0,1,4.117-14.637c.764-2.162,1.554-4.4,2.238-6.619.5-1.62.977-3.485.346-5.121-.73-1.892-2.712-2.965-4.68-3.9-7.27-3.46-14.787-7.038-22.65-9.374-.489-.145-.991-.29-1.477-.429-3.636-1.046-7.4-2.128-10.15-4.711l.077-.082c2.734,2.564,6.48,3.642,10.1,4.685.486.14.989.285,1.478.43,7.871,2.338,15.393,5.918,22.666,9.38A17.032,17.032,0,0,1,544,499.244a5.413,5.413,0,0,1,1.946,2.387c.644,1.671.16,3.558-.344,5.2-.685,2.224-1.475,4.46-2.24,6.623a77.53,77.53,0,0,0-4.112,14.615c-.251,1.753-1.29,6.707-2.416,11.523A90.56,90.56,0,0,1,533.719,550.914Z" transform="translate(-86.133 365.116)"/>
    <path id="Path_15835" data-name="Path 15835" d="M503.92,481.374l-.531-1.31a2.434,2.434,0,0,1-.223-.815.323.323,0,0,1,.069-.241.341.341,0,0,1,.2-.087,4.133,4.133,0,0,1,1.672.055l-.027.11a4.018,4.018,0,0,0-1.626-.054.247.247,0,0,0-.137.053.214.214,0,0,0-.038.159,2.35,2.35,0,0,0,.215.776l.531,1.31Z" transform="translate(-84.097 367.477)"/>
    <path id="Path_15836" data-name="Path 15836" d="M405.657,420.305h-35.3v-.113h35.3Z" transform="translate(-11.398 399.592)"/>
    <path id="Path_15837" data-name="Path 15837" d="M725.064,390.814H713.7V390.7h11.365Z" transform="translate(-199.342 415.735)"/>
    <path id="Path_15838" data-name="Path 15838" d="M361.865,382.808H318.386v-.113h43.479Z" transform="translate(17.05 420.118)"/>
    <path id="Path_15839" data-name="Path 15839" d="M678.743,418.594H645v-.113h33.74Z" transform="translate(-161.738 400.529)"/>
    <g id="Group_3494" data-name="Group 3494" transform="translate(360.486 883.308)">
      <rect id="Rectangle_794" data-name="Rectangle 794" width="11.676" height="51.163" transform="translate(44.309 7.735) rotate(60)" fill="#ccc"/>
      <rect id="Rectangle_795" data-name="Rectangle 795" width="11.676" height="51.163" transform="translate(19.235)" fill="#ccc"/>
      <rect id="Rectangle_796" data-name="Rectangle 796" width="11.676" height="51.163" transform="translate(0 17.847) rotate(-60)" fill="#ccc"/>
    </g>
    <circle id="Ellipse_262" data-name="Ellipse 262" cx="20.592" cy="20.592" r="20.592" transform="translate(364.967 888.298)" fill="#ccc"/>
    <circle id="Ellipse_263" data-name="Ellipse 263" cx="5.947" cy="5.947" r="5.947" transform="translate(379.612 902.942)" fill="#f4f4f4"/>
    <path id="Path_15840" data-name="Path 15840" d="M392.367,560.044H404.5v5.9a20.787,20.787,0,0,1,8.151,4.7l5.1-2.946,6.064,10.5-5.1,2.946a20.786,20.786,0,0,1-.005,9.409l5.108,2.949-6.064,10.5-5.1-2.947a20.78,20.78,0,0,1-8.15,4.7v5.893H392.367v-5.9a20.786,20.786,0,0,1-8.151-4.7l-5.1,2.946-6.064-10.5,5.1-2.946a20.793,20.793,0,0,1,.005-9.409l-5.108-2.949,6.064-10.5,5.1,2.947a20.775,20.775,0,0,1,8.15-4.705Zm11.676.453H392.82v5.778l-.162.048a20.328,20.328,0,0,0-8.252,4.764l-.123.116-5-2.889-5.612,9.72,5.008,2.892-.04.164a20.438,20.438,0,0,0-.005,9.526l.04.164-5,2.888,5.612,9.72,5-2.888.123.117a20.431,20.431,0,0,0,8.252,4.758l.162.048v5.783h11.224v-5.778l.162-.048a20.334,20.334,0,0,0,8.252-4.764l.123-.116,5,2.889,5.612-9.72-5.008-2.892.04-.164a20.432,20.432,0,0,0,.005-9.526l-.04-.164,5-2.888-5.612-9.72-5,2.888-.123-.117a20.431,20.431,0,0,0-8.252-4.758l-.162-.048Z" transform="translate(-12.872 323.038)"/>
    <g id="Group_3497" data-name="Group 3497" transform="translate(490.298 892.296)">
      <rect id="Rectangle_797" data-name="Rectangle 797" width="20.198" height="88.501" transform="translate(76.644 13.379) rotate(60)" fill="#fff"/>
      <rect id="Rectangle_798" data-name="Rectangle 798" width="20.198" height="88.501" transform="translate(33.273)" fill="#fff"/>
      <rect id="Rectangle_799" data-name="Rectangle 799" width="20.198" height="88.501" transform="translate(0 30.871) rotate(-60)" fill="#fff"/>
    </g>
    <circle id="Ellipse_264" data-name="Ellipse 264" cx="35.62" cy="35.62" r="35.62" transform="translate(498.05 900.927)" fill="#fff"/>
    <circle id="Ellipse_265" data-name="Ellipse 265" cx="10.288" cy="10.288" r="10.288" transform="translate(523.382 926.259)" fill="#e9e9e9"/>
    <path id="Path_15841" data-name="Path 15841" d="M693.215,579.9h20.65v10.161a35.791,35.791,0,0,1,14.241,8.211l8.79-5.075,10.325,17.884-8.79,5.075a35.791,35.791,0,0,1-.01,16.438l8.8,5.08-.113.2L736.9,655.558l-.2-.113-8.6-4.963a35.771,35.771,0,0,1-14.239,8.221v10.152h-20.65v-10.16a35.8,35.8,0,0,1-14.241-8.211l-8.79,5.075-10.325-17.884,8.79-5.075a35.8,35.8,0,0,1,.009-16.438l-8.8-5.08L670.184,593.2l.2.113,8.6,4.963a35.785,35.785,0,0,1,14.239-8.221Zm20.2.453H693.667V590.39l-.162.048a35.337,35.337,0,0,0-14.341,8.28l-.123.116-8.692-5.018-9.873,17.1,8.7,5.023-.04.164a35.507,35.507,0,0,0-.009,16.555l.04.164-8.691,5.018,9.873,17.1,8.69-5.018.123.117a35.512,35.512,0,0,0,14.342,8.269l.162.048V668.4h19.745V658.365l.162-.048a35.325,35.325,0,0,0,14.341-8.28l.123-.116,8.692,5.019,9.872-17.1-8.7-5.023.04-.164a35.509,35.509,0,0,0,.01-16.555l-.04-.164,8.69-5.017-9.872-17.1-8.691,5.018-.123-.117a35.509,35.509,0,0,0-14.342-8.269l-.162-.048Z" transform="translate(-169.87 312.168)"/>
    <g id="Group_3500" data-name="Group 3500" transform="translate(390.544 936.546)">
      <rect id="Rectangle_800" data-name="Rectangle 800" width="13.469" height="59.017" transform="matrix(0.966, 0.259, -0.259, 0.966, 31.378, 0)" fill="#f4f4f4"/>
      <rect id="Rectangle_801" data-name="Rectangle 801" width="13.469" height="59.017" transform="translate(4.618 14.142) rotate(-45)" fill="#f4f4f4"/>
      <rect id="Rectangle_802" data-name="Rectangle 802" width="13.469" height="59.017" transform="matrix(-0.259, -0.966, 0.966, -0.259, 3.486, 44.388)" fill="#f4f4f4"/>
    </g>
    <circle id="Ellipse_266" data-name="Ellipse 266" cx="23.753" cy="23.753" r="23.753" transform="translate(392.584 948.549) rotate(-12.107)" fill="#f4f4f4"/>
    <circle id="Ellipse_267" data-name="Ellipse 267" cx="6.86" cy="6.86" r="6.86" transform="translate(413.93 959.932)" fill="#e9e9e9"/>
    <path id="Path_15842" data-name="Path 15842" d="M471.026,677.558l13.447,3.6-1.757,6.556a23.946,23.946,0,0,1,7.694,7.7l6.563-1.758,3.6,13.447-6.558,1.757a23.926,23.926,0,0,1-2.818,10.518l4.8,4.8-9.844,9.844-4.8-4.8a23.944,23.944,0,0,1-10.514,2.824l-1.757,6.556L455.634,735l1.757-6.556a23.946,23.946,0,0,1-7.694-7.7l-6.563,1.759-3.6-13.447,6.558-1.757a23.929,23.929,0,0,1,2.818-10.518l-4.8-4.8,9.844-9.844,4.8,4.8a23.949,23.949,0,0,1,10.514-2.824Zm12.893,3.923-12.573-3.369-1.727,6.445-.169,0a23.609,23.609,0,0,0-10.628,2.854l-.149.081-4.723-4.723-9.2,9.2,4.719,4.719-.081.149a23.484,23.484,0,0,0-2.849,10.632l0,.169-6.447,1.727,3.369,12.573,6.452-1.729.088.144a23.6,23.6,0,0,0,7.777,7.786l.144.088-1.727,6.445,12.573,3.369,1.727-6.445.169,0a23.6,23.6,0,0,0,10.628-2.854l.149-.081,4.723,4.723,9.2-9.2-4.719-4.719.081-.148a23.481,23.481,0,0,0,2.849-10.632l0-.169,6.447-1.727-3.369-12.572-6.452,1.729-.088-.144a23.605,23.605,0,0,0-7.777-7.786l-.144-.088Z" transform="translate(-49.264 258.712)"/>
    <path id="Path_15843" data-name="Path 15843" d="M560.566,631.595h-.118L553.5,631.5l0-.113,6.952.095a1.584,1.584,0,0,0,1.137-.276,1.554,1.554,0,0,0,.234-.315,1.222,1.222,0,0,1,1.692-.51l1.609.334-.023.111-1.609-.335a1.511,1.511,0,0,0-1.326.132,1.473,1.473,0,0,0-.247.327,1.664,1.664,0,0,1-.252.337A1.536,1.536,0,0,1,560.566,631.595Z" transform="translate(-111.648 284.584)"/>
    <path id="Path_15844" data-name="Path 15844" d="M491.086,510.593c5.377,1-8.756,2.795-13.61,3.207a2.356,2.356,0,0,1-.972-.055,2.1,2.1,0,0,1-.859-.676c-1.918-2.25-2.524-5.32-2.811-8.263a.831.831,0,0,1,.068-.534.815.815,0,0,1,.636-.275,12.679,12.679,0,0,1,3.874.2S486.171,509.678,491.086,510.593Z" transform="translate(-67.487 353.753)"/>
    <path id="Path_15844_-_Outline" data-name="Path 15844 - Outline" d="M476.768,513.776a1.827,1.827,0,0,1-.614-.091,2.321,2.321,0,0,1-.957-.743,10.723,10.723,0,0,1-2.061-3.953,22.955,22.955,0,0,1-.8-4.434,1.036,1.036,0,0,1,.1-.679,1.006,1.006,0,0,1,.8-.377,12.9,12.9,0,0,1,3.943.208l.039.008.034.021c.022.014,2.217,1.383,4.983,2.846a34.47,34.47,0,0,0,8.613,3.516,4.508,4.508,0,0,1,.973.267c.284.127.422.293.412.492-.014.286-.338.464-.618.587a8.929,8.929,0,0,1-1.313.417c-1,.253-2.394.521-4.151.8-3.192.5-6.87.92-8.936,1.095C477.068,513.765,476.919,513.776,476.768,513.776Zm-2.229-9.891a12.458,12.458,0,0,0-1.254.063c-.189.019-.393.054-.469.172a.665.665,0,0,0-.033.39c.251,2.577.792,5.832,2.758,8.138a1.894,1.894,0,0,0,.762.609,1.394,1.394,0,0,0,.465.066c.133,0,.272-.011.414-.023,1.985-.168,5.547-.571,8.678-1.056,1.712-.265,3.094-.524,4.105-.767a4.786,4.786,0,0,0,1.8-.635,2.711,2.711,0,0,0-.994-.3,34.36,34.36,0,0,1-8.745-3.562c-2.589-1.37-4.682-2.658-4.974-2.839A12.469,12.469,0,0,0,474.54,503.885Z" transform="translate(-67.212 354.027)"/>
    <circle id="Ellipse_268" data-name="Ellipse 268" cx="3.801" cy="3.801" r="3.801" transform="translate(475.868 828.222)"/>
    <path id="Path_15845" data-name="Path 15845" d="M524.507,545.189q-.872,0-1.745-.025l-11.185-.326.039-1.357,11.185.325a58.065,58.065,0,0,0,45.7-95.915l-.646-.751,1.029-.886.646.751a59.416,59.416,0,0,1-45.024,98.184Z" transform="translate(-88.702 385.326)"/>
    <circle id="Ellipse_269" data-name="Ellipse 269" cx="5.46" cy="5.46" r="5.46" transform="translate(431.97 924.025)"/>
    <path id="Ellipse_269_-_Outline" data-name="Ellipse 269 - Outline" d="M5.186-.5a5.686,5.686,0,0,1,5.686,5.686,5.686,5.686,0,0,1-5.686,5.686A5.686,5.686,0,0,1-.5,5.186,5.686,5.686,0,0,1,5.186-.5Zm0,10.92A5.234,5.234,0,1,0-.047,5.186,5.24,5.24,0,0,0,5.186,10.42Z" transform="translate(432.244 924.299)"/>
    <path id="Path_15846" data-name="Path 15846" d="M543.189,653.688l-.237-.385c3.718-2.287,7.418-4.708,11-7.2l.258.372C550.621,648.971,546.914,651.4,543.189,653.688Z" transform="translate(-105.876 275.927)"/>
    <rect id="Rectangle_803" data-name="Rectangle 803" width="12.765" height="1.967" rx="0.984" transform="translate(442.033 920.253)"/>
    <path id="Rectangle_803_-_Outline" data-name="Rectangle 803 - Outline" d="M.651-.5H11.566A1.152,1.152,0,0,1,12.717.651V.769A1.152,1.152,0,0,1,11.566,1.92H.651A1.152,1.152,0,0,1-.5.769V.651A1.152,1.152,0,0,1,.651-.5ZM11.566,1.467a.7.7,0,0,0,.7-.7V.651a.7.7,0,0,0-.7-.7H.651a.7.7,0,0,0-.7.7V.769a.7.7,0,0,0,.7.7Z" transform="translate(442.307 920.527)"/>
    <rect id="Rectangle_804" data-name="Rectangle 804" width="12.765" height="1.967" rx="0.984" transform="translate(442.717 940.611) rotate(-12.107)"/>
    <path id="Rectangle_804_-_Outline" data-name="Rectangle 804 - Outline" d="M1.151,0H12.066a1.152,1.152,0,0,1,1.151,1.151v.118A1.152,1.152,0,0,1,12.066,2.42H1.151A1.152,1.152,0,0,1,0,1.269V1.151A1.152,1.152,0,0,1,1.151,0ZM12.066,1.967a.7.7,0,0,0,.7-.7V1.151a.7.7,0,0,0-.7-.7H1.151a.7.7,0,0,0-.7.7v.118a.7.7,0,0,0,.7.7Z" transform="translate(442.448 940.437) rotate(-12.107)"/>
    <path id="Path_15847" data-name="Path 15847" d="M507.9,577.328a4.212,4.212,0,0,1-1.781-.306,3.413,3.413,0,0,1-1.652-1.545,51.259,51.259,0,0,1-3.239-10.182c-.379-1.561-.771-3.175-1.226-4.756l-6.857-23.809-5.372-18.655a11.519,11.519,0,0,0-3.3-5.979l-.343-.385c-1.829-2.066-3.51-4.306-5.136-6.471-.665-.886-1.5-1.96-2.388-3.1-3.728-4.788-8.835-11.345-10.079-15.2l.431-.139c1.22,3.782,6.3,10.3,10.005,15.064.887,1.139,1.725,2.216,2.392,3.1,1.62,2.158,3.3,4.39,5.113,6.443l.341.383a11.943,11.943,0,0,1,3.394,6.155l5.372,18.655,6.857,23.809c.458,1.59.851,3.209,1.231,4.774a50.161,50.161,0,0,0,3.208,10.093,2.956,2.956,0,0,0,1.434,1.33,4.183,4.183,0,0,0,1.794.263,35.013,35.013,0,0,0,10.492-2.163c.535-.215,1.169-.581,1.148-1.107-.019-.472-.563-.8-1.035-1.036l-3.526-1.752-.587-11.833.452-.022.574,11.568,3.288,1.634c.584.29,1.258.714,1.286,1.424.017.436-.217,1.058-1.432,1.545a32.645,32.645,0,0,1-5.243,1.511,29.925,29.925,0,0,1-5.412.685Z" transform="translate(-64.042 363.132)"/>
    <path id="Path_15848" data-name="Path 15848" d="M553.179,673.273c-3.8-3.679-7.725-7.343-11.65-10.89l.3-.336c3.929,3.55,7.853,7.218,11.661,10.9Z" transform="translate(-105.097 267.202)"/>
    <path id="Path_15849" data-name="Path 15849" d="M554.8,551.717c-.473-8.438-3.954-16.571-7.3-23.414l.407-.2a94.622,94.622,0,0,1,4.857,11.468,45.787,45.787,0,0,1,2.485,12.119Z" transform="translate(-108.367 340.522)"/>
    <path id="Path_15850" data-name="Path 15850" d="M548.919,673.3l-.019-.112,7.071-1.18a.977.977,0,0,0,.474-.166.967.967,0,0,0,.254-.579,1.182,1.182,0,0,1,.255-.615,1.163,1.163,0,0,1,.514-.257l2.73-.821.033.108-2.73.822a1.06,1.06,0,0,0-.466.228,1.083,1.083,0,0,0-.225.559,1.062,1.062,0,0,1-.292.643,1.076,1.076,0,0,1-.528.19Z" transform="translate(-109.132 263.087)"/>
    <path id="Path_15851" data-name="Path 15851" d="M534.719,571.155l-1.892-13.073c-.26-1.8-.528-3.653-.618-5.5-.022-.454-.034-.917-.045-1.365a21.759,21.759,0,0,0-.3-3.628,20.705,20.705,0,0,0-1.292-3.867c-3.2-7.775-6.814-15.486-10.742-22.918l.1-.053c3.93,7.435,7.546,15.149,10.747,22.927a20.807,20.807,0,0,1,1.3,3.889,21.852,21.852,0,0,1,.3,3.647c.011.447.023.909.045,1.362.089,1.837.357,3.692.617,5.485l0,.014,1.89,13.058Z" transform="translate(-93.222 344.544)"/>
    <path id="Path_15852" data-name="Path 15852" d="M558.407,658.73a1.341,1.341,0,0,1-.438-1.192,70.836,70.836,0,0,0-1.281-12.065l.111-.022a70.962,70.962,0,0,1,1.283,12.084c.009.451.062.9.385,1.1Z" transform="translate(-113.395 276.286)"/>
    <path id="Line_100" data-name="Line 100" d="M96.511,27.432l-.871-.248.124-.435.871.248Zm-1.741-.5-.871-.248.124-.435.871.248Zm-1.741-.5-.871-.248.124-.435.871.248Zm-1.741-.5-.871-.248.124-.435.871.248Zm-1.741-.5-.871-.248.124-.435.871.248Zm-1.741-.5-.871-.248.124-.435.871.248Zm-1.741-.5-.871-.248.124-.435.871.248Zm-1.741-.5-.871-.248.124-.435.871.248Zm-1.741-.5-.871-.248.124-.435.871.248Zm-1.741-.5-.871-.248.124-.435.871.248Zm-1.741-.5-.871-.248.124-.435.871.248Zm-1.741-.5-.871-.248.124-.435.871.248Zm-1.741-.5-.871-.248.124-.435.871.248ZM73.873,21,73,20.748l.124-.435.871.248Zm-1.741-.5-.871-.248.124-.435.871.248Zm-1.741-.5-.871-.248.124-.435.871.248Zm-1.741-.5-.871-.248.124-.435.871.248Zm-1.741-.5-.871-.248.124-.435.871.248Zm-1.741-.5-.871-.248.124-.435.871.248Zm-1.741-.5-.871-.248.124-.435.871.248Zm-1.741-.5-.871-.248.124-.435.871.248Zm-1.741-.5-.871-.248.124-.435.871.248Zm-1.741-.5-.871-.248.124-.435.871.248Zm-1.741-.5-.871-.248.124-.435.871.248Zm-1.741-.5-.871-.248.124-.435.871.248Zm-1.741-.5-.871-.248.124-.435.871.248Zm-1.741-.5-.871-.248.124-.435.871.248Zm-1.741-.5-.871-.248.124-.435.871.248Zm-1.741-.5-.871-.248.124-.435.871.248Zm-1.741-.5-.871-.248.124-.435.871.248Zm-1.741-.5-.871-.248.124-.435.871.248Zm-1.741-.5-.871-.248.124-.435.871.248Zm-1.741-.5-.871-.248.124-.435.871.248Zm-1.741-.5-.871-.248.124-.435.871.248ZM37.3,10.6l-.871-.248.124-.435.871.248Zm-1.741-.5-.871-.248.124-.435.871.248Zm-1.741-.5-.871-.248.124-.435.871.248Zm-1.741-.5-.871-.248.124-.435.871.248Zm-1.741-.5-.871-.248.124-.435.871.248Zm-1.741-.5-.871-.248.124-.435.871.248Zm-1.741-.5-.871-.248.124-.435.871.248Zm-1.741-.5-.871-.248.124-.435.871.248Zm-1.741-.5L22.5,6.391l.124-.435L23.5,6.2Zm-1.741-.5L20.76,5.9l.124-.435.871.248Zm-1.741-.5L19.019,5.4l.124-.435.871.248Zm-1.741-.5-.871-.248L17.4,4.47l.871.248Zm-1.741-.5-.871-.248.124-.435.871.248Zm-1.741-.5-.871-.248.124-.435.871.248Zm-1.741-.5-.871-.248.124-.435.871.248Zm-1.741-.5-.871-.248.124-.435.871.248Zm-1.741-.5L8.57,2.43l.124-.435.871.248ZM7.7,2.182l-.871-.248L6.953,1.5l.871.248Zm-1.741-.5L5.087,1.44,5.211,1l.871.248Zm-1.741-.5L3.346.945,3.47.509l.871.248ZM2.475.7,1.6.45,1.728.014,2.6.262ZM.734.2-.137-.046l.124-.435.871.248Z" transform="translate(282.856 907.174)"/>
    <g id="Group_3503" data-name="Group 3503" transform="translate(258.23 820.003)">
      <rect id="Rectangle_805" data-name="Rectangle 805" width="20.534" height="89.974" transform="matrix(0.966, 0.259, -0.259, 0.966, 47.838, 0)" fill="#e9e9e9"/>
      <rect id="Rectangle_806" data-name="Rectangle 806" width="20.534" height="89.974" transform="translate(7.041 21.561) rotate(-45)" fill="#e9e9e9"/>
      <rect id="Rectangle_807" data-name="Rectangle 807" width="20.534" height="89.974" transform="matrix(-0.259, -0.966, 0.966, -0.259, 5.315, 67.672)" fill="#e9e9e9"/>
    </g>
    <circle id="Ellipse_270" data-name="Ellipse 270" cx="36.212" cy="36.212" r="36.212" transform="translate(261.339 838.302) rotate(-12.107)" fill="#e9e9e9"/>
    <circle id="Ellipse_271" data-name="Ellipse 271" cx="10.459" cy="10.459" r="10.459" transform="translate(293.883 855.655)" fill="#ccc"/>
    <path id="Path_15853" data-name="Path 15853" d="M195.147,420.063l20.271,5.432-2.67,9.966a36.386,36.386,0,0,1,11.813,11.826l9.977-2.673,5.432,20.271L230,467.555a36.371,36.371,0,0,1-4.327,16.149l7.3,7.3-14.84,14.84-7.3-7.3a36.388,36.388,0,0,1-16.143,4.336l-2.67,9.966-20.271-5.432,2.67-9.966A36.377,36.377,0,0,1,162.6,485.615l-9.977,2.674-5.432-20.271,9.968-2.671a36.363,36.363,0,0,1,4.327-16.149l-7.3-7.3,14.84-14.84,7.3,7.3a36.383,36.383,0,0,1,16.143-4.336Zm19.717,5.752-19.4-5.2-2.641,9.855-.169,0a36.1,36.1,0,0,0-16.257,4.366l-.149.081L169.03,427.7l-14.2,14.2,7.216,7.216-.081.148a35.918,35.918,0,0,0-4.358,16.262l0,.169-9.857,2.641,5.2,19.4,9.866-2.644.088.144a36.1,36.1,0,0,0,11.9,11.909l.144.088-2.641,9.855,19.4,5.2,2.641-9.855.169,0a36.1,36.1,0,0,0,16.257-4.366l.149-.081,7.222,7.223,14.2-14.2-7.216-7.216.081-.148a35.925,35.925,0,0,0,4.358-16.263l0-.169,9.857-2.641-5.2-19.4-9.866,2.643-.088-.144a36.1,36.1,0,0,0-11.9-11.909l-.144-.088Z" transform="translate(110.761 399.663)"/>
    <path id="Path_15854" data-name="Path 15854" d="M468.988,685.1l-.49-.131.117-.437.4.108.394-.052.059.449Zm1.381-.181-.059-.449.9-.117.059.449Zm-2.746-.185-.874-.234.117-.437.874.234Zm4.541-.05-.059-.449.9-.117.059.449Zm1.8-.235L473.9,684l.9-.117.059.449Zm-8.085-.184-.874-.234.117-.437.874.234Zm9.88-.051-.059-.449.9-.117.059.449Zm1.8-.235-.059-.449.9-.117.059.449Zm-13.423-.182-.874-.234.117-.437.874.234Zm15.219-.053-.059-.449.9-.117.059.449Zm1.8-.235-.059-.449.9-.117.059.449Zm-18.762-.181-.874-.234.117-.437.874.234Zm20.558-.054-.059-.449.9-.117.059.449Zm1.8-.235-.059-.449.9-.117.059.449Zm-24.1-.18-.874-.234.117-.437.874.234Zm25.9-.055-.059-.449.9-.117.059.449Zm1.8-.235-.059-.449.9-.118.059.449Zm-29.44-.179-.874-.234.117-.437.874.234Zm31.236-.056-.059-.449.9-.117.059.449Zm1.8-.235-.059-.449.9-.117.059.449Zm-34.779-.177-.874-.234.117-.437.874.234Zm36.574-.058-.059-.449.9-.118.059.449Zm1.8-.235-.059-.449.9-.117.059.449Zm1.8-.235-.059-.449.9-.118.059.449Zm1.8-.235-.059-.449.9-.117.059.449Zm-43.662-.021-.64-.64.32-.32.64.64Zm45.457-.214-.059-.449.9-.117.059.449Zm1.8-.235-.059-.449.9-.117.059.449Zm1.8-.235-.059-.449.9-.117.059.449Zm1.8-.235-.059-.449.9-.117.059.449Zm1.8-.235-.059-.449.9-.117.059.449Zm-53.918-.127-.64-.64.32-.32.64.64Zm55.713-.108-.059-.449.9-.117.059.449Zm1.8-.235-.059-.449.9-.117.059.449Zm1.8-.235-.059-.449.9-.117.059.449Zm1.8-.235-.059-.449.9-.117.059.449Zm1.8-.235-.059-.449.9-.117.059.449Zm-64.173-.232-.64-.64.32-.32.64.64Zm65.968,0-.059-.449.9-.117.059.449Zm1.8-.235-.059-.449.9-.117.059.449Zm1.8-.235-.059-.449.9-.117.059.449Zm1.8-.235-.059-.449.9-.117.059.449Zm1.8-.235-.059-.449.9-.117.059.449Zm1.8-.235-.059-.449.9-.117.059.449Zm-76.224-.1-.64-.64.32-.32.64.64Zm78.019-.132-.059-.449.9-.117.059.449Zm1.8-.235-.059-.449.9-.117.059.449Zm1.8-.235-.059-.449.9-.117.059.449Zm1.8-.235-.059-.449.9-.117.059.449Zm1.8-.235-.059-.449.9-.117.059.449Zm-86.48-.209-.64-.64.32-.32.64.64Zm88.275-.026-.059-.449.9-.117.059.449Zm1.8-.235-.059-.449.9-.117.059.449Zm1.8-.235-.059-.449.9-.117.059.449Zm1.8-.235-.059-.449.9-.117.059.449Zm1.8-.235-.059-.449.9-.117.059.449Zm1.8-.235-.059-.449.9-.117.059.449Zm-98.531-.079-.64-.64.32-.32.64.64Zm100.326-.156-.059-.449.9-.117.059.449Zm1.8-.235-.059-.449.9-.117.059.449Zm1.8-.235-.059-.449.9-.117.059.449Zm1.8-.235-.059-.449.9-.117.059.449Zm1.8-.235-.059-.449.9-.117.059.449Zm-108.787-.185-.64-.64.32-.32.64.64Zm110.582-.05-.059-.449.9-.118.059.449Zm1.8-.235-.059-.449.9-.117.059.449Zm1.8-.235-.059-.449.9-.117.059.449Zm1.8-.235-.059-.449.9-.117.059.449Zm1.8-.235-.059-.449.9-.117.059.449Zm1.8-.235-.059-.449.9-.117.059.449Zm-120.837-.056-.64-.64.32-.32.64.64ZM569.1,672l-.059-.449.9-.118.059.449Zm1.8-.235-.059-.449.9-.117.059.449Zm1.8-.235-.059-.449.9-.117.059.449Zm1.8-.235-.059-.449.9-.117.059.449Zm1.8-.235-.059-.449.9-.117.059.449ZM445.188,670.9l-.64-.64.32-.32.64.64Zm132.888-.074-.059-.449.9-.117.059.449Zm1.8-.235-.059-.449.9-.117.059.449Zm1.8-.235-.059-.449.9-.117.059.449Zm1.8-.235-.059-.449.9-.117.059.449Zm1.8-.235-.059-.449.9-.117.059.449Zm1.8-.235-.059-.449.9-.117.059.449Zm-143.144-.032-.64-.64.32-.32.64.64Zm144.939-.2-.059-.449.9-.117.059.449Zm1.8-.235-.059-.449.9-.117.059.449Zm1.8-.235-.059-.449.661-.087.128-.074.226.392-.206.119Zm1.741-.67-.226-.392.784-.453.226.392Zm-151.236-.254-.234-.874.437-.117.234.874Zm152.8-.651-.226-.392.784-.453.226.392Zm1.568-.905-.226-.392.784-.453.226.392Zm-154.841-.193-.234-.874.437-.117.234.874Zm156.408-.713-.226-.392.784-.453.226.392Zm1.568-.905-.226-.392.784-.453.226.392Zm-158.445-.131-.234-.874.437-.117.234.874Zm160.013-.774-.226-.392.784-.453.226.392Zm1.568-.905-.226-.392.784-.453.226.392Zm-162.049-.069-.234-.874.437-.117.234.874Zm163.617-.836-.226-.392.784-.453.226.392Zm1.568-.905-.226-.392.784-.453.226.392Zm-165.653-.008-.234-.874.437-.117.234.874Zm167.221-.9-.226-.392.784-.453.226.392Zm-167.69-.851-.234-.874.437-.117.234.874Zm169.258-.054-.226-.392.784-.453.226.392Zm1.568-.905-.226-.392.784-.453.226.392Zm-171.294-.789-.234-.874.437-.117.234.874Zm172.862-.116-.226-.392.784-.453.226.392Zm1.568-.905-.226-.392.784-.453.226.392Zm-174.443-.728-.437-.117.234-.874.437.117Zm176.01-.178-.226-.392.22-.127.265-.459.392.226-.326.564Zm1.1-1.535-.392-.226.453-.784.392.226Zm-176.645-.036-.437-.117.234-.874.437.117Zm177.55-1.532-.392-.226.453-.784.392.226Zm-177.082-.217-.437-.117.234-.874.437.117Zm177.987-1.351-.392-.226.453-.784.392.226Zm-177.518-.4-.437-.117.234-.874.437.117Zm178.424-1.17-.392-.226.453-.784.392.226Zm-177.955-.578-.437-.117.234-.874.437.117Zm178.86-.99-.392-.226.453-.784.392.226Zm-178.392-.759-.437-.117.234-.874.437.117Zm179.3-.809-.392-.226.453-.784.392.226Zm-178.828-.94-.437-.117.234-.874.437.117Zm179.733-.628-.392-.226.453-.784.392.226ZM443.4,643.539l-.437-.117.234-.874.437.117Zm180.17-.447-.392-.226.453-.784.392.226Zm-179.7-1.3-.437-.117.234-.874.437.117Zm180.607-.266-.392-.226.453-.784.392.226Zm-180.138-1.483-.437-.117.234-.874.437.117Zm181.043-.085-.392-.226.453-.784.392.226Zm.905-1.568-.392-.226.269-.465v-.247h.453v.368ZM444.813,638.3l-.432-.135.27-.864.432.135Zm.54-1.728-.432-.135.27-.864.432.135Zm181.261-.032h-.453v-.905h.453Zm-180.721-1.7-.432-.135.27-.864.432.135Zm180.721-.114h-.453v-.905h.453Zm-180.181-1.614-.432-.135.27-.864.432.135Zm180.181-.2h-.453v-.905h.453Zm-179.641-1.531-.432-.135.27-.864.432.135Zm179.641-.279h-.453v-.905h.453Zm-179.1-1.449-.432-.135.27-.864.432.135Zm179.1-.361h-.453V628.4h.453Zm-178.562-1.367-.432-.135.27-.864.432.135Zm178.562-.444h-.453v-.905h.453Zm-178.022-1.285-.432-.135.27-.864.432.135Zm178.022-.526h-.453v-.905h.453Zm-177.482-1.2-.432-.135.27-.864.432.135Zm177.482-.608h-.453v-.905h.453Zm-176.943-1.12-.432-.135.27-.864.432.135Zm176.943-.69h-.453v-.905h.453Zm-176.4-1.038-.432-.135.27-.864.432.135Zm176.4-.773h-.453v-.905h.453ZM450.75,619.3l-.432-.135.27-.864.432.135Zm175.863-.855h-.453v-.905h.453Zm-175.324-.873-.432-.135.27-.864.432.135Zm175.324-.937h-.453v-.905h.453Zm-174.784-.791-.432-.135.27-.864.432.135Zm174.784-1.02h-.453v-.905h.453Zm-174.244-.708-.432-.135.27-.864.432.135Zm174.244-1.1h-.453V612.1h.453Zm-142.545-.172-.155-.425.85-.311.155.425Zm-31.159-.454-.432-.135.27-.864.432.135Zm32.86-.168-.155-.425.85-.311.155.425Zm1.7-.621-.155-.425.85-.311.155.425Zm139.144-.4h-.453v-.14l-.322-.558.392-.226.383.663Zm-137.444-.226-.155-.425.85-.311.155.425Zm-35.721-.318-.432-.135.27-.864.432.135Zm37.421-.3-.155-.425.85-.311.155.425Zm1.7-.621-.155-.425.85-.311.155.425Zm132.816-.013-.453-.784.392-.226.453.784Zm-131.115-.609-.155-.425.85-.311.155.425Zm-40.283-.181-.432-.135.27-.864.432.135Zm41.983-.44-.155-.425.85-.311.155.425Zm128.509-.338-.453-.784.392-.226.453.784Zm-126.809-.284-.155-.425.85-.311.155.425Zm1.7-.621-.155-.425.85-.311.155.425Zm-44.844-.045-.432-.135.27-.864.432.135Zm46.545-.576-.155-.425.85-.311.155.425Zm122.5-.041-.453-.784.392-.226.453.784Zm-120.8-.58-.155-.425.85-.311.155.425Zm-47.705-.531-.432-.135.27-.864.432.135Zm49.406-.091-.155-.425.85-.311.155.425Zm118.2-.366-.453-.784.392-.226.453.784Zm-116.5-.255-.155-.425.85-.311.155.425Zm1.7-.622-.155-.425.85-.311.155.425Zm-52.267-.394-.432-.135.27-.864.432.135Zm53.967-.227-.155-.425.85-.311.155.425Zm112.19-.07-.453-.784.392-.226.453.784Zm-110.49-.551-.155-.425.85-.311.155.425Zm1.7-.621-.155-.425.85-.311.155.425Zm-56.829-.258-.432-.135.27-.864.432.135Zm164.713-.137-.453-.784.392-.226.453.784Zm-106.184-.226-.155-.425.85-.311.155.425Zm1.7-.621-.155-.425.85-.311.155.425Zm1.7-.621-.155-.425.85-.311.155.425Zm101.878-.1-.453-.784.392-.226.453.784Zm-163.268-.023-.432-.135.27-.864.432.135Zm63.091-.5-.155-.425.85-.311.155.425Zm1.7-.621-.155-.425.85-.311.155.425Zm97.572-.424-.453-.784.392-.226.453.784Zm-161.823-.184-.432-.135.27-.864.432.135Zm65.952-.014-.155-.425.85-.311.155.425Zm1.7-.621-.155-.425.85-.311.155.425Zm1.7-.621-.155-.425.85-.311.155.425Zm91.565-.128-.453-.784.392-.226.453.784Zm-160.378-.344-.432-.135.27-.864.432.135Zm70.513-.15-.155-.425.85-.311.155.425Zm1.7-.622-.155-.425.85-.311.155.425Zm87.259-.453-.453-.784.392-.226.453.784Zm-85.559-.169-.155-.425.85-.311.155.425Zm-73.374-.335-.432-.135.27-.864.432.135Zm75.075-.286-.155-.425.85-.311.155.425Zm1.7-.621-.155-.425.85-.311.155.425Zm81.253-.156-.211-.366-.313-.181.226-.392.418.241.272.471Zm-79.552-.465-.155-.425.85-.311.155.425Zm-77.936-.2-.432-.135.27-.864.432.135Zm156.18-.335-.784-.453.226-.392.784.453Zm-76.544-.087-.155-.425.85-.311.155.425Zm1.7-.621-.155-.425.85-.311.155.425Zm73.276-.2-.784-.453.226-.392.784.453Zm-71.575-.425-.155-.425.85-.311.155.425Zm-82.5-.063-.432-.135.27-.864.432.135Zm152.5-.417-.784-.453.226-.392.784.453Zm-68.307-.141-.155-.425.85-.311.155.425Zm1.7-.621-.155-.425.85-.311.155.425Zm65.039-.143-.784-.453.226-.392.784.453Zm-150.4-.406-.432-.135.27-.864.432.135Zm87.059-.073-.155-.425.85-.311.155.425Zm61.77-.427-.784-.453.226-.392.784.453Zm-60.07-.195-.155-.425.85-.311.155.425Zm1.7-.621-.155-.425.85-.311.155.425Zm56.8-.089-.784-.453.226-.392.784.453Zm-55.1-.532-.155-.425.85-.311.155.425Zm53.533-.373-.784-.453.226-.392.784.453Zm-51.833-.249-.155-.425.85-.311.155.425Zm1.7-.621-.155-.425.85-.311.155.425Zm48.564-.035-.784-.453.226-.392.784.453Zm-46.864-.586-.155-.425.85-.311.155.425Zm45.3-.319-.784-.453.226-.392.784.453Zm-43.6-.3-.155-.425.85-.311.155.425Zm42.028-.6-.784-.453.226-.392.784.453Zm-40.327-.019-.155-.425.85-.311.155.425Zm1.7-.621-.155-.425.85-.311.155.425Zm37.059-.265-.784-.453.226-.392.784.453Zm-35.359-.356-.155-.425.85-.311.155.425Zm33.791-.549L597,582.63l.226-.392.784.453Zm-32.09-.073-.155-.425.85-.311.155.425Zm1.7-.621-.155-.425.85-.311.155.425Zm28.822-.211-.784-.453.226-.392.784.453Zm-27.121-.41-.155-.425.85-.311.155.425Zm25.554-.5-.784-.453.226-.392.784.453Zm-23.853-.126-.155-.425.85-.311.155.425Zm1.7-.621-.155-.425.541-.2h.409v.453h-.329Zm20.585-.158-.022-.013H592.3V579.9h.88l.127.073-.188.325v.054h-.031Zm-1.686-.013h-.905V579.9h.905Zm-1.81,0h-.905V579.9h.905Zm-1.81,0h-.905V579.9h.905Zm-1.81,0h-.905V579.9h.905Zm-1.81,0h-.905V579.9h.905Zm-1.81,0h-.905V579.9h.905Zm-1.81,0h-.905V579.9h.905Zm-1.81,0h-.905V579.9h.905Zm-1.81,0H576V579.9h.905Zm-1.81,0h-.905V579.9h.905Z" transform="translate(-49.346 312.168)"/>
    <path id="Path_15855" data-name="Path 15855" d="M649.947,720.467h-.126v-.453h.126Zm-1.031,0h-.905v-.453h.905Zm-1.81,0H646.2v-.453h.905Zm-1.81,0h-.905v-.453h.905Zm-1.81,0h-.905v-.453h.905Zm-1.81,0h-.905v-.453h.905Zm-1.81,0h-.905v-.453h.905Zm-1.81,0h-.905v-.453h.905Zm-1.81,0h-.905v-.453h.905Zm-1.81,0h-.905v-.453h.905Zm-1.81,0h-.905v-.453h.905Zm-1.81,0h-.905v-.453h.905Zm-1.823-.4-.784-.453.226-.392.784.453Zm-1.568-.905-.784-.453.226-.392.784.453Zm-1.568-.905-.784-.453.226-.392.784.453Zm-1.568-.905-.784-.453.226-.392.784.453Zm-1.568-.905-.784-.453.226-.392.784.453Zm-1.568-.905-.784-.453.226-.392.784.453Zm-1.568-.905-.784-.453.226-.392.784.453Zm-1.568-.905-.784-.453.226-.392.784.453Zm-1.568-.905-.784-.453.226-.392.784.453Zm-1.568-.905-.784-.453.226-.392.784.453Zm-1.568-.905-.784-.453.226-.392.784.453Zm-1.568-.905-.784-.453.226-.392.784.453Zm-1.568-.905-.784-.453.226-.392.784.453Zm-1.568-.905-.784-.453.226-.392.784.453Zm-1.568-.905-.571-.33-.209-.108.207-.4.223.115.576.332Zm-1.584-.852-.8-.415.207-.4.8.415Zm-1.609-.83-.8-.415.208-.4.8.415Zm-1.609-.83-.8-.415.207-.4.8.415Zm-1.609-.83-.8-.415.207-.4.8.415Zm-1.609-.83-.8-.415.207-.4.8.415Zm-1.609-.83-.8-.415.207-.4.8.415Zm-1.609-.83-.8-.415.207-.4.8.415Zm-1.609-.83-.8-.415.207-.4.8.415Zm-1.609-.83-.8-.415.207-.4.8.415Zm-1.609-.83-.8-.415.207-.4.8.415Zm-1.609-.83-.8-.415.207-.4.8.415Zm-1.609-.83-.8-.415.207-.4.8.415Zm-1.609-.83-.8-.415.207-.4.8.415Zm-1.609-.83-.8-.415.207-.4.8.415Zm-1.609-.83-.8-.415.207-.4.8.415Zm-1.609-.83-.8-.415.208-.4.8.415Zm-1.609-.83-.8-.415.207-.4.8.415Zm-1.609-.83-.8-.415.208-.4.8.415Zm-1.609-.83-.8-.415.207-.4.8.415Zm-1.609-.83-.8-.415.207-.4.8.415Zm-1.609-.83-.8-.415.207-.4.8.415Zm-1.609-.83-.8-.415.207-.4.8.415Zm-1.609-.83-.8-.415.207-.4.8.415Zm-1.609-.83-.8-.415.207-.4.8.415Zm-1.609-.83-.8-.415.207-.4.8.415Zm-1.609-.83-.8-.415.207-.4.8.415Zm-1.609-.83-.8-.415.207-.4.8.415Zm-1.609-.83-.8-.415.207-.4.8.415Zm-1.609-.83-.8-.415.207-.4.8.415Zm-1.609-.83-.8-.415.207-.4.8.415Zm-1.609-.83-.8-.415.207-.4.8.415Zm-1.609-.83-.8-.415.207-.4.8.415Zm-1.609-.83-.8-.415.207-.4.8.415Zm-1.609-.83-.8-.415.207-.4.8.415Zm-1.609-.83-.8-.415.207-.4.8.415Zm-1.609-.83-.8-.415.207-.4.8.415Zm-1.609-.83-.8-.415.207-.4.8.415Zm-1.609-.83-.8-.415.207-.4.8.415Zm-1.609-.83-.8-.415.207-.4.8.415Z" transform="translate(-106.179 260.556)"/>
    <path id="Path_15856" data-name="Path 15856" d="M308.949,604.162l-.165-.044.108-.4,0-.006h0l.007-.028.048.013.71-.19.117.437Zm-1.039-.278-.874-.234.117-.437.874.234Zm2.74-.177-.117-.437.874-.234.117.437Zm-4.489-.291-.874-.234.117-.437.874.234Zm6.238-.177-.117-.437.874-.234.117.437Zm-7.986-.291-.874-.234.117-.437.874.234Zm9.735-.177-.117-.437.874-.234.117.437Zm-11.484-.291-.874-.234.117-.437.874.234ZM315.9,602.3l-.117-.437.874-.234.117.437Zm-14.981-.291-.874-.234.117-.437.874.234Zm16.73-.177-.117-.437.874-.234.117.437Zm-18.479-.291-.874-.234.117-.437.874.234Zm20.228-.177-.117-.437.874-.234.117.437Zm-21.976-.291-.874-.234.117-.437.874.234Zm23.725-.177-.117-.437.874-.234.117.437Zm-25.519-.448-.64-.64.32-.32.64.64Zm27.267-.021-.117-.437.874-.234.117.437Zm1.749-.469-.117-.437.874-.234.117.437Zm1.811-.594-.32-.32.64-.64.32.32Zm-32.107-.2-.64-.64.32-.32.64.64Zm33.388-1.084-.32-.32.64-.64.32.32Zm-34.668-.2-.64-.64.32-.32.64.64Zm35.948-1.084-.32-.32.64-.64.32.32Zm-37.228-.2-.64-.64.32-.32.64.64Zm38.508-1.084-.32-.32.64-.64.32.32Zm-39.788-.2-.64-.64.32-.32.64.64Zm41.068-1.084-.32-.32.64-.64.32.32Zm-42.349-.2-.64-.64.32-.32.64.64Zm43.629-1.084-.32-.32.64-.64.32.32Zm-44.909-.2-.64-.64.32-.32.64.64Zm46.189-1.084-.32-.32.64-.64.32.32Zm-47.469-.2-.64-.64.32-.32.64.64Zm48.75-1.084-.32-.32.414-.414.051-.192.437.117-.083.309Zm-50.03-.2-.64-.64.32-.32.64.64Zm-1.28-1.28-.64-.64.32-.32.64.64Zm52.126-.206-.437-.117.234-.874.437.117ZM282.9,587.5l-.412-.806.4-.206.412.806Zm53.8-.53-.437-.117.234-.874.437.117Zm-54.62-1.082-.412-.806.4-.206.412.806Zm55.088-.667-.437-.117.234-.874.437.117Zm-55.912-.945-.412-.806.4-.206.412.806Zm56.381-.8-.437-.117.234-.874.437.117Zm-57.205-.808-.412-.806.4-.206.412.806Zm57.674-.94-.437-.117.234-.874.437.117Zm-58.5-.672-.412-.806.4-.206.412.806Zm58.966-1.077-.437-.117.234-.874.437.117Zm-59.79-.535-.412-.806.4-.206.412.806Zm60.259-1.214-.437-.117.234-.874.437.117Zm-61.083-.4-.412-.806.4-.206.412.806Zm61.552-1.351-.437-.117.234-.874.437.117Zm-62.376-.261-.412-.806.4-.206.412.806Zm62.844-1.487-.437-.117.234-.874.437.117Zm-63.668-.125-.412-.806.4-.206.412.806Zm-.824-1.612-.412-.806.4-.206.412.806Zm64.961-.012-.437-.117.084-.314-.119-.443.437-.117.15.561Zm-65.785-1.6-.412-.806.4-.206.412.806Zm65.079-.149-.234-.874.437-.117.234.874Zm-65.9-1.463-.412-.806.4-.206.412.806Zm65.434-.285-.234-.874.437-.117.234.874Zm-66.258-1.327-.412-.806.4-.206.412.806Zm65.79-.422-.234-.874.437-.117.234.874Zm-66.614-1.19-.412-.806.4-.206.412.806Zm66.145-.559-.234-.874.437-.117.234.874Zm-66.969-1.053-.412-.806.4-.206.412.806Zm66.5-.7-.234-.874.437-.117.234.874Zm-67.325-.916-.412-.806.4-.206.412.806Zm66.856-.832-.234-.874.437-.117.234.874Zm-67.68-.78-.412-.806.4-.206.412.806Zm67.212-.969-.234-.874.437-.117.234.874Zm-68.036-.643-.412-.806.4-.206.412.806Zm67.344-.841-.64-.64.32-.32.64.64Zm-68.168-.771-.412-.806.4-.206.412.806Zm66.887-.51-.64-.64.32-.32.64.64Zm-67.711-1.1-.412-.806.4-.206.412.806Zm66.431-.178-.64-.64.32-.32.64.64Zm-1.28-1.28-.64-.64.32-.32.64.64Zm-65.975-.154-.412-.806.4-.206.412.806Zm64.7-1.126-.64-.64.32-.32.64.64Zm-65.519-.486-.412-.806.4-.206.412.806Zm64.239-.794-.64-.64.32-.32.64.64Zm-65.063-.818-.412-.806.4-.206.412.806Zm63.783-.462-.64-.64.32-.32.64.64Zm-64.607-1.15-.412-.806.4-.206.412.806Zm63.327-.131-.64-.64.32-.32.64.64Zm-1.28-1.28-.64-.64.32-.32.64.64Zm-62.871-.2-.412-.806.4-.206.412.806Zm61.591-1.079-.64-.64.32-.32.64.64ZM262.3,547.2l-.412-.806.4-.206.412.806Zm61.26-.912-.48-.768.384-.24.48.768Zm-62.084-.7-.412-.806.4-.206.412.806Zm61.124-.836-.48-.768.384-.24.48.768Zm-61.949-.776-.412-.806.4-.206.412.806Zm60.989-.759-.48-.768.384-.24.48.768Zm-61.813-.853-.412-.806.4-.206.412.806Zm60.854-.682-.48-.768.384-.24.48.768ZM259,540.752l-.412-.806.4-.206.412.806Zm60.718-.605-.48-.768.384-.24.48.768ZM258.18,539.14l-.412-.806.4-.206.412.806Zm60.582-.528-.48-.768.384-.24.48.768Zm-61.407-1.084-.412-.806.4-.206.412.806Zm60.447-.452-.48-.768.384-.24.48.768Zm-61.271-1.16-.412-.806.4-.206.412.806Zm60.311-.375-.48-.768.384-.24.48.768ZM255.708,534.3l-.291-.57-.127-.22.392-.226.135.235.294.575Zm60.176-.3-.48-.768.384-.24.48.768Zm-61.047-1.275-.453-.784.392-.226.453.784Zm60.087-.26-.48-.768.384-.24.48.768Zm-60.992-1.308-.453-.784.392-.226.453.784Zm60.033-.227-.48-.768.384-.24.48.768Zm-60.938-1.341-.453-.784.392-.226.453.784Zm59.979-.195-.48-.768.384-.24.48.768Zm-60.884-1.373-.453-.784.392-.226.453.784Zm59.924-.162-.48-.768.384-.24.48.768Zm-60.829-1.406-.453-.784.392-.226.453.784Zm59.87-.129-.48-.768.384-.24.48.768Zm-60.775-1.439-.453-.784.392-.226.453.784Zm59.816-.1-.48-.768.384-.24.48.768Zm-.96-1.535-.48-.768.384-.24.48.768Zm-59.163-.1h-.453v-.905H250Zm58.2-1.439-.48-.768.384-.24.48.768Zm-58.2-.372h-.453v-.905H250Zm57.244-1.164-.48-.768.384-.24.48.768ZM250,519.542h-.453v-.905H250Zm-58.57-.32-.874-.234.117-.437.874.234Zm.991-.012-.117-.437.874-.234.117.437Zm-2.74-.456-.874-.234.117-.437.874.234Zm4.489-.012-.117-.437.874-.234.117.437Zm112.114-.087-.48-.768.384-.24.48.768Zm-118.352-.369-.874-.234.117-.437.874.234Zm7.986-.012-.117-.437.874-.234.117.437Zm-9.735-.456-.874-.234.117-.437.874.234Zm11.484-.012-.117-.437.874-.234.117.437ZM250,517.732h-.453v-.905H250Zm-65.565-.384-.874-.234.117-.437.874.234Zm14.981-.013-.117-.437.874-.234.117.437Zm105.909-.217-.48-.768.384-.24.48.768Zm-122.639-.239-.874-.234.117-.437.874.234Zm18.479-.012-.117-.437.874-.234.117.437Zm-20.228-.456-.874-.234.117-.437.874.234Zm21.976-.012-.117-.437.874-.234.117.437Zm-23.725-.456-.874-.234.117-.437.874.234Zm25.474-.012-.117-.437.874-.234.117.437ZM250,515.921h-.453v-.905H250Zm54.366-.338-.48-.768.384-.24.48.768Zm-126.925-.11-.874-.234.117-.437.874.234Zm28.971-.012-.117-.437.874-.234.117.437ZM175.7,515l-.874-.234.117-.437.874.234Zm32.469-.012-.117-.437.874-.234.117.437Zm-34.217-.456-.874-.234.117-.437.874.234Zm35.966-.012-.117-.437.874-.234.117.437ZM250,514.111h-.453v-.905H250Zm-77.806-.043-.243-.065-.548-.548.32-.32.462.462.126.034Zm39.464-.012-.117-.437.874-.234.117.437Zm91.748-.008-.48-.768.384-.24.48.768Zm-90-.461-.117-.437.874-.234.117.437Zm1.749-.469-.117-.437.874-.234.117.437Zm-44.392-.3-.64-.64.32-.32.64.64Zm46.141-.165-.117-.437.874-.234.117.437Zm85.543-.137-.48-.768.384-.24.48.768ZM250,512.3h-.453V511.4H250Zm-31.357-.37-.32-.32.64-.64.32.32Zm-49.16-.4-.64-.64.32-.32.64.64Zm132-.557-.48-.768.384-.24.48.768Zm-81.564-.327-.32-.32.64-.64.32.32ZM250,510.49h-.453v-.905H250Zm-81.8-.236-.64-.64.32-.32.64.64Zm132.325-.812-.48-.768.384-.24.48.768Zm-79.324-.072-.32-.32.64-.64.32.32Zm-54.281-.4-.64-.64.32-.32.64.64ZM250,508.68h-.453v-.7l.165-.286.392.226-.1.181Zm-27.516-.59-.32-.32.64-.64.32.32Zm77.089-.195-.453-.784.392-.226.453.784Zm-133.93-.2-.64-.64.32-.32.64.64Zm84.915-.554-.392-.226.453-.784.392.226Zm-26.793-.33-.32-.32.64-.64.32.32Zm-59.4-.4-.64-.64.32-.32.64.64Zm134.305-.087-.453-.784.392-.226.453.784Zm-47.205-.755-.392-.226.453-.784.392.226Zm-26.418-.043-.32-.32.64-.64.32.32Zm-61.962-.4-.64-.64.32-.32.64.64Zm134.68-.374-.453-.784.392-.226.453.784Zm-71.438-.51-.32-.32.64-.64.32.32ZM252.371,504l-.392-.226.453-.784.392.226Zm-90.566-.151-.64-.64.32-.32.64.64Zm135.055-.662-.453-.784.392-.226.453.784Zm-69.253-.222-.32-.32.64-.64.32.32Zm-67.082-.4-.64-.64.32-.32.64.64Zm92.751-.137-.392-.226.453-.784.392.226Zm-24.388-.747-.32-.32.64-.64.32.32Zm67.068-.066-.453-.784.392-.226.453.784Zm-136.71-.33-.64-.64.32-.32.64.64Zm94.936-.425-.392-.226.453-.784.392.226Zm-24.013-.46-.32-.32.64-.64.32.32Zm64.882-.353-.453-.784.392-.226.453.784Zm-137.085-.043-.64-.64.32-.32.64.64Zm97.122-.712-.392-.226.453-.784.392.226Zm-23.638-.172-.32-.32.64-.64.32.32Zm-74.763-.4-.64-.64.32-.32.64.64Zm137.46-.245-.225-.39-.48-.277.226-.392.219.127.041-.05.334.278.276.477Zm-38.1-.54-.226-.392.784-.453.226.392Zm-23.313-.1-.32-.32.092-.092.169-.632.437.117-.2.749Zm-77.324-.4-.64-.64.32-.32.64.64Zm137.252-.084-.784-.453.226-.392.2.113.242-.29.7.579-.29.348-.156-.13Zm-35.047-.326-.226-.392.784-.453.226.392Zm33.479-.579-.784-.453.226-.392.784.453Zm-136.964-.291-.64-.64.32-.32.64.64Zm105.052-.035-.226-.392.784-.453.226.392Zm32.374-.022-.7-.579.29-.348.7.579Zm-58.211-.068-.437-.117.234-.874.437.117Zm56.18-.49-.784-.453.226-.392.784.453Zm-28.776-.326-.226-.392.784-.453.226.392Zm29.416-.275-.7-.579.29-.348.7.579Zm-137.316-.064-.211-.211-.188-.7.437-.117.157.586.126.126Zm135.108-.24-.784-.453.226-.392.784.453Zm-25.64-.326-.226-.392.784-.453.226.392Zm-28.5-.028-.437-.117.234-.874.437.117Zm54.96-.5-.7-.579.29-.348.7.579Zm-2.385-.05-.784-.453.226-.392.784.453Zm-22.5-.326-.226-.392.784-.453.226.392Zm-111.67-.318-.234-.874.437-.117.234.874Zm132.607-.262-.784-.453.226-.392.784.453Zm2.561-.2-.7-.579.29-.348.7.579Zm-53.1-.089-.437-.117.234-.874.437.117Zm31.171-.034-.226-.392.784-.453.226.392Zm17.8-.579-.784-.453.226-.392.784.453Zm-16.233-.326-.226-.392.784-.453.226.392Zm18.971-.131-.7-.579.29-.348.7.579Zm-134.246-.125-.234-.874.437-.117.234.874Zm129.939-.323-.784-.453.226-.392.784.453Zm-46.935-.23-.437-.117.234-.874.437.117Zm33.838-.1-.226-.392.594-.343h.341v.453h-.22Zm11.571-.282h-.905v-.453h.905Zm-1.81,0h-.905v-.453h.905Zm-1.81,0h-.905v-.453h.905Zm-1.81,0h-.905v-.453h.905Zm-1.81,0h-.905v-.453h.905Zm-1.81,0H270.2v-.453h.905Zm13.494-.1-.7-.579.29-.348.7.579Zm-133.323-.715-.234-.874.437-.117.234.874Zm131.932-.444-.7-.579.29-.348.7.579Zm-47.99-.11-.437-.117.234-.874.437.117Zm46.6-1.049-.7-.579.29-.348.7.579Zm-131.01-.146-.234-.874.437-.117.234.874Zm84.879-.554-.437-.117.234-.874.437.117Zm44.74-.459-.7-.579.29-.348.7.579Zm-130.088-.736-.234-.874.437-.117.234.874Zm128.7-.423-.7-.579.29-.348.7.579Zm-42.88-.131-.437-.117.234-.874.437.117Zm41.49-1.028-.7-.579.29-.348.7.579Zm-127.774-.167-.234-.874.437-.117.234.874Zm86.753-.554-.437-.117.234-.874.437.117Zm39.63-.438-.7-.579.29-.348.7.579ZM149.4,482.611l-.234-.874.437-.117.234.874Zm125.461-.4-.7-.579.29-.348.7.579Zm-37.77-.152-.437-.117.234-.874.437.117Zm36.379-1.007-.7-.579.29-.348.7.579Zm-124.538-.188-.234-.874.437-.117.234.874Zm88.627-.554-.437-.117.234-.874.437.117Zm34.52-.417-.7-.579.29-.348.7.579Zm-123.616-.778-.234-.874.437-.117.234.874Zm122.225-.381-.7-.579.29-.348.7.579Zm-32.66-.173-.437-.117.234-.874.437.117Zm31.269-.986-.7-.579.29-.348.7.579Zm-121.3-.209-.234-.874.437-.117.234.874Zm90.5-.554-.437-.117.234-.874.437.117Zm29.41-.4-.7-.579.29-.348.7.579Zm-120.38-.8-.238-.887.028-.1.3.08.127-.034.222.828Zm118.989-.36-.7-.579.29-.348.7.579Zm-27.55-.194-.437-.117.234-.874.437.117Zm26.159-.965-.7-.579.29-.348.7.579Zm-117.136-.23-.437-.117.234-.874.437.117Zm91.446-.554L239,473.2l.234-.874.437.117Zm24.3-.375-.7-.579.29-.348.7.579Zm-115.277-.82-.437-.117.234-.874.437.117Zm113.886-.339-.7-.579.29-.348.7.579Zm-22.44-.215-.437-.117.046-.171-.157-.586.437-.117.188.7Zm21.049-.944-.7-.579.29-.348.7.579Zm-112.026-.251-.437-.117.234-.874.437.117Zm90.195-.554-.234-.874.437-.117.234.874Zm20.441-.354-.7-.579.29-.348.7.579Zm-110.167-.841-.437-.117.234-.874.437.117Zm108.776-.318-.7-.579.29-.348.7.579Zm-19.519-.236-.234-.874.437-.117.234.874Zm18.128-.923-.7-.579.29-.348.7.579Zm-106.916-.272-.437-.117.234-.874.437.117Zm88.32-.554-.234-.874.437-.117.234.874Zm17.205-.333-.7-.579.29-.348.7.579Zm-105.057-.862-.437-.117.234-.874.437.117Zm103.666-.3-.7-.579.29-.348.7.579Zm-16.283-.257-.234-.874.437-.117.234.874Zm14.892-.9-.7-.579.29-.348.7.579ZM150.8,463.375l-.437-.117.234-.874.437.117Zm86.446-.554-.234-.874.437-.117.234.874Zm13.969-.312-.7-.579.29-.348.7.579Zm-99.947-.883-.437-.117.234-.874.437.117Zm98.556-.276-.7-.579.29-.348.7.579Zm-13.047-.278-.234-.874.437-.117.234.874Zm11.656-.881-.7-.579.29-.348.7.579Zm-96.7-.314-.437-.117.234-.874.437.117Zm84.572-.554-.234-.874.437-.117.234.874Zm10.734-.291-.7-.579.29-.348.7.579Zm-94.837-.9-.437-.117.234-.874.437.117Zm93.446-.255-.7-.579.29-.348.7.579Zm-9.811-.3-.234-.874.437-.117.234.874Zm8.42-.86-.7-.579.29-.348.7.579Zm-91.586-.335-.437-.117.234-.874.437.117Zm82.7-.554-.234-.874.437-.117.234.874Zm7.5-.27-.7-.579.29-.348.7.579Zm-89.727-.925-.437-.117.234-.874.437.117Zm88.336-.234-.7-.579.29-.348.7.579Zm-6.576-.32-.234-.874.437-.117.234.874Zm5.185-.839-.7-.579.29-.348.7.579Zm-86.476-.356-.437-.117.234-.874.437.117Zm80.823-.554-.222-.828.126-.034.219-.219.077.077.238.886Zm4.262-.249-.7-.579.29-.348.7.579Zm-84.617-.946-.437-.117.234-.874.437.117Zm79.517-.206-.64-.64.32-.32.64.64Zm3.709-.007-.7-.579.29-.348.7.579Zm-1.391-1.159-.7-.579.29-.348.7.579Zm-3.6-.114-.64-.64.32-.32.64.64Zm-77.768-.263-.437-.117.234-.874.437.117Zm79.975-.781-.7-.579.29-.348.7.579Zm-3.487-.236-.64-.64.32-.32.64.64Zm2.1-.923-.7-.579.29-.348.7.579Zm-3.376-.357-.64-.64.32-.32.64.64Zm1.985-.8-.7-.579.29-.348.7.579Zm-3.265-.478-.64-.64.32-.32.64.64Zm1.875-.68-.7-.579.29-.348.7.579Zm-3.155-.6-.64-.64.32-.32.64.64Zm1.764-.559-.7-.579.29-.348.7.579Zm-3.044-.721-.64-.64.32-.32.64.64Zm1.653-.438-.7-.579.29-.348.7.579Zm-2.933-.842-.64-.64.32-.32.64.64Zm1.542-.316-.7-.579.29-.348.7.579Zm-2.822-.964-.64-.64.32-.32.64.64Zm1.431-.2-.7-.579.29-.348.7.579Zm-2.711-1.085-.64-.64.32-.32.64.64Zm1.321-.074-.7-.579.29-.348.7.579ZM222,438.175l-.7-.579.29-.348.7.579Zm-1.21-.048-.64-.64.32-.32.64.64Zm-.181-1.111-.7-.579.29-.348.7.579Zm-1.1-.169-.64-.64.32-.32.64.64Zm-.292-.99-.7-.579.018-.021-.31.311-.64-.64.232-.232-.691-.575.07-.085-.252.252-.64-.64.116-.116-.685-.571.123-.148-.194.194-.64-.64.3-.334-.144.173.159-.159.628.628.052-.063.7.579-.193.232.1-.1.634.634.158-.189.7.579-.245.295.039-.039.639.639.263-.316.7.579Z" transform="translate(110.709 393.111)"/>
    <path id="Line_101" data-name="Line 101" d="M-.012,7l-.117-.437.874-.234.117.437Zm1.749-.469-.117-.437.874-.234.117.437Zm1.749-.469-.117-.437.874-.234.117.437ZM5.234,5.59l-.117-.437.874-.234.117.437Zm1.749-.469-.117-.437.874-.234.117.437Zm1.749-.469-.117-.437.874-.234.117.437Zm1.749-.469-.117-.437.874-.234.117.437Zm1.749-.469-.117-.437.874-.234.117.437Zm1.749-.469-.117-.437.874-.234.117.437Zm1.749-.469-.117-.437.874-.234.117.437Zm1.749-.469-.117-.437.874-.234.117.437Zm1.749-.469L19.107,1.4l.874-.234.117.437Zm1.749-.469L20.855.935,21.73.7l.117.437ZM22.721.9,22.6.467l.874-.234L23.6.669ZM24.47.435,24.353,0l.874-.234L25.344.2Zm1.749-.469L26.1-.471l.046-.012.117.437Z" transform="translate(279.862 820.267)"/>
    <path id="Path_15857" data-name="Path 15857" d="M471.734,675.582l-.9-.053.027-.452.9.053Zm-1.807-.107-.9-.054.027-.452.9.054Zm-1.808-.108-.9-.054.027-.452.9.054Zm-1.807-.109-.9-.055.027-.452.9.055Zm-1.807-.11-.9-.055.028-.452.9.055Zm-1.807-.111-.9-.056.028-.452.9.056Zm-1.807-.112-.9-.056.028-.452.9.056Zm-1.807-.113-.9-.057.028-.452.9.057Zm-1.807-.114-.9-.058.029-.452.9.058Zm-1.807-.115-.9-.058.029-.452.9.058Zm-1.807-.117-.9-.059.03-.452.9.059Zm-1.807-.119-.9-.061.03-.452.9.061Zm-1.807-.122-.9-.062.031-.452.9.062Zm-1.807-.125-.9-.064.033-.451.9.064Zm-1.807-.131-.9-.068.035-.451.9.068Zm-1.805-.139c-.33-.027-.635-.052-.905-.076l.039-.451.9.075Zm-1.809-.16a5.935,5.935,0,0,1-.94-.131l.136-.432a6.554,6.554,0,0,0,.85.112Z" transform="translate(-50.549 261.147)"/>
    <path id="Path_15858" data-name="Path 15858" d="M536.933,338.015c6.5-1.12,11.264-1.989,12.616-2.254a2.978,2.978,0,0,0,1.3-.578,3.816,3.816,0,0,0,1.066-1.961q2.312-7.512,4.622-15.024a2.7,2.7,0,0,1,.778-1.414,2.448,2.448,0,0,1,1.6-.352,12.955,12.955,0,0,1,2.588.356,2.425,2.425,0,0,1,1.676,1.017,2.6,2.6,0,0,1,.214,1.126,88.243,88.243,0,0,1-1.253,18.439,18.876,18.876,0,0,1-.834,3.39c-1.406,3.758-4.468,5.715-6.344,6.977a22.88,22.88,0,0,1-8.918,3.54,30.734,30.734,0,0,0-5.038-9.091A30.392,30.392,0,0,0,536.933,338.015Z" transform="translate(-102.581 456.393)" fill="#fff"/>
    <path id="Path_15858_-_Outline" data-name="Path 15858 - Outline" d="M545.271,351.259l-.063-.18a30.206,30.206,0,0,0-9.046-13.165l-.371-.314.479-.082c6.281-1.081,11.156-1.968,12.611-2.253a2.744,2.744,0,0,0,1.2-.533,3.6,3.6,0,0,0,.99-1.85q2.312-7.512,4.622-15.024a2.926,2.926,0,0,1,.856-1.527,2.436,2.436,0,0,1,1.5-.4c.079,0,.162,0,.254.005a13.2,13.2,0,0,1,2.633.362,2.625,2.625,0,0,1,1.823,1.132,2.8,2.8,0,0,1,.24,1.223,88.551,88.551,0,0,1-1.256,18.486,19.047,19.047,0,0,1-.845,3.43,11.82,11.82,0,0,1-2.932,4.394,22.62,22.62,0,0,1-3.3,2.563l-.192.129a22.65,22.65,0,0,1-4.912,2.493,23.8,23.8,0,0,1-4.094,1.082Zm-8.451-13.377a30.65,30.65,0,0,1,8.75,12.865,22.479,22.479,0,0,0,8.642-3.472l.193-.13c1.884-1.265,4.732-3.176,6.065-6.739a18.672,18.672,0,0,0,.823-3.349,88.109,88.109,0,0,0,1.25-18.392,2.458,2.458,0,0,0-.188-1.029,2.241,2.241,0,0,0-1.529-.9,12.744,12.744,0,0,0-2.542-.35c-.087,0-.164,0-.238,0a1.916,1.916,0,0,0-1.22.309,2.488,2.488,0,0,0-.7,1.3L551.5,333.015a4.015,4.015,0,0,1-1.141,2.071,3.182,3.182,0,0,1-1.4.623C547.547,335.987,542.875,336.837,536.82,337.882Z" transform="translate(-101.956 456.666)"/>
    <path id="Path_15859" data-name="Path 15859" d="M583.244,307.9a7.982,7.982,0,0,1-.917-2.948,1.8,1.8,0,0,1,.107-.77,1.529,1.529,0,0,1,1.135-.853,3.784,3.784,0,0,1,1.33.027,2.321,2.321,0,0,1,.833.241.886.886,0,0,1,.041,1.589,1.443,1.443,0,0,1-.17.093,2.428,2.428,0,0,1,.967,1.189l-.424.158a2,2,0,0,0-1.223-1.174l-.747-.244.762-.191a2.02,2.02,0,0,0,.592-.214.439.439,0,0,0-.024-.815,1.9,1.9,0,0,0-.673-.185,3.417,3.417,0,0,0-1.173-.031,1.11,1.11,0,0,0-.809.584,1.329,1.329,0,0,0-.073.576,7.639,7.639,0,0,0,.876,2.777Z" transform="translate(-127.428 463.589)"/>
    <path id="Path_15860" data-name="Path 15860" d="M585.066,299.483l-.451-.039a8.189,8.189,0,0,1,.232-1.357,3.909,3.909,0,0,1,.453-1.131,2.078,2.078,0,0,1,.959-.842l.169.42a1.629,1.629,0,0,0-.744.662,3.482,3.482,0,0,0-.4,1A7.728,7.728,0,0,0,585.066,299.483Z" transform="translate(-128.682 467.512)"/>
    <path id="Path_15861" data-name="Path 15861" d="M590.729,298.8l-.418-.173a1.951,1.951,0,0,0,.046-1.351l.429-.144A2.41,2.41,0,0,1,590.729,298.8Z" transform="translate(-131.8 466.956)"/>
    <path id="Path_15862" data-name="Path 15862" d="M593.606,299.726l-.419-.171a2.7,2.7,0,0,0,.122-1.645l.44-.107A3.156,3.156,0,0,1,593.606,299.726Z" transform="translate(-133.374 466.588)"/>
    <path id="Path_15863" data-name="Path 15863" d="M596.155,301.422l-.374-.254a1.852,1.852,0,0,0,.235-1.542l.433-.131A2.283,2.283,0,0,1,596.155,301.422Z" transform="translate(-134.794 465.661)"/>
    <path id="Path_15864" data-name="Path 15864" d="M594.717,307.894l-.273-.361a3.128,3.128,0,0,0,1.2-2.8l-.007-.056a1.1,1.1,0,0,1,.036-.573,1.084,1.084,0,0,1,.2-.3l.028-.033a2.7,2.7,0,0,0,.611-2.069l.449-.059a3.157,3.157,0,0,1-.715,2.421l-.03.035a.73.73,0,0,0-.125.174.749.749,0,0,0-.005.346q0,.03.007.059A3.588,3.588,0,0,1,594.717,307.894Z" transform="translate(-134.063 464.486)"/>
    <path id="Path_15865" data-name="Path 15865" d="M449.84,418.657a1.775,1.775,0,0,1,.221-1.064,47.914,47.914,0,0,1,7.76-12.143l.085.075a47.8,47.8,0,0,0-7.742,12.115,1.687,1.687,0,0,0-.214,1Z" transform="translate(-54.896 407.662)"/>
    <path id="Path_15866" data-name="Path 15866" d="M445.6,418.82l-.1-.043a24.076,24.076,0,0,1,3.742-6.228l.087.072A23.961,23.961,0,0,0,445.6,418.82Z" transform="translate(-52.528 403.776)"/>
    <path id="Path_15867" data-name="Path 15867" d="M581.837,378.485l-.077-.083a19.576,19.576,0,0,0,6.045-11.258l.112.018a19.78,19.78,0,0,1-6.08,11.323Z" transform="translate(-127.119 428.63)"/>
    <path id="Path_15868" data-name="Path 15868" d="M591.878,387.659l-.078-.082a12.239,12.239,0,0,0,2.5-3.361l.1.051A12.353,12.353,0,0,1,591.878,387.659Z" transform="translate(-132.615 419.286)"/>
    <path id="Path_15869" data-name="Path 15869" d="M426.9,188.8H408.716v-.453H426.9Z" transform="translate(-32.396 526.505)"/>
    <path id="Path_15870" data-name="Path 15870" d="M448.3,166.256a2.963,2.963,0,0,1,1.945-4.764,3.062,3.062,0,0,1,1.6.185,14,14,0,0,1,1.42-8.374,8.916,8.916,0,0,1,3.19-3.244,6.879,6.879,0,0,1,4.359-.972,7.654,7.654,0,0,1,4.514,2.429,15.615,15.615,0,0,1,2.706,3.939,3.291,3.291,0,0,1,1.666-1.624,4.551,4.551,0,0,1,1.918-.417h.012a4.227,4.227,0,0,1,1.935.457,6.046,6.046,0,0,1,2.386,2.36,10.044,10.044,0,0,1,.989,2.353,3.677,3.677,0,0,1,1.274-1.543,3.338,3.338,0,0,1,5.014,1.146,3.591,3.591,0,0,1,.427,2.385,9.639,9.639,0,0,1,8.872,1.407l-.275.359a9.139,9.139,0,0,0-8.841-1.191l-.46.187.161-.47a3.065,3.065,0,1,0-5.958-1.361l-.161,1.34-.284-1.32c-.318-1.475-1.176-4.119-3.353-5.252a4.045,4.045,0,0,0-3.464-.031,2.726,2.726,0,0,0-1.6,1.864l-.143.652-.283-.6c-1.3-2.771-3.587-6.167-7.112-6.617a7.516,7.516,0,0,0-7.1,3.991,13.822,13.822,0,0,0-1.32,8.513l.053.46-.4-.241a2.544,2.544,0,0,0-3.342,3.722Z" transform="translate(-53.737 548.021)"/>
    <path id="Path_15873" data-name="Path 15873" d="M261.641,293.8h-6.568v-.453h6.568Z" transform="translate(51.707 469.028)"/>
    <path id="Path_15874" data-name="Path 15874" d="M269.1,281.349a2.205,2.205,0,0,1,1.013-3.73,2.291,2.291,0,0,1,1.133-.009,6.021,6.021,0,0,1,.923-4.045,5.649,5.649,0,0,1,8.091-1.793,6.026,6.026,0,0,1,2.54,3.258,9.939,9.939,0,0,1,3.539-2.728,4.561,4.561,0,0,1,2.528-.2,3.166,3.166,0,0,1,2.06,1.359,6.352,6.352,0,0,1,.379.74c.246.538.479,1.046.951,1.227.546.209,1.076-.11,1.689-.479a3.712,3.712,0,0,1,1.588-.65,2.211,2.211,0,0,1,1.6.593,8.672,8.672,0,0,1,1.176,1.294l.113.143c.6.752,1.794,1.65,2.634,1.039l.266.366a1.693,1.693,0,0,1-1.78.078,4.247,4.247,0,0,1-1.474-1.2l-.114-.144c-.664-.838-1.416-1.789-2.392-1.717a3.392,3.392,0,0,0-1.387.586,2.368,2.368,0,0,1-2.085.514,2.439,2.439,0,0,1-1.2-1.461,5.918,5.918,0,0,0-.35-.687c-.8-1.274-2.686-1.5-4.043-.976a10.433,10.433,0,0,0-3.65,2.915l-.3.32-.092-.425a5.483,5.483,0,0,0-10.7,2.371l.1.459-.424-.206a1.778,1.778,0,0,0-2.023,2.866Z" transform="translate(44.382 481.381)"/>
    <path id="Path_15877" data-name="Path 15877" d="M670.005,277.671h-6.568v-.453h6.568Z" transform="translate(-171.829 477.856)"/>
    <path id="Path_15878" data-name="Path 15878" d="M677.467,265.221a2.2,2.2,0,0,1,1.013-3.731,2.289,2.289,0,0,1,1.132-.008,6.022,6.022,0,0,1,.924-4.045,5.649,5.649,0,0,1,8.092-1.792,6.024,6.024,0,0,1,2.54,3.258,9.951,9.951,0,0,1,3.539-2.728,4.563,4.563,0,0,1,2.528-.2,3.166,3.166,0,0,1,2.06,1.359,6.334,6.334,0,0,1,.379.74c.246.538.479,1.046.951,1.227.545.209,1.075-.11,1.689-.479a3.709,3.709,0,0,1,1.588-.65,2.209,2.209,0,0,1,1.6.593,8.668,8.668,0,0,1,1.175,1.294l.114.144c.6.752,1.794,1.649,2.634,1.039l.266.366a1.693,1.693,0,0,1-1.78.078,4.25,4.25,0,0,1-1.474-1.2l-.115-.144c-.664-.838-1.415-1.788-2.392-1.716a3.389,3.389,0,0,0-1.387.586,2.367,2.367,0,0,1-2.084.514,2.439,2.439,0,0,1-1.2-1.461,6,6,0,0,0-.351-.688c-.8-1.274-2.685-1.5-4.043-.976a10.447,10.447,0,0,0-3.65,2.915l-.3.32-.092-.425a5.483,5.483,0,0,0-10.7,2.372l.1.46-.424-.206a1.777,1.777,0,0,0-2.023,2.866Z" transform="translate(-179.155 490.208)"/>
    <path id="Path_15879" data-name="Path 15879" d="M660.646,245.174a2.062,2.062,0,0,0-1.026-.867l.163-.422a2.523,2.523,0,0,1,1.255,1.062Z" transform="translate(-169.739 496.102)"/>
    <path id="Path_15880" data-name="Path 15880" d="M502.707,143.453l-3.485-.826.026-.11,3.485.826Z" transform="translate(-81.939 551.59)"/>
    <path id="Path_15882" data-name="Path 15882" d="M576.99,212.33c-.595-2.385-1.151-4.818-1.654-7.232l.111-.023c.5,2.413,1.059,4.844,1.653,7.228Z" transform="translate(-123.603 517.346)"/>
    <path id="Path_15883" data-name="Path 15883" d="M590.483,209.59l-.022,0a.3.3,0,0,1-.183-.277c.089-3.27.325-6.574.7-9.82l.112.013c-.374,3.243-.609,6.543-.7,9.81a.218.218,0,0,0,.087.162v0l.1.043A.108.108,0,0,1,590.483,209.59Z" transform="translate(-131.782 520.403)"/>
    <path id="Path_15885" data-name="Path 15885" d="M543.774,328.253a.268.268,0,0,1-.1-.021.33.33,0,0,1-.175-.187.627.627,0,0,1-.034-.38.493.493,0,0,1,.292-.343l.135.354.1-.02.048.226a.294.294,0,0,1-.152.348h0A.265.265,0,0,1,543.774,328.253Z" transform="translate(-106.147 450.428)"/>
    <path id="Path_15886" data-name="Path 15886" d="M526.29,329.09a3.473,3.473,0,0,1-2.555-1.711,2.378,2.378,0,0,1-.33-1.062,1.552,1.552,0,0,1,.37-1.1,1.512,1.512,0,0,1,1.59-.373,2.087,2.087,0,0,1,1.174,1.091l-.407.2a1.634,1.634,0,0,0-.911-.859,1.069,1.069,0,0,0-1.11.247,1.1,1.1,0,0,0-.254.779,1.934,1.934,0,0,0,.272.859,3.012,3.012,0,0,0,2.216,1.484Z" transform="translate(-95.176 451.832)"/>
    <path id="Path_15887" data-name="Path 15887" d="M527.336,329.215a3.08,3.08,0,0,0-.591-1.1.812.812,0,0,0-.339-.267.3.3,0,0,0-.349.1l-.1-.058a.415.415,0,0,1,.482-.148.911.911,0,0,1,.39.3,3.193,3.193,0,0,1,.612,1.138Z" transform="translate(-96.575 450.211)"/>
    <path id="Path_15888" data-name="Path 15888" d="M527.744,329.23a.354.354,0,0,0-.211-.14.145.145,0,0,0-.163.1l-.112-.015a.256.256,0,0,1,.291-.2.461.461,0,0,1,.282.179Z" transform="translate(-97.285 449.524)"/>
    <path id="Path_15889" data-name="Path 15889" d="M542.379,323.9l-.343-.295a1.759,1.759,0,0,1,1.066-.587l.065.448A1.3,1.3,0,0,0,542.379,323.9Z" transform="translate(-105.374 452.784)"/>
    <path id="Path_15890" data-name="Path 15890" d="M537.043,329.354a7.65,7.65,0,0,1-3.952-1.187l.244-.381a7.379,7.379,0,0,0,3.1,1.084,4.083,4.083,0,0,0,2.967-.689c1.055-.84,1-2.053.929-3.457-.021-.439-.043-.894-.03-1.353a.969.969,0,0,1,.5-.824l.034-.018a.18.18,0,0,0,.091-.118.222.222,0,0,0-.035-.177,6.767,6.767,0,0,1-.781-2.119H540.1l-.028-.194a30.413,30.413,0,0,0-1.605-5.8c-.1-.3-.211-.6-.318-.912l.428-.147c.106.307.213.613.317.91a31.152,31.152,0,0,1,1.612,5.787l.015.085a6.987,6.987,0,0,0,.746,2.13.675.675,0,0,1,.1.538.63.63,0,0,1-.315.41l-.034.018a.508.508,0,0,0-.263.439c-.012.443.009.888.03,1.319.071,1.465.137,2.849-1.1,3.833A4.179,4.179,0,0,1,537.043,329.354Z" transform="translate(-100.479 458.234)"/>
    <path id="Path_15891" data-name="Path 15891" d="M543.927,335.08a3.215,3.215,0,0,1-1.187-.63l.292-.346a2.759,2.759,0,0,0,1.019.541Z" transform="translate(-105.76 446.717)"/>
    <path id="Path_15892" data-name="Path 15892" d="M495.509,296.823a4.223,4.223,0,0,1-2.35-1.442l.088-.072a4.109,4.109,0,0,0,2.287,1.4Z" transform="translate(-78.619 467.953)"/>
    <path id="Path_15893" data-name="Path 15893" d="M486.092,293.523c-6.256-2.3-9.454-5.262-10.2-6.866a.643.643,0,0,0-.778-.338c-6.963,2.256-9.286,6.419-9.962,8.1a.642.642,0,0,0,.478.87l4.736.911h-5.884a1.052,1.052,0,0,0-.962.635c-1.68,3.835-1.709,9.452-1.659,11.442.009.372.352.482.711.583,1.82.511,4.277,1.548,12.928,1.548,10.532,0,16.486-2.752,16.486-2.752-1.311-.652-2.717-2.51-1.734-3.346,1.5-1.274,2.392.666,2.392.666,5.965-1.5,6.241-6.068,6.241-6.068.694,1.18,0,3.662,0,3.662,3.481-1.6,1.07-2.956,1.07-2.956l1.011,3.782C503.374,296.876,495.2,296.876,486.092,293.523Z" transform="translate(-61.478 472.891)"/>
    <path id="Path_15894" data-name="Path 15894" d="M526.2,348.222a27.458,27.458,0,0,1-8.788-2.18l.18-.415a27.007,27.007,0,0,0,8.644,2.145Z" transform="translate(-91.895 440.409)"/>
    <path id="Path_15895" data-name="Path 15895" d="M535.061,348.653l-.446-.075,0-.009a6.769,6.769,0,0,1,.4-1.356l.419.172a6.324,6.324,0,0,0-.37,1.263Z" transform="translate(-101.312 439.54)"/>
    <path id="Path_15896" data-name="Path 15896" d="M519.59,338.955l-.416-.179,1.412-3.287A13.363,13.363,0,0,0,521.6,332.5l.446.076A13.705,13.705,0,0,1,521,335.668Z" transform="translate(-92.86 447.592)"/>
    <path id="Path_15897" data-name="Path 15897" d="M462.851,370.285l-.173-.418a42.194,42.194,0,0,1,5.48-1.705c.989-.259,2.012-.527,3-.83,1.868-.571,3.719-1.3,5.508-2l14.674-5.748a12.4,12.4,0,0,0,4.476-2.523c1.106-1.134,1.8-3.061.984-4.55l.4-.217a3.682,3.682,0,0,1,.288,2.677,5.294,5.294,0,0,1-1.345,2.407,12.743,12.743,0,0,1-4.635,2.628l-14.674,5.748c-1.8.7-3.656,1.432-5.541,2.008-1,.306-2.027.575-3.021.835A41.845,41.845,0,0,0,462.851,370.285Z" transform="translate(-61.934 436.757)"/>
    <path id="Path_15898" data-name="Path 15898" d="M457.01,361.668l-.209-.4a7.1,7.1,0,0,1,1.8-.564l.041-.009c7.164-1.562,14.286-3.767,21.173-5.9,1.762-.545,3.583-1.109,5.363-1.74a5.16,5.16,0,0,0,2.436-1.426l.354.282a5.6,5.6,0,0,1-2.639,1.571c-1.788.634-3.614,1.2-5.38,1.746-6.9,2.135-14.027,4.344-21.21,5.91l-.041.009A6.764,6.764,0,0,0,457.01,361.668Z" transform="translate(-58.717 437.124)"/>
    <path id="Path_15899" data-name="Path 15899" d="M453.336,375.832l-.088-.444,1.475-.293.088.444Z" transform="translate(-56.772 424.278)"/>
    <path id="Path_15900" data-name="Path 15900" d="M454.32,379.115l-.137-.431a12.358,12.358,0,0,0,1.494-.586l.192.41A12.8,12.8,0,0,1,454.32,379.115Z" transform="translate(-57.284 422.634)"/>
    <path id="Path_15901" data-name="Path 15901" d="M455.3,382.7l-.243-.382a4.245,4.245,0,0,1,1.6-.6l.071.447A3.789,3.789,0,0,0,455.3,382.7Z" transform="translate(-57.764 420.653)"/>
    <path id="Path_15902" data-name="Path 15902" d="M456.164,386.593l-.221-.395a5.882,5.882,0,0,1,1.583-.608l.1.441A5.432,5.432,0,0,0,456.164,386.593Z" transform="translate(-58.247 418.533)"/>
    <path id="Path_15903" data-name="Path 15903" d="M458,390.11l-.257-.372a6.817,6.817,0,0,1,1.639-.83l.148.428A6.366,6.366,0,0,0,458,390.11Z" transform="translate(-59.231 416.718)"/>
    <path id="Path_15904" data-name="Path 15904" d="M508.7,350.007l-.539-.672a.721.721,0,0,1-.175-.34.749.749,0,0,1,.277-.615,8.593,8.593,0,0,0,1.6-3.045c.162-.439.33-.892.521-1.325a1.551,1.551,0,0,1,.463-.661,1.448,1.448,0,0,1,.892-.22,4.624,4.624,0,0,1,1.994.49l-.2.4a4.168,4.168,0,0,0-1.8-.442,1.047,1.047,0,0,0-.618.133,1.161,1.161,0,0,0-.316.478c-.185.421-.351.868-.511,1.3a9.057,9.057,0,0,1-1.7,3.2c-.063.067-.168.178-.159.236a.418.418,0,0,0,.081.126l.539.671Z" transform="translate(-86.731 441.777)"/>
    <path id="Path_15905" data-name="Path 15905" d="M533.933,346.56s.24,1.264.461,1.375.378-.618.378-.618l-.307-.571" transform="translate(-100.939 439.898)"/>
    <path id="Path_15906" data-name="Path 15906" d="M508.115,367.673l-7.5,2.939a2.48,2.48,0,0,0-1.667,1.806l-1.8,3.683s14.52-8.449,16.649-10.978C513.8,365.123,508.446,367.543,508.115,367.673Z" transform="translate(-80.803 429.737)"/>
    <path id="Path_15907" data-name="Path 15907" d="M462.6,368.806l-.111-.024,1.935-9.08.073.063a12.676,12.676,0,0,0,3.686,1.99c.618.251,1.257.51,1.861.808a26.525,26.525,0,0,1,4.451,3.007,90.858,90.858,0,0,1,3.523-9.55l.025-.058.055.032c2.862,1.651,5.8,3.246,8.735,4.741a23.182,23.182,0,0,0,2.835-8.312l.013-.092.076.054c.788.556,1.57,1.147,2.327,1.718l3.276,2.474a12.483,12.483,0,0,0,.316-2.95,4.27,4.27,0,0,0-1.072-2.773l.081-.079a4.382,4.382,0,0,1,1.1,2.846,12.941,12.941,0,0,1-.335,3.067l-.017.089-3.421-2.583c-.732-.552-1.487-1.123-2.248-1.662a23.151,23.151,0,0,1-2.863,8.308l-.027.047-.048-.024c-2.933-1.494-5.871-3.087-8.733-4.737a90.743,90.743,0,0,0-3.517,9.558l-.024.079-.065-.051a26.843,26.843,0,0,0-4.5-3.045c-.6-.3-1.237-.555-1.853-.8a13.067,13.067,0,0,1-3.645-1.947Z" transform="translate(-61.834 437.591)"/>
    <path id="Path_15908" data-name="Path 15908" d="M508.845,351.216l-.062-.095c1.868-1.224,3.731-2.518,5.536-3.845l.06-.044.027.069a12.407,12.407,0,0,1,.718,2.765l-.112.016a12.3,12.3,0,0,0-.685-2.671C512.538,348.724,510.694,350,508.845,351.216Z" transform="translate(-87.172 439.53)"/>
    <path id="Path_15909" data-name="Path 15909" d="M549.553,301.385l-.08-.08,2.556-2.556.08.08Z" transform="translate(-109.445 466.069)"/>
    <path id="Path_15910" data-name="Path 15910" d="M541.308,298.425l-.108-.034.563-1.778.108.034Z" transform="translate(-104.917 467.239)"/>
    <path id="Path_15911" data-name="Path 15911" d="M557.384,310.473l-.047-.1,1.762-.8.047.1Z" transform="translate(-113.75 460.148)"/>
    <path id="Path_15912" data-name="Path 15912" d="M562.231,324.889h-1.376v-.113h1.376Z" transform="translate(-115.676 451.823)"/>
  </g>
</svg>
