<svg xmlns="http://www.w3.org/2000/svg" xmlns:xlink="http://www.w3.org/1999/xlink" viewBox="0 0 30 30.89"><defs><style>.cls-1{fill:url(#linear-gradient);}</style><linearGradient id="linear-gradient" x1="15" y1="-7.22" x2="15" y2="39.92" gradientUnits="userSpaceOnUse"><stop offset="0" stop-color="#1d6fa3"/><stop offset="1" stop-color="#65fdf0"/></linearGradient></defs><title>8-seamless-ci-cd</title><g id="Layer_2" data-name="Layer 2"><g id="Layer_1-2" data-name="Layer 1"><path id="Inteligent" class="cls-1" d="M28.63,9.33H1.37A1.37,1.37,0,0,0,0,10.7v9.49a1.37,1.37,0,0,0,1.37,1.37H28.63A1.37,1.37,0,0,0,30,20.19h0V10.7A1.37,1.37,0,0,0,28.63,9.33ZM11.9,15.12l-1.39,1.35.33,1.91a.59.59,0,0,1-.49.66A.68.68,0,0,1,10,19l-1.71-.9L6.59,19a.58.58,0,0,1-.78-.24.59.59,0,0,1-.06-.37l.32-1.9L4.7,15.11a.59.59,0,0,1,0-.82A.61.61,0,0,1,5,14.12l1.89-.28.86-1.74a.58.58,0,0,1,1,0l.86,1.74,1.91.28a.57.57,0,0,1,.49.65.56.56,0,0,1-.17.33ZM24,17.05H16a1.46,1.46,0,0,1,0-2.92h8a1.46,1.46,0,0,1,0,2.92ZM14.57,3.46A1.33,1.33,0,0,1,15.9,2.12h7.34a1.34,1.34,0,0,1,0,2.67H15.9A1.34,1.34,0,0,1,14.57,3.46ZM12.18,3,10.91,4.27,11.21,6a.52.52,0,0,1-.43.61h-.09a.47.47,0,0,1-.25-.07L8.89,5.74l-1.57.82a.51.51,0,0,1-.71-.21A.52.52,0,0,1,6.55,6l.3-1.74L5.59,3a.53.53,0,0,1,0-.75.62.62,0,0,1,.31-.16l1.75-.25L8.41.3a.53.53,0,0,1,.7-.25A.55.55,0,0,1,9.36.3l.78,1.58,1.75.25a.54.54,0,0,1,.29.91Zm12.4,24.68a1.34,1.34,0,0,1-1.34,1.34H15.9a1.34,1.34,0,0,1-.13-2.68h7.47A1.35,1.35,0,0,1,24.58,27.72Zm-12.27-1a.55.55,0,0,1-.13.55l-1.27,1.23.3,1.74a.52.52,0,0,1-.43.61h-.09a.57.57,0,0,1-.25-.06L8.89,30l-1.57.82a.53.53,0,0,1-.77-.55l.3-1.74L5.59,27.3a.53.53,0,0,1,0-.75.59.59,0,0,1,.3-.16l1.75-.25.78-1.58a.52.52,0,0,1,.95,0l.78,1.58,1.75.25A.52.52,0,0,1,12.31,26.75Z"/></g></g></svg>