<svg xmlns="http://www.w3.org/2000/svg" width="75.783" height="79.296" viewBox="0 0 75.783 79.296">
  <g id="lifecycle" transform="translate(-1141.266 -1292.5)">
    <g id="Group_307" data-name="Group 307" transform="translate(0.745 8.251)">
      <g id="Group_5" data-name="Group 5" transform="translate(1113 1303)">
        <rect id="Rectangle" width="4" height="4" transform="translate(36 44)" fill="#52e3c0"/>
        <rect id="Rectangle-2" data-name="Rectangle" width="4" height="4" transform="translate(60 27)" fill="#52e3c0"/>
        <rect id="Rectangle-3" data-name="Rectangle" width="4" height="4" transform="translate(78 5)" fill="#52e3c0"/>
      </g>
      <g id="lifecycle-2" data-name="lifecycle" transform="matrix(0.966, 0.259, -0.259, 0.966, 1065.96, 1253.906)">
        <path id="Path_174" data-name="Path 174" d="M154.4,23.932a2.417,2.417,0,1,1-2.417-2.417,2.407,2.407,0,0,1,2.417,2.417M129.153,9.363a2.417,2.417,0,1,1-2.417-2.417,2.407,2.407,0,0,1,2.417,2.417m22.827,41.29a2.417,2.417,0,1,1-2.417,2.417,2.407,2.407,0,0,1,2.417-2.417M129.153,67.639a2.417,2.417,0,1,1-2.417-2.417,2.407,2.407,0,0,1,2.417,2.417M103.909,53.07a2.417,2.417,0,1,1-2.417-2.417,2.407,2.407,0,0,1,2.417,2.417m-2.417-26.721a2.417,2.417,0,1,1,2.417-2.417,2.407,2.407,0,0,1-2.417,2.417m53.173.134a3.549,3.549,0,0,0,1.074-2.551,3.754,3.754,0,0,0-3.76-3.76,3.391,3.391,0,0,0-.873.134A30.487,30.487,0,0,0,130.295,8.289a3.741,3.741,0,1,0-3.558,4.834,3.686,3.686,0,0,0,3.558-2.618,28.06,28.06,0,0,1,18.933,10.944,3.7,3.7,0,0,0,2.753,6.244c.268,0,.537-.067.806-.067a28.135,28.135,0,0,1,0,21.887,3.275,3.275,0,0,0-.806-.067,3.7,3.7,0,0,0-2.753,6.244,28.06,28.06,0,0,1-18.933,10.944,3.77,3.77,0,0,0-3.558-2.618,3.686,3.686,0,0,0-3.558,2.618,28.06,28.06,0,0,1-18.933-10.944,3.686,3.686,0,0,0,.94-2.484,3.754,3.754,0,0,0-3.76-3.76,3.275,3.275,0,0,0-.806.067A28.187,28.187,0,0,1,98.4,38.569a28.7,28.7,0,0,1,2.216-10.944,3.276,3.276,0,0,0,.806.067,3.7,3.7,0,0,0,2.753-6.244,28.024,28.024,0,0,1,10.809-8.661,17.954,17.954,0,0,1,.537,3.223l4.364-5.572L113.309,7.82c.4.94.739,1.88,1.074,2.887A30.023,30.023,0,0,0,102.3,20.374a3.937,3.937,0,0,0-.873-.134A3.754,3.754,0,0,0,97.666,24a3.828,3.828,0,0,0,1.074,2.618A30.307,30.307,0,0,0,96.323,38.5a29.839,29.839,0,0,0,2.484,12.018,3.549,3.549,0,0,0-1.074,2.551,3.754,3.754,0,0,0,3.76,3.76,3.391,3.391,0,0,0,.873-.134,30.487,30.487,0,0,0,20.813,12.018,3.7,3.7,0,0,0,7.117,0A30.633,30.633,0,0,0,151.108,56.7a3.937,3.937,0,0,0,.873.134,3.754,3.754,0,0,0,3.76-3.76,3.55,3.55,0,0,0-1.074-2.551,30.313,30.313,0,0,0,0-24.035" fill="#0f1115"/>
      </g>
    </g>
    <path id="Path_13334" data-name="Path 13334" d="M243.847,184.148l-15.966,16.973-7.458-7.943a.883.883,0,0,0-1.253,1.244l8.1,8.614h0a.895.895,0,0,0,1.288,0l16.61-17.651a.887.887,0,0,0-1.289-1.218Z" transform="translate(946.62 1138.326)" stroke="#0f1115" stroke-width="0.6"/>
  </g>
</svg>
