<svg xmlns="http://www.w3.org/2000/svg" xmlns:xlink="http://www.w3.org/1999/xlink" width="241" height="28" viewBox="0 0 241 28">
  <defs>
    <linearGradient id="linear-gradient" x1="0.5" y1="-2.161" x2="0.5" y2="1" gradientUnits="objectBoundingBox">
      <stop offset="0" stop-color="#4bbc81"/>
      <stop offset="1" stop-color="#1642e8"/>
    </linearGradient>
    <radialGradient id="radial-gradient" cx="0.5" cy="0.5" r="0.5" gradientUnits="objectBoundingBox">
      <stop offset="0.001" stop-color="#fccd00"/>
      <stop offset="1" stop-color="#fccd00" stop-opacity="0"/>
    </radialGradient>
  </defs>
  <g id="Qlive-logo" transform="translate(-151 -2778.68)">
    <g id="Group_5" data-name="Group 5" transform="translate(151 2773.68)">
      <g id="Group_14" data-name="Group 14" transform="translate(152 5)">
        <rect id="Rectangle" width="88" height="28" rx="5" transform="translate(1)" fill="url(#linear-gradient)"/>
        <g id="Group_3" data-name="Group 3" transform="translate(61 2)">
          <circle id="Oval" cx="12" cy="12" r="12" fill="url(#radial-gradient)"/>
          <circle id="Oval-2" data-name="Oval" cx="6" cy="6" r="6" transform="translate(6 6)" fill="#fccd00"/>
        </g>
        <text id="LIVE" transform="translate(9 20.5)" fill="#fff" font-size="18" font-family="Helvetica-Bold, Helvetica" font-weight="700" letter-spacing="0.143em"><tspan x="0" y="0">LIVE</tspan></text>
      </g>
    </g>
    <g id="Vector_Smart_Object" data-name="Vector Smart Object" transform="translate(218.563 2794.43)">
      <g id="Group_220" data-name="Group 220" transform="translate(-67.564 -12.25)">
        <g id="Group_215" data-name="Group 215" transform="translate(78.739 10.26)">
          <path id="Path_256" data-name="Path 256" d="M515.012,288.367h-4.945a2.064,2.064,0,1,1,0-4.129h4.945a2.064,2.064,0,0,1,0,4.129Z" transform="translate(-508.003 -284.238)" fill="#1542e8"/>
        </g>
        <g id="Group_216" data-name="Group 216" transform="translate(72.006 0.719)">
          <path id="Path_257" data-name="Path 257" d="M505.69,282.581H492.832a2.162,2.162,0,0,1-2.186-2.185V261.829a2.163,2.163,0,0,1,2.186-2.186h12.7a1.994,1.994,0,0,1,1.968,1.967,1.97,1.97,0,0,1-1.968,1.967H494.987v15.069h10.7a1.994,1.994,0,0,1,1.967,1.967A1.97,1.97,0,0,1,505.69,282.581Z" transform="translate(-490.646 -259.643)" fill="#1542e8"/>
        </g>
        <g id="Group_217" data-name="Group 217" transform="translate(9.913 0.124)">
          <path id="Path_258" data-name="Path 258" d="M341.838,282.28a2.34,2.34,0,0,1-2.13-1.366l-8.924-19.489a2.34,2.34,0,1,1,4.256-1.948l8.924,19.489a2.34,2.34,0,0,1-2.126,3.315Z" transform="translate(-330.571 -258.109)" fill="#1542e8"/>
        </g>
        <g id="Group_218" data-name="Group 218" transform="translate(0 7.547)">
          <path id="Path_259" data-name="Path 259" d="M307.356,293.993a2.341,2.341,0,0,0,2.13-1.366l5.5-12.066a2.34,2.34,0,0,0-4.256-1.948l-5.5,12.066a2.34,2.34,0,0,0,2.126,3.315Z" transform="translate(-305.016 -277.245)" fill="#1542e8"/>
        </g>
        <g id="Group_219" data-name="Group 219" transform="translate(94.092 0.777)">
          <path id="Path_260" data-name="Path 260" d="M560.9,282.456h-11.1a2.213,2.213,0,0,1-2.212-2.212V262a2.212,2.212,0,0,1,4.424,0v16.027h8.89a2.212,2.212,0,0,1,0,4.424Z" transform="translate(-547.581 -259.793)" fill="#1542e8"/>
        </g>
        <path id="Path_261" data-name="Path 261" d="M391,276.964a2.113,2.113,0,0,0-2.949-.475,7.929,7.929,0,1,1,0-12.865,2.112,2.112,0,1,0,2.473-3.423,12.152,12.152,0,1,0,0,19.712A2.112,2.112,0,0,0,391,276.964Z" transform="translate(-345.566 -257.859)" fill="#1542e8"/>
        <path id="Path_262" data-name="Path 262" d="M448.6,276.964a2.11,2.11,0,0,0-2.948-.476,7.929,7.929,0,1,1,0-12.865,2.112,2.112,0,1,0,2.473-3.423,12.152,12.152,0,1,0,0,19.712A2.111,2.111,0,0,0,448.6,276.964Z" transform="translate(-380.824 -257.859)" fill="#1542e8"/>
        <path id="Path_263" data-name="Path 263" d="M613.975,284.16l-9.123-9.123a2.212,2.212,0,0,0-3.128,3.128l4.488,4.488a7.823,7.823,0,0,1-9.312-12.367c.353-.358.383-.391.033-.041a2.209,2.209,0,0,1-3.175-3.071,12.244,12.244,0,0,0,15.663,18.687l1.427,1.427a2.212,2.212,0,0,0,3.129-3.128Z" transform="translate(-479.586 -263.533)" fill="#34c184"/>
        <path id="Path_264" data-name="Path 264" d="M597.8,262.97c0,.016,0,.031,0,.046a2.2,2.2,0,0,0,.039.364c.008.042.026.083.037.125a2.154,2.154,0,0,0,.084.275,2.23,2.23,0,0,0,.11.211c.031.055.054.114.089.167a2.175,2.175,0,0,0,.281.343,2.208,2.208,0,0,0,3.128,0c.313-.313.322-.318.069-.062a7.824,7.824,0,0,1,12.338,9.341l3.213,3.213a12.251,12.251,0,0,0-18.748-15.62c-.019.019-.031.041-.049.06A2.208,2.208,0,0,0,597.8,262.97Z" transform="translate(-484.231 -257.789)" fill="#1542e8"/>
      </g>
    </g>
  </g>
</svg>
