<?xml version="1.0" encoding="UTF-8"?>
<svg xmlns="http://www.w3.org/2000/svg" width="426.089" height="140.603" viewBox="0 0 426.089 140.603">
  <g id="salesforce-features-hero" transform="translate(-10.478 -0.5)">
    <g id="Group_6410" data-name="Group 6410" transform="translate(376.905 119.518)">
      <path id="Path_40764" data-name="Path 40764" d="M306.565,110.728V96.655h3.251v11.219h6.818v2.854Zm15.3-14.053h2.993l1.427,4.5,1.427-4.5h3.013l-2.359,6.541L329.8,107l3.528-10.346h3.548l-5.629,14.073h-2.715l-2.24-5.51-2.22,5.51h-2.735l-5.609-14.073h3.528L322.8,107l1.387-3.786Zm16.13,6.9a7.021,7.021,0,0,1,.476-2.517,6.858,6.858,0,0,1,1.387-2.26,7.04,7.04,0,0,1,2.22-1.605,6.913,6.913,0,0,1,2.973-.614,6.638,6.638,0,0,1,3.429.852,5.5,5.5,0,0,1,2.18,2.22l-2.5,1.744a2.709,2.709,0,0,0-.614-.912,2.847,2.847,0,0,0-.793-.595,2.9,2.9,0,0,0-.892-.317,4.206,4.206,0,0,0-.892-.1,3.351,3.351,0,0,0-1.625.377,3.565,3.565,0,0,0-1.15.971,4.019,4.019,0,0,0-.674,1.348,5.43,5.43,0,0,0-.218,1.526,5.031,5.031,0,0,0,.258,1.605,4.372,4.372,0,0,0,.733,1.368,3.847,3.847,0,0,0,1.169.951,3.5,3.5,0,0,0,1.546.337,4.23,4.23,0,0,0,.892-.1,4.032,4.032,0,0,0,.892-.337,3.477,3.477,0,0,0,.793-.595,2.919,2.919,0,0,0,.575-.912l2.656,1.566a4.088,4.088,0,0,1-.951,1.387,5.638,5.638,0,0,1-1.427,1.031,7.89,7.89,0,0,1-3.508.852,6.444,6.444,0,0,1-2.815-.614,7.369,7.369,0,0,1-2.2-1.665,7.821,7.821,0,0,1-1.427-2.339A7.435,7.435,0,0,1,338,103.573Z" transform="translate(-306.565 -96.576)" fill="#fff"></path>
    </g>
    <g id="Group_6411" data-name="Group 6411" transform="translate(361.339 3.597)">
      <path id="Path_40765" data-name="Path 40765" d="M317.368,66a1.788,1.788,0,0,1-1.744-2.192L320.5,42.733h-6.711a1.788,1.788,0,0,1-1.727-2.255l6.263-23.266a1.79,1.79,0,0,1,1.727-1.324h19.687a1.79,1.79,0,0,1,1.638,2.514L335.336,32h7.087a1.789,1.789,0,0,1,1.378,2.926L318.747,65.346a1.793,1.793,0,0,1-1.379.653Zm-1.252-26.845h6.621a1.791,1.791,0,0,1,1.745,2.192L320.813,57.2l17.816-21.628H332.58a1.79,1.79,0,0,1-1.638-2.514l6.04-13.593h-15.57Z" transform="translate(-289.702 0.078)" fill="#fff"></path>
      <path id="Path_40766" data-name="Path 40766" d="M321.011,34.369a1.79,1.79,0,0,1-1.727-2.264l2.684-9.843a1.79,1.79,0,1,1,3.454.939l-2.684,9.843a1.79,1.79,0,0,1-1.727,1.324Z" transform="translate(-287.978 1.284)" fill="#00a1e0"></path>
      <circle id="Ellipse_266" data-name="Ellipse 266" cx="37.164" cy="37.164" r="37.164" fill="none" stroke="#fff" stroke-width="1.8"></circle>
    </g>
    <g id="Group_6412" data-name="Group 6412" transform="translate(12.893 119.479)">
      <path id="Path_40767" data-name="Path 40767" d="M12.721,103.58a7.021,7.021,0,0,1,.476-2.517,6.865,6.865,0,0,1,1.387-2.26A7.048,7.048,0,0,1,16.8,97.2a6.913,6.913,0,0,1,2.973-.614,6.635,6.635,0,0,1,3.429.852,5.5,5.5,0,0,1,2.18,2.22l-2.5,1.744a2.7,2.7,0,0,0-.614-.912,2.836,2.836,0,0,0-.793-.595,2.892,2.892,0,0,0-.892-.317,4.2,4.2,0,0,0-.892-.1,3.355,3.355,0,0,0-1.625.377,3.577,3.577,0,0,0-1.15.971,4.039,4.039,0,0,0-.674,1.348,5.457,5.457,0,0,0-.218,1.526,5.042,5.042,0,0,0,.258,1.605,4.387,4.387,0,0,0,.733,1.368,3.861,3.861,0,0,0,1.169.951,3.5,3.5,0,0,0,1.546.337,4.22,4.22,0,0,0,.892-.1,4.031,4.031,0,0,0,.892-.337,3.461,3.461,0,0,0,.793-.595,2.906,2.906,0,0,0,.575-.912l2.656,1.566a4.077,4.077,0,0,1-.951,1.387A5.624,5.624,0,0,1,23.167,110a7.89,7.89,0,0,1-3.508.852,6.447,6.447,0,0,1-2.815-.614,7.377,7.377,0,0,1-2.2-1.665,7.836,7.836,0,0,1-1.427-2.339A7.444,7.444,0,0,1,12.721,103.58Zm15.7,7.155V96.663h3.251v11.219h6.818v2.854ZM45.077,96.663h2.933l5.134,14.073h-3.33l-1.09-3.151h-4.38l-1.07,3.151h-3.33Zm3.112,8.681-1.645-4.975-1.685,4.975ZM64,100.786a1.973,1.973,0,0,0-.416-.3,7.858,7.858,0,0,0-.892-.456,8.632,8.632,0,0,0-1.169-.416,4.666,4.666,0,0,0-1.269-.178q-1.744,0-1.744,1.169a.963.963,0,0,0,.178.595,1.943,1.943,0,0,0,.555.436,6.116,6.116,0,0,0,.932.337q.555.158,1.288.357a15.456,15.456,0,0,1,1.824.614,4.467,4.467,0,0,1,1.368.813,3.063,3.063,0,0,1,.872,1.169,3.979,3.979,0,0,1,.317,1.665,4.155,4.155,0,0,1-.456,2.022,3.782,3.782,0,0,1-1.169,1.328,5.249,5.249,0,0,1-1.685.733,8.781,8.781,0,0,1-1.962.218,10.946,10.946,0,0,1-1.586-.119,12.581,12.581,0,0,1-1.586-.337,14.545,14.545,0,0,1-1.506-.555,8.6,8.6,0,0,1-1.328-.733l1.427-2.834a2.788,2.788,0,0,0,.515.377,7.942,7.942,0,0,0,1.07.555,11.56,11.56,0,0,0,1.447.5,6.046,6.046,0,0,0,1.605.218q1.724,0,1.724-1.051a.887.887,0,0,0-.258-.654,2.289,2.289,0,0,0-.714-.456,6.87,6.87,0,0,0-1.09-.4q-.614-.178-1.348-.4a12.7,12.7,0,0,1-1.685-.634,4.829,4.829,0,0,1-1.189-.813,3.1,3.1,0,0,1-.694-1.05,4.024,4.024,0,0,1-.218-1.387,4.418,4.418,0,0,1,.416-1.962,4.136,4.136,0,0,1,1.13-1.427,4.839,4.839,0,0,1,1.645-.892,6.673,6.673,0,0,1,2-.3,7.559,7.559,0,0,1,1.447.139,10.913,10.913,0,0,1,1.368.357,9.22,9.22,0,0,1,1.209.5q.575.277,1.05.555Zm13.433,0a1.973,1.973,0,0,0-.416-.3,7.857,7.857,0,0,0-.892-.456,8.638,8.638,0,0,0-1.169-.416,4.666,4.666,0,0,0-1.269-.178q-1.744,0-1.744,1.169a.963.963,0,0,0,.178.595,1.943,1.943,0,0,0,.555.436,6.111,6.111,0,0,0,.932.337q.555.158,1.288.357a15.457,15.457,0,0,1,1.823.614,4.47,4.47,0,0,1,1.368.813,3.064,3.064,0,0,1,.872,1.169,3.979,3.979,0,0,1,.317,1.665,4.156,4.156,0,0,1-.456,2.022,3.783,3.783,0,0,1-1.169,1.328,5.25,5.25,0,0,1-1.685.733,8.781,8.781,0,0,1-1.962.218,10.945,10.945,0,0,1-1.586-.119,12.581,12.581,0,0,1-1.586-.337,14.544,14.544,0,0,1-1.506-.555A8.6,8.6,0,0,1,68,109.15l1.427-2.834a2.783,2.783,0,0,0,.515.377,7.942,7.942,0,0,0,1.07.555,11.554,11.554,0,0,0,1.447.5,6.046,6.046,0,0,0,1.605.218q1.724,0,1.724-1.051a.887.887,0,0,0-.258-.654,2.292,2.292,0,0,0-.714-.456,6.874,6.874,0,0,0-1.09-.4q-.615-.178-1.348-.4a12.69,12.69,0,0,1-1.685-.634,4.829,4.829,0,0,1-1.189-.813,3.1,3.1,0,0,1-.694-1.05,4.024,4.024,0,0,1-.218-1.387,4.418,4.418,0,0,1,.416-1.962,4.136,4.136,0,0,1,1.13-1.427,4.839,4.839,0,0,1,1.645-.892,6.673,6.673,0,0,1,2-.3,7.559,7.559,0,0,1,1.447.139,10.913,10.913,0,0,1,1.368.357,9.227,9.227,0,0,1,1.209.5q.575.277,1.05.555Zm4.989,9.95V96.663h3.251v14.073Zm6.368-7.155a7.021,7.021,0,0,1,.476-2.517,6.865,6.865,0,0,1,1.387-2.26,7.049,7.049,0,0,1,2.22-1.605,6.913,6.913,0,0,1,2.973-.614,6.635,6.635,0,0,1,3.429.852,5.5,5.5,0,0,1,2.18,2.22l-2.5,1.744a2.7,2.7,0,0,0-.614-.912,2.835,2.835,0,0,0-.793-.595,2.892,2.892,0,0,0-.892-.317,4.194,4.194,0,0,0-.892-.1,3.355,3.355,0,0,0-1.625.377,3.578,3.578,0,0,0-1.15.971,4.041,4.041,0,0,0-.674,1.348A5.462,5.462,0,0,0,92.1,103.7a5.042,5.042,0,0,0,.258,1.605,4.39,4.39,0,0,0,.733,1.368,3.862,3.862,0,0,0,1.169.951,3.5,3.5,0,0,0,1.546.337,4.218,4.218,0,0,0,.892-.1,4.031,4.031,0,0,0,.892-.337,3.458,3.458,0,0,0,.793-.595,2.9,2.9,0,0,0,.575-.912l2.656,1.566a4.077,4.077,0,0,1-.951,1.387A5.625,5.625,0,0,1,99.236,110a7.89,7.89,0,0,1-3.508.852,6.448,6.448,0,0,1-2.815-.614,7.378,7.378,0,0,1-2.2-1.665,7.836,7.836,0,0,1-1.427-2.339A7.444,7.444,0,0,1,88.791,103.58Z" transform="translate(-12.721 -96.544)" fill="#fff"></path>
    </g>
    <g id="Group_6413" data-name="Group 6413" transform="translate(12 15.985)">
      <path id="Path_40768" data-name="Path 40768" d="M49.244,19.747a15.791,15.791,0,0,1,25.168,3.276,19.269,19.269,0,0,1,7.8-1.643,19.584,19.584,0,0,1,13.5,5.784,19.1,19.1,0,0,1,0,26.935,18.736,18.736,0,0,1-17.3,5.4,14.067,14.067,0,0,1-8.087,6.51,14.247,14.247,0,0,1-10.4-.765,15.964,15.964,0,0,1-6.1,7.156,16.252,16.252,0,0,1-18.086-.433A15.938,15.938,0,0,1,30,64.53a15.559,15.559,0,0,1-3.075.309,15.236,15.236,0,0,1-9.107-3.162,14.87,14.87,0,0,1,1.644-24.688,16.823,16.823,0,0,1-1.432-6.833A17.064,17.064,0,0,1,21.313,20.15,17.381,17.381,0,0,1,29.87,13.9a17.584,17.584,0,0,1,10.637-.153,17.4,17.4,0,0,1,8.738,6Z" transform="translate(-12 -13)" fill="none" stroke="#fff" stroke-width="3"></path>
    </g>
    <g id="Group_6414" data-name="Group 6414" transform="translate(173.423 119.498)">
      <path id="Path_40769" data-name="Path 40769" d="M142.307,110.732V96.659h3.251v11.219h6.818v2.854Zm12.833,0V96.659h3.251v14.073Zm16.854-1.387a5.292,5.292,0,0,1-3.706,1.487,6.7,6.7,0,0,1-2.616-.515,6.787,6.787,0,0,1-2.16-1.487,7.062,7.062,0,0,1-1.447-2.279,7.932,7.932,0,0,1-.535-2.953,6.9,6.9,0,0,1,4.242-6.481,6.936,6.936,0,0,1,2.775-.555,6.828,6.828,0,0,1,3.429.832,5.29,5.29,0,0,1,2.2,2.24l-2.418,1.824a3.381,3.381,0,0,0-1.387-1.467,3.708,3.708,0,0,0-1.942-.535,3.291,3.291,0,0,0-2.616,1.249,4.15,4.15,0,0,0-.733,1.348,5.222,5.222,0,0,0-.258,1.665,4.961,4.961,0,0,0,.277,1.685,4.209,4.209,0,0,0,.773,1.348,3.489,3.489,0,0,0,2.7,1.189,4.475,4.475,0,0,0,3.429-1.764v-.436h-2.735v-2.359h5.431v7.353h-2.7Zm18.194-12.685v14.073h-3.251v-5.768h-5.609v5.768h-3.251V96.659h3.251v5.451h5.609V96.659Zm14.659,2.854h-4.281v11.219h-3.251V99.513h-4.3V96.659h11.833Zm6.076,3.171v8.047h-3.251V96.659h2.537l6.561,8.265V96.659h3.251v14.073H217.4Zm13.028,8.047V96.659H227.2v14.073Zm10.432-8.047v8.047h-3.251V96.659h2.537l6.561,8.265V96.659h3.251v14.073h-2.616Zm22.7,6.66a5.294,5.294,0,0,1-3.706,1.487,6.7,6.7,0,0,1-2.616-.515,6.774,6.774,0,0,1-2.16-1.487,7.062,7.062,0,0,1-1.447-2.279,7.932,7.932,0,0,1-.535-2.953,6.9,6.9,0,0,1,4.242-6.481,6.937,6.937,0,0,1,2.775-.555,6.831,6.831,0,0,1,3.429.832,5.291,5.291,0,0,1,2.2,2.24l-2.418,1.824a3.388,3.388,0,0,0-1.387-1.467,3.708,3.708,0,0,0-1.942-.535A3.291,3.291,0,0,0,250.9,100.7a4.127,4.127,0,0,0-.733,1.348,5.221,5.221,0,0,0-.258,1.665,4.931,4.931,0,0,0,.277,1.685,4.209,4.209,0,0,0,.773,1.348,3.489,3.489,0,0,0,2.7,1.189,4.476,4.476,0,0,0,3.429-1.764v-.436h-2.735v-2.359h5.431v7.353h-2.7Z" transform="translate(-142.307 -96.56)" fill="#fff"></path>
    </g>
    <g id="Group_6415" data-name="Group 6415" transform="translate(211.445 15.985)">
      <path id="Path_40770" data-name="Path 40770" d="M214.293,13H191.169L178.781,37.649h12.388L173,74.94l41.293-41.714H199.427Z" transform="translate(-173 -13)" fill="none" stroke="#fff" stroke-linecap="round" stroke-linejoin="round" stroke-width="2.5"></path>
    </g>
    <path id="Path_40771" data-name="Path 40771" d="M266,.5V141.1" transform="translate(60.653)" fill="none" stroke="rgba(255,255,255,0.5)" stroke-width="1"></path>
    <path id="Path_40772" data-name="Path 40772" d="M113,.5V141.1" transform="translate(24.118)" fill="none" stroke="rgba(255,255,255,0.5)" stroke-width="1"></path>
  </g>
</svg>
