<svg xmlns="http://www.w3.org/2000/svg" xmlns:xlink="http://www.w3.org/1999/xlink" viewBox="0 0 29.93 32.05"><defs><style>.cls-1{fill:url(#linear-gradient);}</style><linearGradient id="linear-gradient" x1="14.97" y1="32.05" x2="14.97" y2="3.37" gradientUnits="userSpaceOnUse"><stop offset="0" stop-color="#fec163"/><stop offset="0.72" stop-color="#e76629"/><stop offset="1" stop-color="#de4313"/></linearGradient></defs><title>selfhealing_1</title><g id="Layer_2" data-name="Layer 2"><g id="Layer_1-2" data-name="Layer 1"><path id="Self-healing" class="cls-1" d="M27.58,11.18l-1.11,1.11,1.11,1.11a1.44,1.44,0,0,1-2,2l-1.11-1.11-1.11,1.11a1.44,1.44,0,1,1-2-2h0l1.11-1.11L21.3,11.18a1.43,1.43,0,0,1,2-2l1.11,1.1,1.11-1.1a1.43,1.43,0,0,1,2,2Zm-2.11,18a4.4,4.4,0,0,1-4.2-3.28,11.12,11.12,0,0,1-9.15-11.5l-.74-.05-.76,0a.89.89,0,0,1-.84-.94.91.91,0,0,1,.19-.5l3.18-3.95a.89.89,0,0,1,1.25-.13,1,1,0,0,1,.19.21l2.7,4.28A.89.89,0,0,1,17,14.5a.9.9,0,0,1-.53.14l-.76-.05-.74,0A8.25,8.25,0,0,0,21.49,23a4.41,4.41,0,0,1,4-2.63h0a4.4,4.4,0,0,1,0,8.79h-.05Zm0-2.87h0a1.53,1.53,0,0,0,0-3.06h0a1.53,1.53,0,0,0,0,3.06ZM6.64,31.63a1.42,1.42,0,0,0,2,0h0l1.1-1.11,1.11,1.11a1.44,1.44,0,1,0,2-2L11.8,28.49l1.11-1.12a1.43,1.43,0,0,0-2-2L9.77,26.48l-1.1-1.11a1.44,1.44,0,0,0-2,.2,1.42,1.42,0,0,0,0,1.8l1.11,1.11L6.64,29.59a1.44,1.44,0,0,0,0,2ZM8.07,6.07a1.42,1.42,0,0,0,2,0h0l3.63-3.62a1.44,1.44,0,0,0-2-2h0L9.08,3,7.86,1.81a1.43,1.43,0,0,0-2,2ZM.42,19.67a1.44,1.44,0,0,0,2,0h0l1.1-1.11,1.11,1.11a1.44,1.44,0,0,0,2-2L5.58,16.53l1.11-1.1a1.44,1.44,0,1,0-2-2L3.55,14.51,2.45,13.4a1.44,1.44,0,1,0-2,2h0l1.11,1.1L.42,17.64a1.44,1.44,0,0,0,0,2Z"/></g></g></svg>