<?xml version="1.0" encoding="UTF-8"?>
<svg xmlns="http://www.w3.org/2000/svg" width="77.478" height="79.296" viewBox="0 0 77.478 79.296">
  <g id="Group_3446" data-name="Group 3446" transform="translate(1379.734 -1304)">
    <g id="lifecycle" transform="translate(-2521 11.5)">
      <g id="Group_307" data-name="Group 307" transform="translate(0.745 8.251)">
        <g id="Group_5" data-name="Group 5" transform="translate(1113 1303)">
          <rect id="Rectangle" width="4" height="4" transform="translate(36 44)" fill="#52e3c0"></rect>
          <rect id="Rectangle-2" data-name="Rectangle" width="4" height="4" transform="translate(101 30)" fill="#52e3c0"></rect>
          <rect id="Rectangle-3" data-name="Rectangle" width="4" height="4" transform="translate(64 -1)" fill="#52e3c0"></rect>
        </g>
        <g id="lifecycle-2" data-name="lifecycle" transform="matrix(0.966, 0.259, -0.259, 0.966, 1065.96, 1253.906)">
          <path id="Path_174" data-name="Path 174" d="M154.4,23.932a2.417,2.417,0,1,1-2.417-2.417,2.407,2.407,0,0,1,2.417,2.417M129.153,9.363a2.417,2.417,0,1,1-2.417-2.417,2.407,2.407,0,0,1,2.417,2.417m22.827,41.29a2.417,2.417,0,1,1-2.417,2.417,2.407,2.407,0,0,1,2.417-2.417M129.153,67.639a2.417,2.417,0,1,1-2.417-2.417,2.407,2.407,0,0,1,2.417,2.417M103.909,53.07a2.417,2.417,0,1,1-2.417-2.417,2.407,2.407,0,0,1,2.417,2.417m-2.417-26.721a2.417,2.417,0,1,1,2.417-2.417,2.407,2.407,0,0,1-2.417,2.417m53.173.134a3.549,3.549,0,0,0,1.074-2.551,3.754,3.754,0,0,0-3.76-3.76,3.391,3.391,0,0,0-.873.134A30.487,30.487,0,0,0,130.295,8.289a3.741,3.741,0,1,0-3.558,4.834,3.686,3.686,0,0,0,3.558-2.618,28.06,28.06,0,0,1,18.933,10.944,3.7,3.7,0,0,0,2.753,6.244c.268,0,.537-.067.806-.067a28.135,28.135,0,0,1,0,21.887,3.275,3.275,0,0,0-.806-.067,3.7,3.7,0,0,0-2.753,6.244,28.06,28.06,0,0,1-18.933,10.944,3.77,3.77,0,0,0-3.558-2.618,3.686,3.686,0,0,0-3.558,2.618,28.06,28.06,0,0,1-18.933-10.944,3.686,3.686,0,0,0,.94-2.484,3.754,3.754,0,0,0-3.76-3.76,3.275,3.275,0,0,0-.806.067A28.187,28.187,0,0,1,98.4,38.569a28.7,28.7,0,0,1,2.216-10.944,3.276,3.276,0,0,0,.806.067,3.7,3.7,0,0,0,2.753-6.244,28.024,28.024,0,0,1,10.809-8.661,17.954,17.954,0,0,1,.537,3.223l4.364-5.572L113.309,7.82c.4.94.739,1.88,1.074,2.887A30.023,30.023,0,0,0,102.3,20.374a3.937,3.937,0,0,0-.873-.134A3.754,3.754,0,0,0,97.666,24a3.828,3.828,0,0,0,1.074,2.618A30.307,30.307,0,0,0,96.323,38.5a29.839,29.839,0,0,0,2.484,12.018,3.549,3.549,0,0,0-1.074,2.551,3.754,3.754,0,0,0,3.76,3.76,3.391,3.391,0,0,0,.873-.134,30.487,30.487,0,0,0,20.813,12.018,3.7,3.7,0,0,0,7.117,0A30.633,30.633,0,0,0,151.108,56.7a3.937,3.937,0,0,0,.873.134,3.754,3.754,0,0,0,3.76-3.76,3.55,3.55,0,0,0-1.074-2.551,30.313,30.313,0,0,0,0-24.035" fill="#0f1115"></path>
        </g>
      </g>
    </g>
    <g id="Group_3445" data-name="Group 3445" transform="translate(-1385.6 1299.89)">
      <g id="Ellipse_63" data-name="Ellipse 63" transform="translate(36.009 36.009)" fill="none" stroke="#0f1115" stroke-linecap="round" stroke-linejoin="round" stroke-width="2">
        <circle cx="7.832" cy="7.832" r="7.832" stroke="none"></circle>
        <circle cx="7.832" cy="7.832" r="6.832" fill="none"></circle>
      </g>
      <g id="Path_14407" data-name="Path 14407" transform="translate(0 0)" fill="none" stroke-linecap="round" stroke-linejoin="round">
        <path d="M52.722,33.635q.612.563,1.159,1.159l4.394.628a16.609,16.609,0,0,1,1.642,3.959l-2.672,3.557s.048,1.094,0,1.642l2.672,3.557a16.448,16.448,0,0,1-1.642,3.959l-4.394.628s-.756.789-1.159,1.159l-.628,4.394a16.609,16.609,0,0,1-3.959,1.642l-3.557-2.672a9.319,9.319,0,0,1-1.642,0l-3.557,2.672a16.448,16.448,0,0,1-3.959-1.642l-.628-4.394q-.6-.563-1.159-1.159l-4.394-.628A16.609,16.609,0,0,1,27.6,48.136l2.672-3.557s-.048-1.094,0-1.642L27.6,39.381a16.448,16.448,0,0,1,1.642-3.959l4.394-.628q.563-.6,1.159-1.159l.628-4.394A16.609,16.609,0,0,1,39.381,27.6l3.557,2.672a9.319,9.319,0,0,1,1.642,0L48.136,27.6a16.448,16.448,0,0,1,3.959,1.642Z" stroke="none"></path>
        <path d="M 48.52597427368164 29.80812072753906 L 45.78003692626953 31.87068176269531 C 45.38519287109375 32.16725921630859 44.89457702636719 32.30731201171875 44.40267944335938 32.26377105712891 C 43.97587585449219 32.22602844238281 43.54032135009766 32.22602844238281 43.11351776123047 32.26377105712891 C 42.62161636352539 32.30724334716797 42.13100814819336 32.16725921630859 41.73616027832031 31.87068176269531 L 38.99122619628906 29.80887222290039 C 38.3988037109375 30.01107025146484 37.81977844238281 30.25118637084961 37.25813293457031 30.52759170532227 L 36.77378845214844 33.9179801940918 C 36.70989990234375 34.36520004272461 36.49649047851562 34.77761077880859 36.16829681396484 35.08806228637695 C 35.79990005493164 35.43656158447266 35.43644714355469 35.79999923706055 35.08805847167969 36.16830062866211 C 34.77760696411133 36.49648284912109 34.36520004272461 36.70989227294922 33.91798782348633 36.77378082275391 L 30.52636337280273 37.25830459594727 C 30.24972915649414 37.8194465637207 30.00980758666992 38.39799118041992 29.80812835693359 38.99021530151367 L 31.87068939208984 41.73615264892578 C 32.16718673706055 42.13088226318359 32.30720901489258 42.62132263183594 32.26381683349609 43.11310195922852 C 32.23868942260742 43.39789962768555 32.25209045410156 44.09033966064453 32.26961898803711 44.49072265625 C 32.2900390625 44.95373153686523 32.14902877807617 45.40946197509766 31.87068939208984 45.780029296875 L 29.80888366699219 48.52496337890625 C 30.01107788085938 49.11737823486328 30.25119781494141 49.69639587402344 30.52761077880859 50.2580451965332 L 33.91798782348633 50.74238967895508 C 34.36520004272461 50.80628204345703 34.77760696411133 51.01969146728516 35.08805847167969 51.34786987304688 C 35.43650817871094 51.71623229980469 35.79995727539062 52.07968139648438 36.16829681396484 52.42811965942383 C 36.49649047851562 52.73857116699219 36.70989990234375 53.15098190307617 36.77378845214844 53.59820175170898 L 37.25830841064453 56.98982238769531 C 37.81938171386719 57.26641082763672 38.3980598449707 57.50640106201172 38.99022674560547 57.70805740356445 L 41.73616027832031 55.64550018310547 C 42.1309928894043 55.34893417358398 42.62158203125 55.20893096923828 43.11343765258789 55.25239944458008 C 43.54037857055664 55.29014205932617 43.9758186340332 55.29014205932617 44.40275955200195 55.25239944458008 C 44.89461898803711 55.20893478393555 45.38521194458008 55.34893035888672 45.78003692626953 55.64550018310547 L 48.52496337890625 57.70730209350586 C 49.11739730834961 57.50510025024414 49.69641876220703 57.26498413085938 50.25806045532227 56.98858642578125 L 50.74239730834961 53.59820175170898 C 50.80764007568359 53.14155197143555 51.02871704101562 52.72149276733398 51.36818695068359 52.40917205810547 C 51.65976715087891 52.14093017578125 52.23910903930664 51.54484176635742 52.43774032592773 51.33779144287109 C 52.74715042114258 51.01525115966797 53.15573883056641 50.80559921264648 53.59819793701172 50.74238967895508 L 56.98982620239258 50.25786972045898 C 57.26646423339844 49.69672012329102 57.50638961791992 49.11818313598633 57.70806884765625 48.52596282958984 L 55.6455078125 45.780029296875 C 55.34901809692383 45.38529968261719 55.20898818969727 44.89485931396484 55.25238037109375 44.40309143066406 C 55.27750778198242 44.11828231811523 55.26410675048828 43.42584228515625 55.24657821655273 43.02545928955078 C 55.22615814208984 42.56245040893555 55.36716842651367 42.10671997070312 55.6455078125 41.73615264892578 L 57.70731353759766 38.99121856689453 C 57.50511169433594 38.3987922668457 57.26499176025391 37.81977844238281 56.98858642578125 37.25812530517578 L 53.59820938110352 36.77378082275391 C 53.14115905761719 36.70849227905273 52.72077941894531 36.48707962036133 52.40839004516602 36.14713287353516 C 52.08276748657227 35.79277038574219 51.73250961303711 35.44256210327148 51.36734771728516 35.10623168945312 C 51.02833938598633 34.79399108886719 50.80757904052734 34.37424087524414 50.74239730834961 33.9179801940918 L 50.25788497924805 30.5263557434082 C 49.69674301147461 30.24972152709961 49.11819839477539 30.00979995727539 48.52597427368164 29.80812072753906 M 39.38060760498047 27.59999084472656 L 42.93731689453125 30.27154922485352 C 43.48343658447266 30.22326278686523 44.03276062011719 30.22326278686523 44.57888031005859 30.27154922485352 L 48.13558959960938 27.59999084472656 C 49.5212287902832 27.97216033935547 50.85220718383789 28.52403259277344 52.09465026855469 29.24155044555664 L 52.72229766845703 33.63513946533203 C 53.13000869750977 34.01066207885742 53.51625823974609 34.39690017700195 53.88105010986328 34.79388046264648 L 58.27463912963867 35.42153930664062 C 58.99050903320312 36.66479110717773 59.54228973388672 37.99555206298828 59.91619873046875 39.38059234619141 L 57.24463653564453 42.93730926513672 C 57.24463653564453 42.93730926513672 57.29291915893555 44.03168106079102 57.24463653564453 44.57887268066406 L 59.91619873046875 48.13558197021484 C 59.54402923583984 49.52120971679688 58.99214935302734 50.85219192504883 58.27462768554688 52.09463119506836 L 53.88105010986328 52.7222900390625 C 53.88105010986328 52.7222900390625 53.12463760375977 53.51089096069336 52.72229766845703 53.88104248046875 L 52.09465026855469 58.27463150024414 C 50.85139846801758 58.99050903320312 49.5206298828125 59.54228210449219 48.13558959960938 59.91619110107422 L 44.57888031005859 57.24462890625 C 44.03276062011719 57.29290771484375 43.48343658447266 57.29290771484375 42.93731689453125 57.24462890625 L 39.38060760498047 59.91619110107422 C 37.99496841430664 59.54401016235352 36.66399002075195 58.99214935302734 35.42154693603516 58.27463150024414 L 34.79388809204102 53.88104248046875 C 34.39691925048828 53.50551986694336 34.01066970825195 53.11927032470703 33.63513946533203 52.7222900390625 L 29.24155807495117 52.09463119506836 C 28.52568817138672 50.85139083862305 27.97389984130859 49.52062225341797 27.59999847412109 48.13558197021484 L 30.27155685424805 44.57887268066406 C 30.27155685424805 44.57887268066406 30.2232780456543 43.48448944091797 30.27155685424805 42.93730926513672 L 27.59999847412109 39.38059997558594 C 27.97216796875 37.99496078491211 28.52404022216797 36.66398239135742 29.24155807495117 35.42153930664062 L 33.63513946533203 34.79388046264648 C 34.01066970825195 34.39690017700195 34.39691925048828 34.01066207885742 34.79388809204102 33.63513946533203 L 35.42154693603516 29.24155044555664 C 36.66479873657227 28.52566909790039 37.99556732177734 27.97389221191406 39.38060760498047 27.59999084472656 Z" stroke="none" fill="#0f1115"></path>
      </g>
    </g>
  </g>
</svg>
