<svg id="Illustration_Unified_1" data-name="Illustration Unified 1" xmlns="http://www.w3.org/2000/svg" xmlns:xlink="http://www.w3.org/1999/xlink" width="463.883" height="751.597" viewBox="0 0 463.883 751.597">
  <defs>
    <clipPath id="clip-path">
      <rect id="Rectangle_1166" data-name="Rectangle 1166" width="463.883" height="751.597" fill="none"/>
    </clipPath>
  </defs>
  <g id="Group_5462" data-name="Group 5462" clip-path="url(#clip-path)">
    <path id="Path_31398" data-name="Path 31398" d="M155.682,506.577v-25.6a5.2,5.2,0,0,0-2.6-4.5l-22.171-12.8a5.2,5.2,0,0,0-5.2,0l-22.17,12.8a5.2,5.2,0,0,0-2.6,4.5v25.6a5.2,5.2,0,0,0,2.6,4.5l22.17,12.8a5.2,5.2,0,0,0,5.2,0l22.171-12.8a5.2,5.2,0,0,0,2.6-4.5" transform="translate(40.425 185.421)" fill="#8f8fef"/>
    <path id="Path_31399" data-name="Path 31399" d="M128.788,251.237l-23.834,22.614a12.9,12.9,0,0,0-3.591,12.66l6.15,23.22a1.922,1.922,0,0,0,3.61.3l4.56-10.137a13.75,13.75,0,0,1,5.659-6.266l17.068-9.868" transform="translate(40.423 100.62)" fill="#e9e9e9"/>
    <path id="Path_31400" data-name="Path 31400" d="M128.788,251.237l-23.834,22.614a12.9,12.9,0,0,0-3.591,12.66l6.15,23.22a1.922,1.922,0,0,0,3.61.3l4.56-10.137a13.75,13.75,0,0,1,5.659-6.266l17.068-9.868" transform="translate(40.423 100.62)" fill="none" stroke="#000" stroke-width="1"/>
    <path id="Path_31401" data-name="Path 31401" d="M203.949,251.237l23.832,22.614a12.9,12.9,0,0,1,3.592,12.66l-6.151,23.22a1.922,1.922,0,0,1-3.61.3l-4.56-10.137a13.742,13.742,0,0,0-5.659-6.266l-17.066-9.868" transform="translate(77.827 100.62)" fill="#e9e9e9"/>
    <path id="Path_31402" data-name="Path 31402" d="M203.949,251.237l23.832,22.614a12.9,12.9,0,0,1,3.592,12.66l-6.151,23.22a1.922,1.922,0,0,1-3.61.3l-4.56-10.137a13.742,13.742,0,0,0-5.659-6.266l-17.066-9.868" transform="translate(77.827 100.62)" fill="none" stroke="#000" stroke-width="1"/>
    <path id="Path_31403" data-name="Path 31403" d="M175.946,135.017c-30.569,29.635-52.232,19.562-52.232,106.119,0,50.968,7.512,97.564,19.932,133.319a4.57,4.57,0,0,0,4.154,3.057q13.938.51,28.146.517t28.146-.517a4.57,4.57,0,0,0,4.154-3.057c12.418-35.755,19.932-82.351,19.932-133.319,0-86.556-21.663-76.484-52.232-106.119" transform="translate(49.547 54.074)"/>
    <path id="Path_31404" data-name="Path 31404" d="M185.566,1.685a3.842,3.842,0,0,0-5.55,0c-43.109,44.935-73.393,150.909-73.393,274.5,0,76.378,11.57,61.993,30.583,114.667q22.547.916,45.585.929t45.586-.929c19.013-52.674,30.583-38.29,30.583-114.667,0-123.587-30.286-229.561-73.393-274.5" transform="translate(42.702 0.2)" fill="#ccc"/>
    <path id="Path_31405" data-name="Path 31405" d="M210.9,149.412c0,24.863-17.369,45.019-38.794,45.019s-38.794-20.156-38.794-45.019,17.369-45.019,38.794-45.019S210.9,124.549,210.9,149.412" transform="translate(53.39 41.809)"/>
    <path id="Path_31406" data-name="Path 31406" d="M126.952,83.492h95.395c-12.1-35.365-27.458-63.6-44.927-81.811a3.84,3.84,0,0,0-5.542,0c-17.47,18.208-32.83,46.446-44.927,81.811" transform="translate(50.844 0.2)"/>
    <path id="Path_31407" data-name="Path 31407" d="M185.566,1.685a3.842,3.842,0,0,0-5.55,0c-43.109,44.935-73.393,150.909-73.393,274.5,0,76.378,11.57,61.993,30.583,114.667q22.547.916,45.585.929t45.586-.929c19.013-52.674,30.583-38.29,30.583-114.667C258.959,152.594,228.674,46.62,185.566,1.685Z" transform="translate(42.702 0.2)" fill="none" stroke="#000" stroke-width="1"/>
    <path id="Path_31408" data-name="Path 31408" d="M163.648,306.707h0a4.519,4.519,0,0,1-4.5-4.074l-4.707-47.538a4.519,4.519,0,0,1,4.5-4.965h9.414a4.519,4.519,0,0,1,4.5,4.965l-4.707,47.538a4.519,4.519,0,0,1-4.5,4.074" transform="translate(61.845 100.177)" fill="#e9e9e9"/>
    <path id="Path_31409" data-name="Path 31409" d="M163.648,306.707h0a4.519,4.519,0,0,1-4.5-4.074l-4.707-47.538a4.519,4.519,0,0,1,4.5-4.965h9.414a4.519,4.519,0,0,1,4.5,4.965l-4.707,47.538A4.519,4.519,0,0,1,163.648,306.707Z" transform="translate(61.845 100.177)" fill="none" stroke="#000" stroke-width="1"/>
    <path id="Path_31410" data-name="Path 31410" d="M210.9,143.187A38.794,38.794,0,1,1,172.1,104.393,38.794,38.794,0,0,1,210.9,143.187" transform="translate(53.39 41.809)" fill="#fff"/>
    <path id="Path_31411" data-name="Path 31411" d="M192.708,139.142a24.649,24.649,0,1,1-24.65-24.65,24.649,24.649,0,0,1,24.65,24.65" transform="translate(57.435 45.854)" fill="#e9e9e9"/>
    <circle id="Ellipse_265" data-name="Ellipse 265" cx="38.794" cy="38.794" r="38.794" transform="matrix(0.526, -0.851, 0.851, 0.526, 172.098, 197.601)" fill="none" stroke="#000" stroke-width="1"/>
    <rect id="Rectangle_1164" data-name="Rectangle 1164" width="113.91" height="8.515" transform="translate(246.782 495.013)"/>
    <path id="Path_31412" data-name="Path 31412" d="M251.463,359.535V606.9h8.516" transform="translate(100.711 143.993)" fill="none" stroke="#000" stroke-width="1"/>
    <line id="Line_7" data-name="Line 7" y1="261.721" transform="translate(246.781 489.176)" fill="none" stroke="#000" stroke-width="1"/>
    <line id="Line_8" data-name="Line 8" y2="261.721" transform="translate(286.521 489.175)" fill="none" stroke="#000" stroke-width="1"/>
    <line id="Line_9" data-name="Line 9" x2="36.578" transform="translate(249.943 520.05)" fill="none" stroke="#000" stroke-width="1"/>
    <line id="Line_10" data-name="Line 10" x2="36.578" transform="translate(249.943 539.365)" fill="none" stroke="#000" stroke-width="1"/>
    <line id="Line_11" data-name="Line 11" x2="36.578" transform="translate(249.943 558.681)" fill="none" stroke="#000" stroke-width="1"/>
    <line id="Line_12" data-name="Line 12" x2="36.578" transform="translate(249.943 577.996)" fill="none" stroke="#000" stroke-width="1"/>
    <line id="Line_13" data-name="Line 13" x2="36.578" transform="translate(249.943 597.311)" fill="none" stroke="#000" stroke-width="1"/>
    <line id="Line_14" data-name="Line 14" x2="36.578" transform="translate(249.943 616.627)" fill="none" stroke="#000" stroke-width="1"/>
    <line id="Line_15" data-name="Line 15" x2="36.578" transform="translate(249.943 635.942)" fill="none" stroke="#000" stroke-width="1"/>
    <line id="Line_16" data-name="Line 16" x2="36.578" transform="translate(249.943 655.258)" fill="none" stroke="#000" stroke-width="1"/>
    <line id="Line_17" data-name="Line 17" x2="36.578" transform="translate(249.943 674.573)" fill="none" stroke="#000" stroke-width="1"/>
    <line id="Line_18" data-name="Line 18" x2="36.578" transform="translate(249.943 693.889)" fill="none" stroke="#000" stroke-width="1"/>
    <line id="Line_19" data-name="Line 19" x2="36.578" transform="translate(249.943 713.204)" fill="none" stroke="#000" stroke-width="1"/>
    <line id="Line_20" data-name="Line 20" x2="36.578" transform="translate(249.943 732.519)" fill="none" stroke="#000" stroke-width="1"/>
    <line id="Line_21" data-name="Line 21" x2="42.593" y2="51.558" transform="translate(309.581 501.495)" fill="none" stroke="#000" stroke-width="1"/>
    <path id="Path_31413" data-name="Path 31413" d="M199.924,312.194c-2.29,22.485-7.928,46.127-22.6,63.944a70.326,70.326,0,0,1-12.908,12.138c-5.311,3.87-11.028,7.124-16.628,10.542-9.84,6-19.951,13.013-25.294,23.583-4.9,9.686-4.554,23.091,4.252,30.482l.077-.293c-12.316,2.482-20.295,15.784-18.94,27.88a21.451,21.451,0,0,0,2.777,8.505c.112.19.5.682.454.835s-.951.22-1.13.259q-1.441.319-2.854.749a39.994,39.994,0,0,0-5.024,1.913,44.208,44.208,0,0,0-16.869,13.833,42.83,42.83,0,0,0-8.227,20.164c-1.174,9.553,2.2,18.87,1.672,28.4-.423,7.631-4.283,16.411-12.5,18.094-9.144,1.871-17.453-5.862-23.926-11.163-6.418-5.258-13.992-10.149-22.57-10.3C12.916,551.648,5.586,555.5,2.9,561.922a12.625,12.625,0,0,0-.964,4.805.175.175,0,0,0,.35,0c.055-6.078,4.578-10.9,9.955-13.156,6.2-2.6,13.026-1.346,18.907,1.51,5.961,2.9,10.775,7.343,15.973,11.354,4.629,3.573,10.077,7.312,16.153,7.407a14.287,14.287,0,0,0,12.4-7.26c2.938-4.843,3.648-10.565,3.311-16.125-.433-7.13-2.27-14.165-1.847-21.342a40.805,40.805,0,0,1,4.666-16.435c5.975-11.413,16.956-20.2,29.72-22.563a.177.177,0,0,0,.105-.258c-6.825-10.252-3.211-24.93,6-32.5a21.224,21.224,0,0,1,9.281-4.435.175.175,0,0,0,.077-.291c-8.431-7.077-9.042-19.877-4.563-29.311,5.252-11.068,15.786-18.275,25.934-24.448,5.6-3.41,11.317-6.675,16.6-10.575a70.244,70.244,0,0,0,12.226-11.462,89.69,89.69,0,0,0,15.417-28.052,159.228,159.228,0,0,0,7.664-36.594c.022-.224-.328-.223-.35,0" transform="translate(0.775 124.966)"/>
    <path id="Path_31414" data-name="Path 31414" d="M105.8,362.24a100.073,100.073,0,0,0,35.1-34.195,98.254,98.254,0,0,0,6.483-12.484c.088-.2-.213-.384-.3-.176a99.791,99.791,0,0,1-29.839,38.7,98,98,0,0,1-11.619,7.85.175.175,0,0,0,.176.3" transform="translate(42.267 126.274)"/>
    <path id="Path_31415" data-name="Path 31415" d="M135.963,310.417a.175.175,0,0,0,0-.35.175.175,0,0,0,0,.35" transform="translate(54.385 124.181)"/>
    <path id="Path_31416" data-name="Path 31416" d="M137.918,313.023h1.368a.175.175,0,0,0,0-.35h-1.368a.175.175,0,0,0,0,.35" transform="translate(55.168 125.225)"/>
    <path id="Path_31417" data-name="Path 31417" d="M137.341,321.895l.912-.458a.176.176,0,0,0,.063-.239.18.18,0,0,0-.239-.063l-.912.458a.176.176,0,0,0-.063.24.18.18,0,0,0,.239.063" transform="translate(54.899 128.605)"/>
    <path id="Path_31418" data-name="Path 31418" d="M96.9,373.287a80.64,80.64,0,0,0,31.48-18.632,79.538,79.538,0,0,0,7.066-7.727c.139-.174-.108-.423-.248-.248a80.344,80.344,0,0,1-28.542,22.443,79.343,79.343,0,0,1-9.848,3.826c-.214.067-.123.4.092.338" transform="translate(38.724 138.821)"/>
    <path id="Path_31419" data-name="Path 31419" d="M127.309,343.42l2.277-2.741c.143-.172-.1-.422-.248-.248l-2.277,2.741c-.143.172.1.422.248.248" transform="translate(50.871 136.319)"/>
    <path id="Path_31420" data-name="Path 31420" d="M155.612,314.158a166.964,166.964,0,0,1-7.075,38.645q-1.647,5.336-3.651,10.554c-.081.21.258.3.338.094a167.4,167.4,0,0,0,9.668-38.176q.723-5.54,1.071-11.117c.014-.225-.336-.224-.35,0" transform="translate(58.021 125.752)"/>
    <path id="Path_31421" data-name="Path 31421" d="M139.384,361.537l1.865-2.248a.18.18,0,0,0,0-.248.178.178,0,0,0-.248,0l-1.865,2.248a.182.182,0,0,0,0,.248.176.176,0,0,0,.248,0" transform="translate(55.704 143.775)"/>
    <path id="Path_31422" data-name="Path 31422" d="M159.9,315.778v6.388a.175.175,0,0,0,.35,0v-6.388a.175.175,0,0,0-.35,0" transform="translate(64.039 126.401)"/>
    <path id="Path_31423" data-name="Path 31423" d="M160.657,331.105q-1.672,21.711-4.259,43.338c-.027.224.324.221.35,0q2.588-21.621,4.259-43.338c.017-.224-.333-.224-.35,0" transform="translate(62.637 132.54)"/>
    <path id="Path_31424" data-name="Path 31424" d="M167.5,315.124a104.824,104.824,0,0,0,2.241,22.842c.046.22.384.127.338-.094a104.392,104.392,0,0,1-2.228-22.748.175.175,0,0,0-.35,0" transform="translate(67.082 126.139)"/>
    <path id="Path_31425" data-name="Path 31425" d="M171.149,337.783a.175.175,0,0,0,0-.35.175.175,0,0,0,0,.35" transform="translate(68.477 135.141)"/>
    <path id="Path_31426" data-name="Path 31426" d="M171.318,338.677a8.437,8.437,0,0,1,1.416,3.594c.032.221.37.127.338-.094a8.646,8.646,0,0,0-1.451-3.675c-.127-.184-.431-.01-.3.175" transform="translate(68.6 135.538)"/>
    <path id="Path_31427" data-name="Path 31427" d="M175.536,313.349a150.854,150.854,0,0,0,7.26,26.7c.078.21.417.119.338-.092a150.852,150.852,0,0,1-7.26-26.7c-.039-.223-.377-.129-.338.092" transform="translate(70.301 125.408)"/>
    <path id="Path_31428" data-name="Path 31428" d="M183.489,339q.456.763.913,1.522a.175.175,0,0,0,.3-.176l-.912-1.521a.175.175,0,0,0-.3.175" transform="translate(73.477 135.664)"/>
    <path id="Path_31429" data-name="Path 31429" d="M183.1,313.961a69.813,69.813,0,0,0,19.705,31.7,68.713,68.713,0,0,0,8.246,6.484c.188.126.363-.176.176-.3a69.441,69.441,0,0,1-24.019-27.993,68.114,68.114,0,0,1-3.772-9.986.175.175,0,0,0-.338.092" transform="translate(73.329 125.654)"/>
    <path id="Path_31430" data-name="Path 31430" d="M192.195,319.713a59.005,59.005,0,0,0,11.245,10.978c4.253,3.162,9.155,6.234,14.351,7.508a.176.176,0,0,0,.092-.339c-5.159-1.265-10.04-4.329-14.267-7.472a58.669,58.669,0,0,1-11.173-10.924c-.139-.176-.385.073-.248.248" transform="translate(76.957 127.921)"/>
    <path id="Path_31431" data-name="Path 31431" d="M2.006,472.4c-.678-4.637,1.576-8.907,4.476-12.361A54.766,54.766,0,0,1,16.612,451a35.1,35.1,0,0,1,12.176-5.931,24.537,24.537,0,0,1,13.892,1c5.109,1.809,9.725,4.76,14.247,7.694a.177.177,0,0,0,.258-.1A19.006,19.006,0,0,1,78.11,440.594c.115.02.27-.08.214-.216a19.585,19.585,0,0,1,2.886-19.725,19.858,19.858,0,0,1,7.722-5.675,27.758,27.758,0,0,1,9.57-1.6c3.507-.147,7.126-.34,10.193-2.234.192-.119.015-.422-.176-.3-3.143,1.941-6.862,2.053-10.448,2.2a26.678,26.678,0,0,0-9.518,1.717,19.782,19.782,0,0,0-11.662,14.221,20.11,20.11,0,0,0,1.1,11.49l.216-.214a19.361,19.361,0,0,0-21.356,13.31l.258-.105c-8.015-5.2-17.026-10.746-27-9.015a33.061,33.061,0,0,0-12.939,5.743,56.8,56.8,0,0,0-10.551,9.166C3.436,463,.941,467.519,1.668,472.5c.032.223.37.129.338-.092" transform="translate(0.617 164.53)"/>
    <path id="Path_31432" data-name="Path 31432" d="M82.009,409.341l.912-.913a.175.175,0,1,0-.248-.246l-.913.912a.178.178,0,0,0,0,.248.181.181,0,0,0,.249,0" transform="translate(32.724 163.456)"/>
    <path id="Path_31433" data-name="Path 31433" d="M148.9,380.68c.874,11.564-6.809,21.283-14.015,29.444-6.913,7.829-14.46,15.949-16.068,26.695-.794,5.305-.031,10.855,3.118,15.3l.105-.258c-8.778,2.329-15.057,10.568-16.314,19.381a21.093,21.093,0,0,0,2.284,13.086c2.836,5.256,7.361,9.329,10.441,14.421,3.046,5.036,4.731,12.462.371,17.272-.151.167.1.415.248.247,3.372-3.721,3.223-9.081,1.636-13.569-1.9-5.381-6.01-9.486-9.381-13.957-3.169-4.2-5.447-8.783-5.48-14.138a24.1,24.1,0,0,1,3.963-13.184A21.51,21.51,0,0,1,122.13,452.2a.177.177,0,0,0,.1-.258c-6.22-8.788-2.977-20.534,2.489-28.8,6.05-9.147,14.81-16.2,20.229-25.8,2.864-5.077,4.739-10.781,4.3-16.665-.017-.223-.367-.225-.35,0" transform="translate(42.252 152.394)"/>
    <path id="Path_31434" data-name="Path 31434" d="M129.773,498.072a.175.175,0,0,0,0-.35.175.175,0,0,0,0,.35" transform="translate(51.906 199.337)"/>
    <path id="Path_31435" data-name="Path 31435" d="M139.547,493.511a.175.175,0,0,0,0-.35.175.175,0,0,0,0,.35" transform="translate(55.821 197.51)"/>
    <path id="Path_31436" data-name="Path 31436" d="M219.976,394.407a80.615,80.615,0,0,0,16.718,33.615q2,2.4,4.194,4.634,1.094,1.117,2.232,2.189a12.034,12.034,0,0,0,2.109,1.846,1.694,1.694,0,0,0,2.059-.345,5.783,5.783,0,0,1,2.675-1.371,5.6,5.6,0,0,1,5.687,2.385c.12.19.423.015.3-.177a5.978,5.978,0,0,0-7.755-1.952c-.882.5-1.686,1.739-2.793,1.157a13.808,13.808,0,0,1-2.655-2.379q-2.252-2.168-4.326-4.511A80.608,80.608,0,0,1,224.8,408.03a79.743,79.743,0,0,1-4.482-13.715c-.05-.22-.388-.127-.337.092" transform="translate(88.098 157.872)"/>
    <path id="Path_31437" data-name="Path 31437" d="M257.945,433.71c5.264-3.36,12.008-2.116,16.936,1.27,5.79,3.98,8.456,10.777,9.1,17.571a52.034,52.034,0,0,1-.51,12.5.176.176,0,0,0,.293.169c3.559-2.878,8.572-1.864,12.005.664,3.617,2.665,6.239,6.776,8.224,10.74a44.373,44.373,0,0,1,4.07,13.445,38.437,38.437,0,0,0,1.545,7.322,21.026,21.026,0,0,0,2.714,5.12c2.718,3.816,6.389,6.819,10.005,9.743.174.14.423-.106.248-.248-3.521-2.846-7.1-5.765-9.791-9.449a20.7,20.7,0,0,1-3.047-5.876,51.292,51.292,0,0,1-1.483-7.675,42.744,42.744,0,0,0-4.374-13.369c-2.045-3.874-4.715-7.874-8.389-10.379-3.522-2.4-8.472-3.117-11.974-.284l.293.169c1.1-7.42,1.242-15.425-2-22.369a19.577,19.577,0,0,0-14.427-11.221,13.762,13.762,0,0,0-9.612,1.854c-.189.12-.014.424.176.3" transform="translate(103.203 172.761)"/>
    <path id="Path_31438" data-name="Path 31438" d="M288.768,442.731c4.969,4.8,10.628,9.536,17.712,10.514a16.832,16.832,0,0,0,5.122-.048,49.13,49.13,0,0,0,5.305-1.573,12.748,12.748,0,0,1,9.018.8,13.036,13.036,0,0,1,6.729,7.239c.038.109.2.188.29.077,3.568-4.48,8.64-10.257,15.093-8.138.216.07.307-.268.1-.338-6.581-2.161-11.789,3.65-15.435,8.228l.293.077a13.712,13.712,0,0,0-12.63-8.792c-3.592-.017-6.734,2.006-10.289,2.256a20.313,20.313,0,0,1-10.927-2.623,47.1,47.1,0,0,1-10.13-7.924c-.162-.157-.41.091-.247.248" transform="translate(115.63 177.194)"/>
    <path id="Path_31439" data-name="Path 31439" d="M242.392,405.808l4.059,4.6c.15.169.4-.08.248-.248l-4.059-4.6c-.15-.169-.4.08-.248.248" transform="translate(97.059 162.404)"/>
    <path id="Path_31440" data-name="Path 31440" d="M256.046,415.417c1.79,1.225,3.937.856,5.937.457a13.1,13.1,0,0,1,6.54-.084,11.444,11.444,0,0,1,5.229,3.318,10.576,10.576,0,0,1,1.613,2.375c.5,1,.658,2.1,1.087,3.118a2.215,2.215,0,0,0,1.227,1.363c.909.305,1.833-.346,2.731-.43a5.3,5.3,0,0,1,5.017,2.877,4.416,4.416,0,0,1,.465,1.622,3.753,3.753,0,0,0,.143,1.294,1.206,1.206,0,0,0,1.414.6c.514-.074.992-.3,1.5-.388a4.686,4.686,0,0,1,1.952.092,7.75,7.75,0,0,1,3.176,1.818c4.148,3.718,6.007,10.012,5.895,15.428a.175.175,0,0,0,.35,0,22.573,22.573,0,0,0-4.129-13.565,10.294,10.294,0,0,0-4.7-3.867,5.192,5.192,0,0,0-2.634-.244,7.72,7.72,0,0,1-1.7.409c-1.186-.077-.846-1.336-.982-2.073a5.515,5.515,0,0,0-3.07-3.829,5.324,5.324,0,0,0-2.251-.545c-1.084-.01-2.646,1-3.529.183-.759-.7-.846-1.951-1.169-2.878a10.455,10.455,0,0,0-1.367-2.625,11.754,11.754,0,0,0-4.316-3.661,10.858,10.858,0,0,0-6.283-1.076c-2.585.35-5.581,1.641-7.97.006-.186-.127-.361.176-.176.3" transform="translate(102.515 166.213)"/>
    <path id="Path_31441" data-name="Path 31441" d="M289.085,442.362a.175.175,0,0,0,0-.35.175.175,0,0,0,0,.35" transform="translate(115.71 177.025)"/>
    <path id="Path_31442" data-name="Path 31442" d="M294.864,429.63c4.125,3.059,9.43,1.267,14.047.829a12.852,12.852,0,0,1,7.063.907c2.626,1.347,3.535,4.08,4.266,6.745a.177.177,0,0,0,.258.105c2.088-1.546,4.6-3.329,7.334-2.433a4.294,4.294,0,0,1,2.444,2.466c.331.612.752,1.277,1.508,1.364.985.115,1.69-.774,2.329-1.371a10.651,10.651,0,0,1,3.469-2.158,11.072,11.072,0,0,1,7.375-.2c.214.07.307-.268.094-.338a11.38,11.38,0,0,0-7.067.024,11.219,11.219,0,0,0-3.073,1.562c-.93.675-2.468,2.87-3.7,1.847-.78-.644-.941-1.825-1.654-2.553a4.339,4.339,0,0,0-2.546-1.185c-2.545-.339-4.752,1.239-6.687,2.672l.256.105c-.643-2.343-1.387-4.783-3.409-6.313a10.319,10.319,0,0,0-6.438-1.7c-5.119.073-11.1,2.724-15.69-.678-.181-.134-.356.169-.176.3" transform="translate(118.063 171.931)"/>
    <path id="Path_31443" data-name="Path 31443" d="M149.148,429.481v.913a.175.175,0,1,0,.35,0v-.913a.175.175,0,0,0-.35,0" transform="translate(59.734 171.936)"/>
    <path id="Path_31444" data-name="Path 31444" d="M151.311,447.126l3.672-4.545c.14-.174-.106-.423-.248-.248l-3.672,4.545c-.14.174.106.423.248.248" transform="translate(60.484 177.13)"/>
    <path id="Path_31445" data-name="Path 31445" d="M158.443,462.235a.175.175,0,0,0,0-.35.175.175,0,0,0,0,.35" transform="translate(63.389 184.984)"/>
    <path id="Path_31446" data-name="Path 31446" d="M161.642,440.113l2.731.93c.214.073.307-.265.094-.338l-2.732-.93c-.213-.073-.305.265-.092.338" transform="translate(64.689 176.125)"/>
    <path id="Path_31447" data-name="Path 31447" d="M155.185,465.493h1.825a.175.175,0,0,0,0-.35h-1.825a.175.175,0,0,0,0,.35" transform="translate(62.084 186.289)"/>
    <path id="Path_31448" data-name="Path 31448" d="M109.354,489.264a15.274,15.274,0,0,0-4.391,8.371c-.036.22.3.315.338.094a14.95,14.95,0,0,1,4.3-8.217c.161-.158-.087-.4-.248-.248" transform="translate(42.037 195.929)"/>
    <path id="Path_31449" data-name="Path 31449" d="M219.276,458.163a14.965,14.965,0,0,0,6.129,11,14.071,14.071,0,0,0,6.1,2.6c2.944.466,5.959-.039,8.883.612a14.317,14.317,0,0,1,7.784,4.758c.146.172.392-.077.248-.248a14.676,14.676,0,0,0-5.577-4.1,20.117,20.117,0,0,0-7.764-1.151,16.166,16.166,0,0,1-7.509-1.545,15.016,15.016,0,0,1-5.287-4.588,14.066,14.066,0,0,1-2.653-7.34c-.014-.224-.364-.225-.35,0" transform="translate(87.82 183.426)"/>
    <path id="Path_31450" data-name="Path 31450" d="M241.849,475.113l2.737.916c.214.071.307-.268.094-.338l-2.738-.916c-.213-.071-.305.266-.092.338" transform="translate(96.812 190.143)"/>
    <path id="Path_31451" data-name="Path 31451" d="M262.045,485.692h4.563a.175.175,0,0,0,0-.35h-4.563a.175.175,0,0,0,0,.35" transform="translate(104.881 194.379)"/>
    <path id="Path_31452" data-name="Path 31452" d="M312.177,492.638a22.157,22.157,0,0,1,13.483,2.5c.2.108.375-.195.177-.3a22.47,22.47,0,0,0-13.659-2.546c-.22.029-.223.38,0,.35" transform="translate(124.96 197.084)"/>
    <path id="Path_31453" data-name="Path 31453" d="M.118,423.019c2.984,1.132,5.839-.878,7.746-3.021,1.122-1.26,2.111-2.637,3.33-3.808a19.074,19.074,0,0,1,4.056-2.928,40.553,40.553,0,0,1,9.226-3.378c3.218-.849,7.133-2.249,10.145-.147,1.015.709,2.021,1.591,3.35,1.4a4.656,4.656,0,0,0,2.791-2.022c.895-1.155,1.619-2.414,2.6-3.5A17.771,17.771,0,0,1,46.9,402.62a18.576,18.576,0,0,1,8.6-2.9,16.956,16.956,0,0,1,4.616.27c1.76.354,3.452,1,5.239,1.22,3.952.487,6.979-2.168,9.941-4.378l10.819-8.077c.178-.133.006-.437-.176-.3l-9.434,7.04c-1.49,1.113-2.962,2.269-4.494,3.326a10.315,10.315,0,0,1-5.035,2.1,17.806,17.806,0,0,1-5.582-.986,18.3,18.3,0,0,0-4.249-.609,18.691,18.691,0,0,0-7.967,1.671,18.2,18.2,0,0,0-6.633,5.045c-1.717,2.111-3.5,6.323-6.8,4.084a8.354,8.354,0,0,0-3.7-1.762,13.069,13.069,0,0,0-4.654.431,64.642,64.642,0,0,0-9.151,2.7,21.431,21.431,0,0,0-8.4,5.619C7.467,419.812,4.463,424.3.21,422.682c-.209-.08-.3.258-.092.337" transform="translate(0 155.56)"/>
    <path id="Path_31454" data-name="Path 31454" d="M69.954,383.083l3.65-3.65a.175.175,0,0,0-.246-.248l-3.651,3.65a.175.175,0,0,0,.248.248" transform="translate(27.896 151.843)"/>
    <path id="Path_31455" data-name="Path 31455" d="M80.358,374.141,83.1,372.33c.188-.123.013-.427-.176-.3l-2.746,1.811c-.188.123-.013.427.176.3" transform="translate(32.081 148.985)"/>
    <path id="Path_31456" data-name="Path 31456" d="M88.757,369.283l2.731-.93c.213-.073.122-.412-.092-.338l-2.731.93c-.213.073-.122.41.092.337" transform="translate(35.462 147.386)"/>
    <path id="Path_31457" data-name="Path 31457" d="M222.95,374.272a.175.175,0,0,0,0-.35.175.175,0,0,0,0,.35" transform="translate(89.224 149.755)"/>
    <path id="Path_31458" data-name="Path 31458" d="M265.712,393.42c4.739,2.567,10.288,3.517,14.763,6.588,3.829,2.629,7.164,7.767,5.067,12.459-.055.122.039.319.2.258,3.357-1.293,7.087.08,9.607,2.451,2.6,2.444,4.126,5.759,5.6,8.946.1.2.4.027.3-.178-1.587-3.434-3.267-7.091-6.256-9.547-2.57-2.112-6.136-3.246-9.346-2.01l.2.256c1.986-4.447-.669-9.288-4.137-12.141-4.542-3.738-10.731-4.629-15.819-7.385-.2-.108-.375.195-.176.3" transform="translate(106.382 157.434)"/>
    <path id="Path_31459" data-name="Path 31459" d="M288.108,415.322a.175.175,0,0,0,0-.35.175.175,0,0,0,0,.35" transform="translate(115.319 166.196)"/>
    <rect id="Rectangle_1165" data-name="Rectangle 1165" width="50.746" height="50.746" transform="translate(30.115 481.774) rotate(-45)" fill="#ff6679"/>
    <path id="Path_31460" data-name="Path 31460" d="M299.756,474.3A33.052,33.052,0,1,1,266.7,441.242,33.053,33.053,0,0,1,299.756,474.3" transform="translate(93.577 176.717)" fill="#ffa766"/>
    <path id="Path_31461" data-name="Path 31461" d="M162.984,347.551l-32.2,36.92a2.83,2.83,0,0,0,1.588,4.637l48.072,9.423a2.83,2.83,0,0,0,3.223-3.693l-15.876-46.344a2.83,2.83,0,0,0-4.809-.943" transform="translate(52.1 138.805)" fill="#60d8d2"/>
    <path id="Path_31462" data-name="Path 31462" d="M227.773,161.649a283.465,283.465,0,0,1,4.483,51.992q-.048,7.346-.478,14.688c-.013.225.337.224.35,0a283.579,283.579,0,0,0-1.8-52.367q-.924-7.233-2.218-14.4c-.039-.223-.377-.13-.337.091" transform="translate(91.221 64.652)"/>
    <path id="Path_31463" data-name="Path 31463" d="M242.341,179.921q.975,7.75,1.948,15.5c.027.22.378.223.35,0q-.975-7.75-1.948-15.5c-.028-.221-.378-.223-.35,0" transform="translate(97.057 71.991)"/>
    <path id="Path_31464" data-name="Path 31464" d="M102.073,98.422a283.235,283.235,0,0,0-10,53.944q-.666,7.72-.906,15.466c-.007.225.343.225.35,0a282.761,282.761,0,0,1,7.01-54.318q1.733-7.552,3.879-15a.175.175,0,0,0-.338-.092" transform="translate(36.514 39.369)"/>
    <path id="Path_31465" data-name="Path 31465" d="M82.561,114.7a37.791,37.791,0,0,0-1.709,16.485c.027.221.377.224.35,0A37.558,37.558,0,0,1,82.9,114.8c.071-.214-.266-.305-.338-.094" transform="translate(32.276 45.89)"/>
  </g>
</svg>
