<svg xmlns="http://www.w3.org/2000/svg" width="313" height="49" viewBox="0 0 313 49">
  <g id="client-unitedhealth" transform="translate(-207 -1010.5)">
    <g id="client-pfizer" transform="translate(0 167.5)">
      <path id="Path_14397" data-name="Path 14397" d="M0,0H313V49H0Z" transform="translate(207 843)" fill="#1b202a"/>
    </g>
    <g id="layer1" transform="translate(238 1025.903)">
      <g id="g1466">
        <path id="path1054" d="M171.564,8.966c1.932,0,2.7-.873,2.7-2.543,0-1.767-.9-2.592-2.659-2.592h-2.573V16.792a.742.742,0,0,1-.737.738h-1.588a.744.744,0,0,1-.735-.738V2.78a.761.761,0,0,1,.735-.759h5.209c3.195,0,5.183,1.451,5.183,4.4a3.819,3.819,0,0,1-3.172,3.89l3.353,6.278a.952.952,0,0,1,.133.424.476.476,0,0,1-.424.515h-1.945a.7.7,0,0,1-.58-.425l-3.583-7a1.713,1.713,0,0,1-.25-.721c0-.234.116-.421.527-.421Z" transform="translate(22.798 0.278)" fill="#fff"/>
        <path id="path1058" d="M184.759,3.476c-3.212,0-3.765,2.89-3.765,6.34,0,3.483.587,6.341,3.719,6.341,3.073,0,3.81-2.739,3.81-6.341,0-3.45-.6-6.34-3.765-6.34m0,14.422c-2.99,0-6.806-1.028-6.806-8.082,0-7.008,3.787-8.082,6.806-8.082s6.8,1.074,6.8,8.082c0,6.92-3.7,8.082-6.8,8.082" transform="translate(24.443 0.238)" fill="#fff"/>
        <path id="path1062" d="M198.347,17.858c-4.158,0-5.857-2.345-5.857-5.184V2.78a.762.762,0,0,1,.736-.759h1.564a.763.763,0,0,1,.742.759V12.851c0,2.568,1.234,3.266,2.959,3.266,2.27,0,2.962-1.338,2.962-3.266V2.78a.762.762,0,0,1,.736-.759h1.275a.763.763,0,0,1,.739.759v9.894c0,3.285-2.061,5.184-5.855,5.184" transform="translate(26.44 0.278)" fill="#fff"/>
        <path id="path1066" d="M210.5,9.774h.768a2.568,2.568,0,0,0,2.8-2.9c0-2.305-1.189-3.061-2.871-3.061h-2.4V16.793a.709.709,0,0,1-.693.737h-1.545a.742.742,0,0,1-.734-.737V2.781a.76.76,0,0,1,.734-.76h5.587c3.006,0,4.761,1.833,4.761,4.85,0,2.726-1.6,4.561-4.767,4.561a10.253,10.253,0,0,1-1.564-.121c-.638-.108-.929-.457-.929-.818a.759.759,0,0,1,.86-.719" transform="translate(28.271 0.278)" fill="#fff"/>
        <path id="path1070" d="M145.435,17.53H143.96a.756.756,0,0,1-.761-.761V10.586h-5.985v6.183a.754.754,0,0,1-.761.761H134.98a.755.755,0,0,1-.76-.761V2.78a.763.763,0,0,1,.738-.759h1.518a.763.763,0,0,1,.738.759V8.4H143.2V2.78a.764.764,0,0,1,.738-.759h1.52a.765.765,0,0,1,.74.759V16.769a.756.756,0,0,1-.762.761" transform="translate(18.436 0.278)" fill="#fff"/>
        <path id="path1074" d="M6.456,18.044C1.7,18.044,0,15.363,0,12.176V1.1A.879.879,0,0,1,.845.233H2.189a.881.881,0,0,1,.845.869V12.493c0,2.882,1.593,3.658,3.488,3.658,2.507,0,3.487-1.277,3.487-3.658V1.1a.881.881,0,0,1,.845-.869h1.183a.878.878,0,0,1,.843.869V12.176c0,3.685-2.239,5.868-6.425,5.868" transform="translate(0 0.032)" fill="#fff"/>
        <path id="path1078" d="M64.436,3.819H61.782V15.733h2.655c3.5,0,4.35-2.656,4.35-5.869s-.822-6.045-4.35-6.045m.712,13.711h-5.6a.757.757,0,0,1-.738-.75V2.793a.776.776,0,0,1,.738-.772h5.6c3.683,0,6.606,1.976,6.606,7.843,0,5.956-3.146,7.666-6.606,7.666" transform="translate(8.078 0.278)" fill="#fff"/>
        <path id="path1082" d="M85.706,17.764H84.381a.845.845,0,0,1-.855-.851V9.828H76.41v7.085a.845.845,0,0,1-.856.851H74.228a.842.842,0,0,1-.851-.851V1.19A.856.856,0,0,1,74.2.336h1.378a.859.859,0,0,1,.828.854v6.4h7.115V1.19a.86.86,0,0,1,.831-.854h1.374a.86.86,0,0,1,.829.854V16.913a.846.846,0,0,1-.854.851" transform="translate(10.079 0.046)" fill="#fff"/>
        <path id="path1086" d="M121.884,17.532H114.4a.756.756,0,0,1-.76-.763V2.779a.763.763,0,0,1,.739-.757h1.563a.763.763,0,0,1,.739.757V15.344h5.207a.764.764,0,0,1,.737.76v.688a.745.745,0,0,1-.737.74" transform="translate(15.609 0.278)" fill="#fff"/>
        <path id="path1090" d="M32.146,17.532H30.631a.766.766,0,0,1-.76-.773V2.793a.774.774,0,0,1,.739-.771h1.558a.774.774,0,0,1,.737.771V16.759a.766.766,0,0,1-.76.773" transform="translate(4.103 0.278)" fill="#fff"/>
        <path id="path1094" d="M45.8,4.21H42.274V16.759a.767.767,0,0,1-.76.773H40a.767.767,0,0,1-.759-.773V4.21H35.686a.741.741,0,0,1-.737-.735V2.784a.766.766,0,0,1,.737-.762H45.8a.765.765,0,0,1,.736.762v.692a.74.74,0,0,1-.736.735" transform="translate(4.801 0.278)" fill="#fff"/>
        <path id="path1098" d="M132.512,4.21h-3.768V16.759a.765.765,0,0,1-.757.773h-1.517a.767.767,0,0,1-.759-.773V4.21h-3.793a.741.741,0,0,1-.737-.735V2.784a.766.766,0,0,1,.737-.762h10.594a.764.764,0,0,1,.734.762v.692a.739.739,0,0,1-.734.735" transform="translate(16.645 0.278)" fill="#fff"/>
        <path id="path1102" d="M56.94,17.532H48.194a.68.68,0,0,1-.736-.66V2.784a.765.765,0,0,1,.736-.762h8.431a.766.766,0,0,1,.738.762V3.4a.741.741,0,0,1-.738.734H50.491v4.3H56a.764.764,0,0,1,.737.76v.618a.745.745,0,0,1-.737.737h-5.51v4.859l6.449.008a.76.76,0,0,1,.736.756v.7a.68.68,0,0,1-.736.66" transform="translate(6.519 0.278)" fill="#fff"/>
        <path id="path1106" d="M98.016,17.532H89.27a.685.685,0,0,1-.74-.66V2.784a.77.77,0,0,1,.74-.762H97.7a.767.767,0,0,1,.736.762V3.4a.741.741,0,0,1-.736.734H91.567v4.3h5.509a.763.763,0,0,1,.737.76v.618a.744.744,0,0,1-.737.737H91.567v4.859l6.449.008a.761.761,0,0,1,.735.756v.7a.681.681,0,0,1-.735.66" transform="translate(12.16 0.278)" fill="#fff"/>
        <path id="path1110" d="M26.515,17.532H24.224A1.193,1.193,0,0,1,23,16.8c-1.137-2.415-5.541-12.293-5.541-12.293V16.781a.757.757,0,0,1-.737.751H15.7a.755.755,0,0,1-.737-.751V2.768a.749.749,0,0,1,.737-.746h2.238a1.249,1.249,0,0,1,1.293.724c1.184,2.59,5.517,12.223,5.517,12.223V2.768a.752.752,0,0,1,.739-.746h1.03a.752.752,0,0,1,.737.746V16.781a.758.758,0,0,1-.737.751" transform="translate(2.055 0.278)" fill="#fff"/>
        <path id="path1114" d="M163.927,17.3a10.607,10.607,0,0,1-4.772.888c-4.372,0-8.288-1.837-8.288-9.1,0-5.7,2.411-9.1,8.288-9.1a10.726,10.726,0,0,1,4.562.87c.538.23.574.34.574.59,0,.119-.068.49-.083.581-.089.442-.212,1.166-.281,1.556-.038.215-.067.514-.4.514-.271,0-.5-.314-.651-.464a5.207,5.207,0,0,0-3.725-1.585c-4.167,0-4.874,4-4.874,7.033,0,4.193,1.36,7.036,4.874,7.036a7.731,7.731,0,0,0,2.262-.276V10.105c0-.348.2-.457.563-.457h1.928c.406,0,.547.164.547.487v6.287c0,.6-.036.665-.528.883" transform="translate(20.723)" fill="#fff"/>
        <path id="path1118" d="M103.61,12l2.31-7.685L108.1,12Zm9.062,4.544L108.218,2.735a1.042,1.042,0,0,0-1.091-.714h-1.97a.979.979,0,0,0-1.046.714l-4.445,13.9a1.062,1.062,0,0,0-.092.359.546.546,0,0,0,.538.537h1a1.043,1.043,0,0,0,1.078-.718l.877-2.9h5.65l.916,2.9a1.016,1.016,0,0,0,1.108.718H112.2a.527.527,0,0,0,.558-.561,1.515,1.515,0,0,0-.086-.423" transform="translate(13.677 0.278)" fill="#fff"/>
        <path id="path1122" d="M218.569,3.779h.508c.328,0,.537-.069.537-.408,0-.3-.264-.382-.537-.382h-.508Zm-.424-1.125h1c.6,0,.9.241.9.735a.666.666,0,0,1-.674.722l.743,1.157h-.452l-.73-1.157h-.359V5.268h-.424ZM219,5.862a1.816,1.816,0,0,0,1.8-1.9,1.807,1.807,0,1,0-3.609,0A1.818,1.818,0,0,0,219,5.862M219,1.733a2.231,2.231,0,1,1-2.229,2.231A2.232,2.232,0,0,1,219,1.733" transform="translate(29.774 0.238)" fill="#fff"/>
      </g>
    </g>
  </g>
</svg>
