<svg xmlns="http://www.w3.org/2000/svg" width="160" height="47" viewBox="0 0 160 47">
  <g id="client-intuit" transform="translate(92.66 24.5)">
    <rect id="Rectangle_329" data-name="Rectangle 329" width="160" height="47" transform="translate(-92.66 -24.5)" fill="#1b202a"/>
    <g id="Group_1258" data-name="Group 1258" transform="translate(-55.66 -13.5)">
      <path id="Path_14416" data-name="Path 14416" d="M85.141,24.5a1.03,1.03,0,1,1,1.065-1.061A1.068,1.068,0,0,1,85.141,24.5Zm0-2.321a1.256,1.256,0,0,0-1.26,1.252v.008a1.263,1.263,0,0,0,2.526.008v-.008a1.257,1.257,0,0,0-1.257-1.257h-.008Zm-.24,1.165v-.4h.24c.129,0,.281.04.281.191,0,.173-.169.209-.313.209Zm.773-.2c0-.3-.26-.416-.525-.416h-.5v1.417H84.9v-.593h.184l.332.593h.308l-.384-.62A.374.374,0,0,0,85.674,23.138ZM77.722,5.164a2.582,2.582,0,1,0,0-5.164h0a2.582,2.582,0,0,0,0,5.164ZM70.8,7.4v3.788h4.788V24.5H79.86V11.183h4.789V7.4ZM33.5,5.164A2.582,2.582,0,1,0,33.5,0h0a2.582,2.582,0,0,0,0,5.164Zm-6.922,6.018h4.792V24.5h4.272V11.183h4.793V7.4H26.577v3.784ZM63.528,24.5H67.8V7.407H63.528ZM54.88,16.808c0,2.282-1.285,4.632-3.992,4.632-2.742,0-3.2-2.531-3.2-4.56V7.407H43.409V18.089c0,3.5,1.853,6.911,6.306,6.911a5.818,5.818,0,0,0,5.305-3.243h.072V24.5h4.059V7.407H54.88Zm-36.791-9.9a5.825,5.825,0,0,0-5.31,3.243h-.072V7.407H8.653V24.5h4.275V15.1c0-2.282,1.281-4.628,3.988-4.628,2.742,0,3.2,2.526,3.2,4.56V24.5h4.275V13.813c0-3.487-1.849-6.906-6.3-6.906ZM0,24.5H4.276V7.407H0Z" fill="#fff" fill-rule="evenodd"/>
    </g>
  </g>
</svg>
