<svg xmlns="http://www.w3.org/2000/svg" width="160" height="47" viewBox="0 0 160 47">
  <g id="client-pfizer" transform="translate(-207 -843)">
    <path id="Path_14397" data-name="Path 14397" d="M0,0H160V47H0Z" transform="translate(207 843)" fill="#1b202a"/>
    <g id="Group_1256" data-name="Group 1256" transform="translate(237.2 847.181)">
      <path id="Path_13729" data-name="Path 13729" d="M257.6,78.418l5.908-20.971a36.4,36.4,0,0,1,2.412-7.006,7.149,7.149,0,0,1,4.714-3.315,9.457,9.457,0,0,1,3.59.255,3.191,3.191,0,0,1,2.11,1.885,2.185,2.185,0,0,1-1.973,2.928,1.928,1.928,0,0,1-1.919-.949,1.759,1.759,0,0,1,.24-1.783A.946.946,0,0,0,272.6,48.2a2.6,2.6,0,0,0-2.1.415c-.732.481-1.709,2.688-1.9,3.329-.11.359-1.069,4.2-1.069,4.2l7.307.027-3.237,11.219h-3.453l2.26-9.454h-3.508l-5.539,20.5Z" transform="translate(-208.773 -38.281)" fill="#fff"/>
      <path id="Path_13730" data-name="Path 13730" d="M215.776,70.709c-.833-2.721-5.17-2.979-5.17-2.979l-5.7-.069-4.553,16.5h3.792l1.379-5.386a25.452,25.452,0,0,0,3.447-.143c3.713-.508,5.121-2.045,5.121-2.045C214.685,75.909,216.609,73.431,215.776,70.709Zm-4.663,4.168a3.876,3.876,0,0,1-2.489,1.68,8.388,8.388,0,0,1-2.451.172l1.994-7.372H209.7a2.5,2.5,0,0,1,2.447,1.7C212.394,71.984,211.439,74.458,211.113,74.878Z" transform="translate(-162.386 -54.967)" fill="#fff"/>
      <path id="Path_13731" data-name="Path 13731" d="M342.3,95.039h9.71l-7.164,9.538h5.222l-.518,1.813H339.283l7.423-9.322h-4.963Z" transform="translate(-274.96 -77.151)" fill="#fff"/>
      <path id="Path_13732" data-name="Path 13732" d="M410.975,100.073c.863-2.978-.6-6.172-4.014-6.172s-6.215,3.021-6.431,5.438.259,6.474,5.481,6.474a6.347,6.347,0,0,0,4.143-1.424l-.777-1.856a3.639,3.639,0,0,1-3.409,1.208c-2.244-.345-2.2-2.676-1.985-3.625C404.89,100.116,410.975,100.073,410.975,100.073Zm-4.316-4.359c2.287,0,1.424,2.676,1.424,2.676h-3.971S404.372,95.714,406.659,95.714Z" transform="translate(-324.555 -76.229)" fill="#fff"/>
      <path id="Path_13733" data-name="Path 13733" d="M462.459,94.872h-3.5l-2.978,10.962h3.625s1.144-6.323,3.323-8.5c.777-.777,1.511-.216,1.726.518a1.6,1.6,0,0,0,2.633.518,2.071,2.071,0,0,0-.906-3.539c-1.64-.345-3.625,1.208-4.4,2.244Z" transform="translate(-369.523 -76.941)" fill="#fff"/>
      <path id="Path_13734" data-name="Path 13734" d="M34.31,6.1l1.6-6.1A54.709,54.709,0,0,1,50.666,3.59c8.257,3.19,8.509,7.107,8.416,7.576s-1.408,6.287-1.408,6.287C57.468,9.626,41.037,6.56,34.31,6.1Z" transform="translate(-27.038 5.819)" fill="#fff"/>
      <path id="Path_13735" data-name="Path 13735" d="M86.736,91.111,85.2,97.147S98.548,99.2,100.45,93.333a5.754,5.754,0,0,0-1-3.055C98.368,91.49,90.628,91.835,86.736,91.111Z" transform="translate(-69.816 -70.061)" fill="#f5f8fd"/>
      <path id="Path_13736" data-name="Path 13736" d="M24.784,92.964l-1.6,6.1a54.709,54.709,0,0,1-14.761-3.59C.171,92.282-.082,88.366.012,87.9S1.42,81.61,1.42,81.61C1.626,89.437,18.056,92.5,24.784,92.964Z" transform="translate(1.799 -62.776)" fill="#f5f8fd"/>
      <path id="Path_13737" data-name="Path 13737" d="M22.615,61.9l1.533-6.036S10.8,53.82,8.9,59.683a5.755,5.755,0,0,0,1,3.055C10.983,61.526,18.723,61.181,22.615,61.9Z" transform="translate(-5.682 -40.848)" fill="#fff"/>
    </g>
  </g>
</svg>
