<svg xmlns="http://www.w3.org/2000/svg" width="160" height="47" viewBox="0 0 160 47">
  <g id="client-frontier" transform="translate(-1121 -843)">
    <rect id="Rectangle_330" data-name="Rectangle 330" width="160" height="47" transform="translate(1121 843)" fill="#1b202a"/>
    <g id="Group_1259" data-name="Group 1259" transform="translate(-4405 12.324)">
      <path id="path3715" d="M14.645,21.4V25.01H4.121v5.452h9.954v3.487H4.121v9.1H0V21.4Z" transform="translate(5554 822.28)" fill="#fff"/>
      <path id="path3727" d="M43.08,38.97a4.379,4.379,0,0,0-1.554-.317c-2.314,0-4.184,2.314-4.184,5.643v5.833H33.412V35.387h3.9V37.8h.063a4.363,4.363,0,0,1,4.057-2.758,4.11,4.11,0,0,1,1.649.348v3.582Z" transform="translate(5536.658 815.199)" fill="#fff"/>
      <path id="path3731" d="M202.366,38.97a4.379,4.379,0,0,0-1.554-.317c-2.314,0-4.184,2.314-4.184,5.643v5.833H192.7V35.387h3.9V37.8h.063a4.363,4.363,0,0,1,4.057-2.758,4.11,4.11,0,0,1,1.648.348v3.582Z" transform="translate(5453.983 815.199)" fill="#fff"/>
      <path id="path3735" d="M58.255,42.743a3.9,3.9,0,1,0,7.767.063c0-2.155-1.585-4.279-3.773-4.279a4.013,4.013,0,0,0-3.994,4.216m11.982.032a7.815,7.815,0,0,1-8.147,7.7,7.672,7.672,0,0,1-8.051-7.671,7.82,7.82,0,0,1,7.893-7.766c5.452,0,8.3,3.962,8.3,7.734" transform="translate(5525.952 815.198)" fill="#fff"/>
      <path id="path3739" d="M104.141,50.128h-3.93V41.569c0-1.521-.444-2.726-2.156-2.726-2.377,0-3.772,2.473-3.772,5.294v5.991h-3.93V35.388H94.28l0,2.314a5.168,5.168,0,0,1,4.66-2.663c3.551,0,5.2,2.441,5.2,5.484v9.605Z" transform="translate(5507.104 815.199)" fill="#fff"/>
      <path id="path3741" d="M150.364,50.5h-3.93V35.764h3.93Z" transform="translate(5477.996 814.823)" fill="#fff"/>
      <path id="path3745" d="M168.252,40.586a3.05,3.05,0,0,0-2.979-2.6,3.542,3.542,0,0,0-3.329,2.6Zm4.248,2.694H161.6a5.054,5.054,0,0,0,.919,1.9,4.729,4.729,0,0,0,3.582,1.679,9.781,9.781,0,0,0,5.832-2.44v4.025a13.993,13.993,0,0,1-6.467,2.029,7.721,7.721,0,1,1-.285-15.438c4.437,0,7.322,3.17,7.322,7.64v.6Z" transform="translate(5472.249 815.199)" fill="#fff"/>
      <path id="path3749" d="M126.751,26.585v4.438h4.121v2.947h-3.994v6.435c0,1.648.888,2.06,1.9,2.06a5.339,5.339,0,0,0,2.092-.507v3.487a13.749,13.749,0,0,1-3.582.508c-2.662,0-4.342-1.364-4.342-4.217V33.971h-2.441V31.023h2.442V26.568h3.8" transform="translate(5491.453 819.596)" fill="#fff"/>
      <path id="path3789" d="M150.242,25.374a2.094,2.094,0,1,1-2.18-2.122,2.213,2.213,0,0,1,2.18,2.122" transform="translate(5478.193 821.317)" fill="#fff"/>
      <path id="path3869" d="M214.893,35.731l.315.438.318-.438h.213v1.01h-.22l.01-.664-.3.424h-.048l-.3-.434.009.675h-.223v-1.01Zm-1.25.208v-.2h.887v.2H214.2v.8h-.219v-.8Z" transform="translate(5443.113 814.84)" fill="#fff"/>
    </g>
  </g>
</svg>
