<svg xmlns="http://www.w3.org/2000/svg" width="160" height="47" viewBox="0 0 160 47">
  <g id="client-wellsfargo" transform="translate(-715 -843)">
    <rect id="Rectangle_328" data-name="Rectangle 328" width="160" height="47" transform="translate(715 843)" fill="#1b202a"/>
    <path id="wellsfargo" d="M104.7,20.479a5.632,5.632,0,0,0-.555-2.637c-.555-.694-1.388-.694-2.775-.694H98.315V20.9h.971c1.527,0,1.8-.416,1.8-2.22h1.249V24.92H101.09c0-2.082-.278-2.637-1.8-2.637h-.971v3.331c0,1.11.139,1.11,1.249,1.11h1.388v1.526H93.319V26.724h.694c.971,0,1.388-.139,1.388-1.11V18.259c0-.971-.416-1.11-1.388-1.11h-.694V15.761h12.767v4.857H104.7Zm28.865,4.163h-1.11c0,1.388,0,2.082-.694,2.082-.416,0-.694-.416-.694-1.11V24.92c-.139-1.8-.555-2.5-2.637-3.192,2.359-.278,3.747-1.388,3.747-3.192,0-2.082-1.527-3.053-4.58-3.053h-8.6v1.388h.833c1.11,0,1.249.139,1.249,1.11v7.355c0,.833-.555,1.11-1.249,1.11h-.833c-.833,0-1.11-.278-1.527-1.11l-4.024-9.853h-3.053l-4.3,9.853c-.416.833-.555,1.11-1.665,1.11h-.555v1.526h6.522V26.447H109c-.555,0-.971,0-.971-.416,0-.278.139-.416.278-.694l.555-1.527h4.718l.555,1.388a1.04,1.04,0,0,1,.139.694c0,.555-.416.555-.971.555h-1.388v1.526h14.155V26.447h-1.11c-1.11,0-1.249,0-1.249-1.11V22.006h1.249c2.082,0,2.775.416,2.914,2.5v1.388c.139,1.8,1.249,2.22,3.053,2.22,1.527,0,2.5-.833,2.5-3.192.139,0,.139-.139.139-.278Zm-24.146-2.082,2.082-4.718,1.943,4.718Zm17.069-1.8-2.637.139V17.01h2.637c1.8,0,2.637.555,2.637,1.943h0C129.122,20.2,128.29,20.757,126.486,20.757ZM144.8,19.508a3.631,3.631,0,0,0-3.886-2.775c-1.943,0-3.608,1.665-3.608,4.857s1.249,4.857,3.608,5c1.665,0,3.192-.833,3.192-2.22v-.694c0-.833-.139-.833-1.388-.833h-.694V21.451H148v1.388h-.555c-.833,0-.971,0-.971.971v4.163h-1.11L144.665,27a6.935,6.935,0,0,1-4.3,1.388,5.691,5.691,0,0,1-4.3-1.943,6.087,6.087,0,0,1-1.943-4.718,5.652,5.652,0,0,1,1.943-4.718,6.9,6.9,0,0,1,4.58-1.665,5.194,5.194,0,0,1,3.886,1.388l.555-1.388h.971v4.3Zm11.379,8.743c-4.163,0-7.355-2.5-7.355-6.522s3.192-6.384,7.355-6.384,7.216,2.5,7.216,6.522c.139,4.024-3.053,6.384-7.216,6.384Zm4.3-6.384c0-4.58-3.053-5-4.3-5-2.359,0-4.3,1.8-4.3,5s1.943,5,4.3,5C157.432,26.863,160.485,26.169,160.485,21.867ZM56.405,25.753c-.416.694-1.249.833-2.775.833H50.577V18.12c0-.971.278-1.11,1.527-1.11h.833V15.483H45.442V17.01h.694c1.11,0,1.8,0,1.8,1.11v7.355c0,.971-.555,1.11-1.665,1.11h-.694v1.388H58.487V23.116H56.96a6.014,6.014,0,0,1-.555,2.637Zm-16.514.833H35.867v-4.3H36.7c1.527,0,1.8.278,1.943,2.359H40.03V18.4H38.642c-.139,1.8-.416,2.359-1.943,2.359h-.833V17.01h3.469c2.5,0,3.331.555,3.469,3.331h1.388V15.483H25.459V17.01h.833c.694,0,.971.139.971.555a2.362,2.362,0,0,1-.139.971l-2.359,6.245h-.139c-1.11-3.192-2.637-6.8-2.637-6.8-.139-.139-.139-.278-.139-.555,0-.416.278-.555.833-.555h.971V15.345H16.994v1.526h.833c.971,0,1.388.555,1.526,1.527l-2.22,6.384h-.139c-1.11-3.331-2.637-6.939-2.637-6.939v-.416c-.139-.416.278-.555.971-.555h.555V15.345H9.5v1.526h.278a1.946,1.946,0,0,1,1.943,1.665l3.747,9.437h2.22l2.775-6.939,2.914,6.939H25.6L29.067,18.4c.555-1.11.694-1.527,1.943-1.527h.139c1.11,0,1.8,0,1.8,1.11v7.355c0,.971-.694,1.11-1.8,1.11h-.694v1.388H44.332V23.116H42.805c-.139,2.5-.555,3.469-2.914,3.469Zm30.391-3.469a5.632,5.632,0,0,1-.555,2.637c-.416.694-1.249.833-2.775.833H64.038V18.12c0-.971.278-1.11,1.388-1.11H66.4V15.483H58.764V17.01H59.6c.971,0,1.527,0,1.527,1.11v7.355c0,.971-.416,1.11-1.527,1.11h-.278v1.388h12.49V23.116ZM84.576,24.5c0,2.914-2.22,3.886-5.551,3.886a7.8,7.8,0,0,1-4.441-1.526l-.555,1.249H72.78v-5h1.527a4.006,4.006,0,0,0,4.3,3.469c2.082.139,3.331-.416,3.469-1.8.278-1.665-1.526-1.527-3.053-1.8l-2.082-.416c-3.053-.694-4.163-1.527-4.163-3.608s2.082-3.747,4.718-3.747a7.472,7.472,0,0,1,4.441,1.249l.694-.971h1.11v4.441H82.356c-.278-2.359-2.775-3.192-4.718-3.192-1.527.139-2.359.833-2.359,1.943,0,.971.833,1.11,2.082,1.388L80,20.479c2.637.416,4.718.971,4.579,4.024Z" transform="translate(709.5 850.277)" fill="#fefefe"/>
  </g>
</svg>
