<svg xmlns="http://www.w3.org/2000/svg" width="160" height="47" viewBox="0 0 160 47">
  <g id="client-intel" transform="translate(73.32 26.418)">
    <rect id="Rectangle_327" data-name="Rectangle 327" width="160" height="47" transform="translate(-73.32 -26.418)" fill="#1b202a"/>
    <g id="Group_1257" data-name="Group 1257" transform="translate(-29.32 -16.418)">
      <rect id="rect4-4" width="5.669" height="5.669" transform="translate(0 0.424)" fill="#fff"/>
      <path id="path6-3" d="M5.906,27.373V8.7H.985V27.355H5.906Zm32.584.184V22.986a11.417,11.417,0,0,1-1.769-.111,2,2,0,0,1-1.161-.516,2.065,2.065,0,0,1-.516-1.124,11.971,11.971,0,0,1-.11-1.806V12.922h3.557V8.7H34.934V1.438H30.013V19.484a16.2,16.2,0,0,0,.387,3.852,5.389,5.389,0,0,0,1.308,2.47,5.263,5.263,0,0,0,2.4,1.346,14.305,14.305,0,0,0,3.741.406Zm28.161-.184V0H61.729V27.373ZM25.275,10.544a7.414,7.414,0,0,0-5.713-2.212,7.148,7.148,0,0,0-3.225.719,6.96,6.96,0,0,0-2.451,1.991l-.258.35V8.7H8.781V27.355h4.884V17.769a5.621,5.621,0,0,1,1.29-3.871,4.224,4.224,0,0,1,3.115-1.327,4.019,4.019,0,0,1,3.225,1.29,5.481,5.481,0,0,1,1.069,3.576h0v.055h0v9.862h4.958V16.774a8.79,8.79,0,0,0-2.046-6.23Zm33.911,7.465a10.277,10.277,0,0,0-.7-3.779,10.117,10.117,0,0,0-1.972-3.078,8.986,8.986,0,0,0-3.041-2.065,9.97,9.97,0,0,0-3.907-.737,9.693,9.693,0,0,0-3.8.756,9.923,9.923,0,0,0-3.078,2.065,9.613,9.613,0,0,0-2.064,3.078,9.373,9.373,0,0,0-.756,3.8,10.015,10.015,0,0,0,.719,3.8A9.475,9.475,0,0,0,42.6,24.921a9.2,9.2,0,0,0,3.115,2.064,10.177,10.177,0,0,0,4,.774,10.564,10.564,0,0,0,8.294-3.668L54.468,21.4a6.454,6.454,0,0,1-4.718,2.083,5.558,5.558,0,0,1-3.391-.958,4.733,4.733,0,0,1-1.769-2.6l-.055-.166H59.187ZM44.571,16.295c0-1.364,1.566-3.742,4.939-3.76,3.373,0,4.958,2.378,4.958,3.742Zm27.682,8.719a1.826,1.826,0,0,0-.958-.958,1.834,1.834,0,0,0-.7-.147,1.762,1.762,0,0,0-.7.147,1.827,1.827,0,0,0-.958.958,1.856,1.856,0,0,0-.148.7,1.752,1.752,0,0,0,.148.7,1.721,1.721,0,0,0,.387.571,1.74,1.74,0,0,0,.571.387,1.835,1.835,0,0,0,.7.148,1.763,1.763,0,0,0,.7-.148,1.826,1.826,0,0,0,.958-.958,1.856,1.856,0,0,0,.148-.7A1.826,1.826,0,0,0,72.253,25.014Zm-.295,1.29a1.4,1.4,0,0,1-.793.793,1.528,1.528,0,0,1-.589.111,1.6,1.6,0,0,1-.59-.111,1.4,1.4,0,0,1-.792-.793,1.531,1.531,0,0,1-.11-.59,1.6,1.6,0,0,1,.11-.59,1.4,1.4,0,0,1,.792-.793,1.526,1.526,0,0,1,.59-.111,1.6,1.6,0,0,1,.589.111,1.442,1.442,0,0,1,.479.313,1.468,1.468,0,0,1,.313.479,1.641,1.641,0,0,1,0,1.18Zm-1.032-.424a.571.571,0,0,0,.35-.166.548.548,0,0,0,.148-.405.559.559,0,0,0-.184-.461.792.792,0,0,0-.553-.166h-.811v2.083h.387v-.848h.277l.516.848h.405Zm-.2-.313h-.461v-.59h.461a.542.542,0,0,1,.166.037.188.188,0,0,1,.11.092c.036.037.036.092.036.166a.384.384,0,0,1-.036.166.483.483,0,0,1-.11.092.531.531,0,0,1-.166.037Z" transform="translate(-0.843)" fill="#fff"/>
    </g>
  </g>
</svg>
