<svg xmlns="http://www.w3.org/2000/svg" width="160" height="47" viewBox="0 0 160 47">
  <g id="client-anthem" transform="translate(-376 -843)">
    <rect id="Rectangle_326" data-name="Rectangle 326" width="160" height="47" transform="translate(376 843)" fill="#1b202a"/>
    <g id="Group_1255" data-name="Group 1255" transform="translate(396 853)">
      <path id="Fill-4" d="M445,70.354h-5.822V68.712a3.57,3.57,0,0,1,.9-2.554,2.806,2.806,0,0,1,2.007-.8c1.874,0,2.919,1.194,2.919,3.367Zm2.14-4.362a7.477,7.477,0,0,0-5.026-1.692,6.831,6.831,0,0,0-4.976,2.289,8.743,8.743,0,0,0-2.239,5.988,8.1,8.1,0,0,0,2.322,5.838,7.483,7.483,0,0,0,5.374,2.223,6.45,6.45,0,0,0,6.518-5.606l.017-.133H447.92l-.017.116a5.112,5.112,0,0,1-5.042,4.495c-2.322,0-3.649-1.592-3.649-4.346V71.5h10.134v-.133A7.127,7.127,0,0,0,447.14,65.992Z" transform="translate(-362.767 -53.408)" fill="#fff" fill-rule="evenodd"/>
      <path id="Fill-6" d="M260.045,55.433H258.9l-.017.1a2.084,2.084,0,0,1-2.057,1.924c-1.144,0-1.725-.8-1.725-2.372V44.122h3.748V43.06h-3.715V38.3l-.133.017c-.879.1-2.67.232-3.6.232h-.116v4.495H248.8v1.078h2.5v9.537c0,3.516,1.509,5.291,4.478,5.291a4.005,4.005,0,0,0,4.263-3.384v-.133" transform="translate(-207.534 -31.721)" fill="#fff" fill-rule="evenodd"/>
      <path id="Fill-7" d="M10.018,7.955l3.6,10.443H6.634ZM38.994,26.819V16.983a4.906,4.906,0,0,0-5.142-5.2,5.812,5.812,0,0,0-4.876,2.459l-.033-1.886v-.118h-6.12v1.078h2.4V26.836H20.948L12.158,1.184,12.124,1.1H11.046L2.422,26.836H0v1.078H7.182V26.836H3.865l2.388-7.327h7.7l2.438,7.327h-3.35v1.078H31.381V26.836H28.992V19.324c0-4.48,2.355-6.114,3.947-6.114,1.526,0,2.305,1.011,2.305,3V26.853H33.006v1.078h8.442V26.853H38.994Z" transform="translate(0 -1.1)" fill="#fff" fill-rule="evenodd"/>
      <path id="Fill-8" d="M331.834,27.153V17.148c0-2.341-1.393-5.053-5.341-5.053a6.7,6.7,0,0,0-5.308,2.274V1.5h-6.1V2.612h2.289V27.153H314.9v1.078h8.658V27.153h-2.372V19.54a6.552,6.552,0,0,1,1.625-4.834,3.651,3.651,0,0,1,2.587-1.129c2.106,0,2.554,1.752,2.554,3.217V27.153h-2.372v1.078h8.674V27.153h-2.422" transform="translate(-262.671 -1.434)" fill="#fff" fill-rule="evenodd"/>
      <path id="Fill-9" d="M552.831,79.228h-2.355V68.8c0-2.7-1.858-4.4-4.843-4.4a6.094,6.094,0,0,0-5.059,2.339,4.572,4.572,0,0,0-4.412-2.339,6.755,6.755,0,0,0-5.009,2.04l-.033-1.493v-.116H524.9v1.062h2.554V79.228h-2.5v1.062h8.475V79.228h-2.173V71.864c.066-2.14.166-3.516.929-4.578a3.531,3.531,0,0,1,2.753-1.426,1.878,1.878,0,0,1,1.775,1.078,6.75,6.75,0,0,1,.315,2.687v9.62h-2.256v1.062h8.326V79.244h-2.173V71.88c.066-2.14.166-3.516.945-4.578a3.525,3.525,0,0,1,2.737-1.426,1.878,1.878,0,0,1,1.775,1.078,6.433,6.433,0,0,1,.332,2.687v9.62h-2.239v1.062h8.475V79.261h-.116" transform="translate(-437.84 -53.492)" fill="#fff" fill-rule="evenodd"/>
      <path id="Fill-10" d="M701.541,138.024c.315,0,.763.05.763-.381,0-.315-.265-.365-.531-.365h-.614v.73h.381Zm-.415,1.261h-.282v-2.272h.979c.6,0,.8.216.8.63,0,.431-.3.6-.7.63l.68,1.012h-.332l-.63-1.012h-.481v1.012Zm2.123-1.111a1.667,1.667,0,1,0-1.659,1.675A1.626,1.626,0,0,0,703.249,138.174Zm-3.649,0a1.982,1.982,0,1,1,1.99,1.99A1.993,1.993,0,0,1,699.6,138.174Z" transform="translate(-583.564 -113.383)" fill="#fff" fill-rule="evenodd"/>
    </g>
  </g>
</svg>
