<svg xmlns="http://www.w3.org/2000/svg" width="160" height="47" viewBox="0 0 160 47">
  <g id="client-unitedhealth" transform="translate(-207 -1011)">
    <g id="client-pfizer" transform="translate(207 1011)">
      <path id="Path_14397" data-name="Path 14397" d="M0,0H160V47H0Z" fill="#1b202a"/>
    </g>
    <g id="layer1" transform="translate(207 1029)">
      <g id="g1466">
        <path id="path1054" d="M169.538,6.267c1.232,0,1.724-.534,1.724-1.555,0-1.081-.571-1.585-1.7-1.585h-1.64v7.925a.464.464,0,0,1-.47.451h-1.012a.465.465,0,0,1-.468-.451V2.485a.475.475,0,0,1,.468-.464h3.32c2.037,0,3.3.887,3.3,2.691a2.364,2.364,0,0,1-2.022,2.378l2.137,3.839a.565.565,0,0,1,.085.259.3.3,0,0,1-.27.315h-1.24a.444.444,0,0,1-.37-.26l-2.284-4.278a1.02,1.02,0,0,1-.16-.441c0-.143.074-.257.336-.257Z" transform="translate(-45.642 -0.616)" fill="#fff"/>
        <path id="path1058" d="M182.291,2.8c-2.047,0-2.4,1.767-2.4,3.876,0,2.129.374,3.877,2.371,3.877,1.959,0,2.429-1.675,2.429-3.877,0-2.109-.383-3.876-2.4-3.876m0,8.818c-1.906,0-4.338-.629-4.338-4.942,0-4.285,2.414-4.942,4.338-4.942s4.337.656,4.337,4.942c0,4.231-2.36,4.942-4.337,4.942" transform="translate(-48.936 -0.528)" fill="#fff"/>
        <path id="path1062" d="M196.224,11.7c-2.651,0-3.734-1.434-3.734-3.17V2.485a.475.475,0,0,1,.469-.464h1a.476.476,0,0,1,.473.464V8.643c0,1.57.787,2,1.886,2,1.447,0,1.888-.818,1.888-2V2.485a.475.475,0,0,1,.469-.464h.813a.476.476,0,0,1,.471.464V8.534c0,2.008-1.314,3.17-3.732,3.17" transform="translate(-52.933 -0.616)" fill="#fff"/>
        <path id="path1066" d="M208.8,6.762h.489a1.6,1.6,0,0,0,1.782-1.775,1.628,1.628,0,0,0-1.83-1.871h-1.532v7.938a.441.441,0,0,1-.441.451h-.985a.464.464,0,0,1-.468-.451V2.486a.474.474,0,0,1,.468-.465h3.561a2.756,2.756,0,0,1,3.035,2.965c0,1.667-1.019,2.789-3.039,2.789a6.807,6.807,0,0,1-1-.074c-.407-.066-.592-.28-.592-.5s.183-.44.548-.44" transform="translate(-56.599 -0.616)" fill="#fff"/>
        <path id="path1070" d="M141.369,11.5h-.94a.472.472,0,0,1-.485-.465V7.258h-3.815v3.78a.471.471,0,0,1-.485.465h-.94a.472.472,0,0,1-.484-.465V2.485a.476.476,0,0,1,.471-.464h.968a.476.476,0,0,1,.471.464V5.923h3.815V2.485a.477.477,0,0,1,.471-.464h.969a.477.477,0,0,1,.472.464v8.554a.472.472,0,0,1-.486.465" transform="translate(-36.909 -0.616)" fill="#fff"/>
        <path id="path1074" d="M4.115,11.123C1.082,11.123,0,9.484,0,7.536V.764A.549.549,0,0,1,.539.233H1.4a.55.55,0,0,1,.539.531V7.729A1.965,1.965,0,0,0,4.158,9.965c1.6,0,2.223-.781,2.223-2.236V.764A.55.55,0,0,1,6.919.233h.754a.548.548,0,0,1,.537.531V7.536c0,2.253-1.428,3.588-4.1,3.588" transform="translate(0 -0.071)" fill="#fff"/>
        <path id="path1078" d="M62.4,3.12H60.705V10.4H62.4c2.23,0,2.773-1.624,2.773-3.588s-.524-3.7-2.773-3.7m.454,8.383H59.284a.473.473,0,0,1-.471-.458V2.493a.484.484,0,0,1,.471-.472h3.568c2.348,0,4.211,1.208,4.211,4.8,0,3.642-2.005,4.687-4.211,4.687" transform="translate(-16.173 -0.616)" fill="#fff"/>
        <path id="path1082" d="M81.236,10.992h-.845a.528.528,0,0,1-.545-.52V6.14H75.311v4.332a.528.528,0,0,1-.546.52h-.845a.526.526,0,0,1-.542-.52V.858A.534.534,0,0,1,73.9.336h.879a.536.536,0,0,1,.528.522V4.774h4.536V.858a.537.537,0,0,1,.53-.522h.876a.537.537,0,0,1,.529.522v9.613a.529.529,0,0,1-.544.52" transform="translate(-20.178 -0.102)" fill="#fff"/>
        <path id="path1086" d="M118.894,11.505H114.12a.472.472,0,0,1-.484-.467V2.485a.476.476,0,0,1,.471-.463h1a.476.476,0,0,1,.471.463v7.682h3.319a.477.477,0,0,1,.47.465v.421a.465.465,0,0,1-.47.453" transform="translate(-31.249 -0.616)" fill="#fff"/>
        <path id="path1090" d="M31.321,11.505h-.966a.478.478,0,0,1-.484-.473V2.493a.483.483,0,0,1,.471-.471h.993a.482.482,0,0,1,.47.471v8.539a.478.478,0,0,1-.484.473" transform="translate(-8.214 -0.616)" fill="#fff"/>
        <path id="path1094" d="M41.864,3.36H39.618v7.673a.479.479,0,0,1-.484.473h-.968a.479.479,0,0,1-.484-.473V3.36H35.419a.463.463,0,0,1-.47-.449V2.488a.478.478,0,0,1,.47-.466h6.445a.477.477,0,0,1,.469.466v.423a.462.462,0,0,1-.469.449" transform="translate(-9.611 -0.616)" fill="#fff"/>
        <path id="path1098" d="M128.4,3.36H126v7.673a.478.478,0,0,1-.483.473h-.967a.479.479,0,0,1-.484-.473V3.36H121.65a.463.463,0,0,1-.47-.449V2.488a.478.478,0,0,1,.47-.466H128.4a.477.477,0,0,1,.468.466v.423a.461.461,0,0,1-.468.449" transform="translate(-33.323 -0.616)" fill="#fff"/>
        <path id="path1102" d="M53.5,11.505H47.927a.427.427,0,0,1-.469-.4V2.488a.477.477,0,0,1,.469-.466H53.3a.478.478,0,0,1,.471.466v.378a.463.463,0,0,1-.471.449h-3.91V5.943H52.9a.477.477,0,0,1,.47.465v.378a.466.466,0,0,1-.47.451H49.392v2.971l4.111,0a.474.474,0,0,1,.469.462V11.1a.427.427,0,0,1-.469.4" transform="translate(-13.051 -0.616)" fill="#fff"/>
        <path id="path1106" d="M94.577,11.505H89a.43.43,0,0,1-.472-.4V2.488A.481.481,0,0,1,89,2.022h5.374a.478.478,0,0,1,.469.466v.378a.463.463,0,0,1-.469.449h-3.91V5.943h3.512a.476.476,0,0,1,.47.465v.378a.465.465,0,0,1-.47.451H90.466v2.971l4.111,0a.475.475,0,0,1,.468.462V11.1a.427.427,0,0,1-.468.4" transform="translate(-24.345 -0.616)" fill="#fff"/>
        <path id="path1110" d="M22.325,11.505h-1.46a.763.763,0,0,1-.779-.446c-.725-1.476-3.532-7.516-3.532-7.516v7.5a.473.473,0,0,1-.47.459h-.655a.472.472,0,0,1-.47-.459V2.478a.468.468,0,0,1,.47-.456h1.427a.8.8,0,0,1,.824.443C18.435,4.048,21.2,9.939,21.2,9.939V2.478a.47.47,0,0,1,.471-.456h.657a.47.47,0,0,1,.47.456v8.568a.473.473,0,0,1-.47.459" transform="translate(-4.114 -0.616)" fill="#fff"/>
        <path id="path1114" d="M159.192,10.581a7.007,7.007,0,0,1-3.042.543c-2.787,0-5.283-1.123-5.283-5.563C150.867,2.077,152.4,0,156.15,0a7.083,7.083,0,0,1,2.908.532c.343.14.366.208.366.361,0,.073-.043.3-.053.355-.057.271-.135.713-.179.951-.024.131-.043.314-.253.314-.173,0-.321-.192-.415-.284a3.377,3.377,0,0,0-2.374-.969c-2.656,0-3.107,2.444-3.107,4.3,0,2.564.867,4.3,3.107,4.3a5.123,5.123,0,0,0,1.442-.169V6.179c0-.213.13-.28.359-.28h1.229c.259,0,.349.1.349.3v3.844c0,.365-.023.407-.336.54" transform="translate(-41.487)" fill="#fff"/>
        <path id="path1118" d="M102.147,8.125l1.472-4.7,1.387,4.7Zm5.777,2.778-2.84-8.445a.664.664,0,0,0-.7-.437h-1.256a.623.623,0,0,0-.667.437l-2.833,8.5a.628.628,0,0,0-.059.22.341.341,0,0,0,.343.328h.639a.665.665,0,0,0,.687-.439L101.8,9.29h3.6l.584,1.775a.647.647,0,0,0,.706.439h.929a.329.329,0,0,0,.356-.343.893.893,0,0,0-.055-.259" transform="translate(-27.382 -0.616)" fill="#fff"/>
        <path id="path1122" d="M217.915,2.984h.324c.209,0,.342-.042.342-.25,0-.182-.168-.234-.342-.234h-.324Zm-.27-.688h.637c.383,0,.572.147.572.449a.415.415,0,0,1-.43.442l.473.707h-.288l-.465-.707h-.229v.707h-.27Zm.547,1.961a1.132,1.132,0,0,0,1.146-1.16,1.15,1.15,0,1,0-2.3,0,1.133,1.133,0,0,0,1.154,1.16m-.005-2.524A1.4,1.4,0,0,1,219.609,3.1a1.423,1.423,0,0,1-2.843,0,1.4,1.4,0,0,1,1.421-1.364" transform="translate(-59.609 -0.528)" fill="#fff"/>
      </g>
    </g>
  </g>
</svg>
