<svg xmlns="http://www.w3.org/2000/svg" width="160" height="47" viewBox="0 0 160 47">
  <g id="client-unitedairlines" transform="translate(-207 -1010.5)">
    <path id="Path_14397" data-name="Path 14397" d="M0,0H160V47H0Z" transform="translate(207 1010.5)" fill="#1b202a"/>
    <g id="United_Airlines" data-name="United Airlines" transform="translate(222 1016.5)">
      <g id="Group_1271" data-name="Group 1271" transform="translate(0 0)">
        <g id="Group_1270" data-name="Group 1270">
          <path id="Path_14417" data-name="Path 14417" d="M51.885,22.552v-1.69a8.417,8.417,0,0,1-2.039,1.59,4.64,4.64,0,0,1-2.071.428,4.411,4.411,0,0,1-3.19-1.141A4.051,4.051,0,0,1,43.4,18.675V12.039a1.777,1.777,0,0,0-.315-1.2,2.654,2.654,0,0,0-1.3-.575v-.37h6.049v.37a2.584,2.584,0,0,0-1.294.575,1.963,1.963,0,0,0-.325,1.305v7.079a2.509,2.509,0,0,0,.639,1.822,2.325,2.325,0,0,0,1.756.66,4.767,4.767,0,0,0,3.28-1.754V12.039a1.776,1.776,0,0,0-.309-1.194,2.714,2.714,0,0,0-1.31-.581v-.37H56.3v.37a2.368,2.368,0,0,0-1.259.555,2.26,2.26,0,0,0-.339,1.473v8.115A1.788,1.788,0,0,0,55,21.6a2.676,2.676,0,0,0,1.291.582v.37Z" transform="translate(-29.789 -7.054)" fill="#fff"/>
          <path id="Path_14418" data-name="Path 14418" d="M102.351,20.2v2.288h.048a4.015,4.015,0,0,1,3.546-2.288,3.186,3.186,0,0,1,2.324.926,3.308,3.308,0,0,1,.944,2.474V27.69a1.89,1.89,0,0,0,.314,1.24,2.246,2.246,0,0,0,1.15.562v.424h-5.748v-.424a2.121,2.121,0,0,0,1.149-.55,1.666,1.666,0,0,0,.327-1.131V23.938a2.62,2.62,0,0,0-.454-1.639,1.518,1.518,0,0,0-1.276-.588,2.626,2.626,0,0,0-2.324,1.634v4.369a1.881,1.881,0,0,0,.29,1.186,2.261,2.261,0,0,0,1.09.592v.424H98.08v-.424a2.3,2.3,0,0,0,1.143-.556,1.515,1.515,0,0,0,.321-1.053V22.656a1.579,1.579,0,0,0-.369-1.162,2.352,2.352,0,0,0-1.314-.5v-.424l4.067-.375Z" transform="translate(-69.774 -14.402)" fill="#fff"/>
          <path id="Path_14419" data-name="Path 14419" d="M151.707,5.8h.424v7.709a1.479,1.479,0,0,0,1.513,1.585v.424h-5.881v-.424a2.253,2.253,0,0,0,1.252-.532,1.91,1.91,0,0,0,.309-1.246V8.327a1.717,1.717,0,0,0-.326-1.2,2.65,2.65,0,0,0-1.356-.533V6.172Zm-2.6-4.188a1.539,1.539,0,0,1,.478-1.137A1.586,1.586,0,0,1,150.739,0a1.563,1.563,0,0,1,1.138.466,1.547,1.547,0,0,1,.471,1.143,1.587,1.587,0,0,1-.471,1.156,1.54,1.54,0,0,1-1.138.478,1.562,1.562,0,0,1-1.155-.484A1.579,1.579,0,0,1,149.105,1.61Z" transform="translate(-105.267 0)" fill="#fff"/>
          <path id="Path_14420" data-name="Path 14420" d="M180.386,20.3l.29.279a3.251,3.251,0,0,1-3,1.658,3.3,3.3,0,0,1-2.335-.775,2.854,2.854,0,0,1-.836-2.2v-6h-1.682v-.471A16.284,16.284,0,0,0,176.84,8.9h.472v3.618h3.074v.738h-3.074V18.64a3.2,3.2,0,0,0,.405,1.833,1.492,1.492,0,0,0,1.3.563A1.8,1.8,0,0,0,180.386,20.3Z" transform="translate(-123.222 -6.344)" fill="#fff"/>
          <path id="Path_14421" data-name="Path 14421" d="M214.125,27.037h.424a5.114,5.114,0,0,1-1.972,2.383,5.437,5.437,0,0,1-3.026.872,5.018,5.018,0,0,1-3.65-1.423,4.772,4.772,0,0,1-1.458-3.563,4.892,4.892,0,0,1,1.494-3.642,5.09,5.09,0,0,1,3.71-1.465,4.9,4.9,0,0,1,3.323,1.144,4.709,4.709,0,0,1,1.579,3.068h-7.08c-.008.129-.012.258-.012.388a4.763,4.763,0,0,0,.955,3.085,2.922,2.922,0,0,0,2.367,1.186A3.91,3.91,0,0,0,214.125,27.037Zm-6.668-3.2h4.079a4.134,4.134,0,0,0-.668-2.147,1.71,1.71,0,0,0-1.432-.829,1.6,1.6,0,0,0-1.384.81A4.235,4.235,0,0,0,207.457,23.841Z" transform="translate(-145.767 -14.402)" fill="#fff"/>
          <path id="Path_14422" data-name="Path 14422" d="M256.238,0h.425V12.961A2.489,2.489,0,0,0,257,14.5a2.759,2.759,0,0,0,1.532.586v.424h-7a6.752,6.752,0,0,1-4.417-1.283,4.326,4.326,0,0,1-1.549-3.522,4.786,4.786,0,0,1,1.372-3.546A4.852,4.852,0,0,1,250.516,5.8a5.936,5.936,0,0,1,3.351.944V2.457a1.58,1.58,0,0,0-.513-1.343,3.255,3.255,0,0,0-1.8-.424V.266Zm-2.371,12.817V7.976a3.131,3.131,0,0,0-2.626-1.512,2.131,2.131,0,0,0-1.881,1.095,5.483,5.483,0,0,0-.7,2.971,4.869,4.869,0,0,0,.992,3.244,3.156,3.156,0,0,0,2.518,1.174,1.594,1.594,0,0,0,1.317-.472A2.737,2.737,0,0,0,253.867,12.817Z" transform="translate(-175.087)" fill="#fff"/>
          <path id="Path_14423" data-name="Path 14423" d="M8.379,86.709v-.386a3.491,3.491,0,0,0,1.189-.379.715.715,0,0,0,.347-.633A3.176,3.176,0,0,0,9.652,84.3L8.861,82.27H3.98L3.3,84.021A3.192,3.192,0,0,0,3.046,85.1q0,.872,1.373,1.223v.386H0v-.386a2.329,2.329,0,0,0,1.392-.8A7.438,7.438,0,0,0,2.57,83.328L6.5,73.173H8.371l4.16,10.561a6.2,6.2,0,0,0,1.12,1.966,2.161,2.161,0,0,0,1.431.622v.386ZM4.418,81.323H8.492L6.41,75.97Z" transform="translate(0 -52.172)" fill="#fff"/>
          <path id="Path_14424" data-name="Path 14424" d="M57.84,72.034h.424v7.707a1.478,1.478,0,0,0,1.513,1.586v.424H53.894v-.424a2.249,2.249,0,0,0,1.252-.532,1.908,1.908,0,0,0,.309-1.246V74.562a1.714,1.714,0,0,0-.327-1.2,2.639,2.639,0,0,0-1.356-.534v-.424Zm-2.6-4.189a1.537,1.537,0,0,1,.477-1.137,1.582,1.582,0,0,1,1.156-.472,1.559,1.559,0,0,1,1.137.466,1.541,1.541,0,0,1,.472,1.143A1.578,1.578,0,0,1,58.008,69a1.538,1.538,0,0,1-1.137.478,1.641,1.641,0,0,1-1.633-1.634Z" transform="translate(-38.34 -47.227)" fill="#fff"/>
          <path id="Path_14425" data-name="Path 14425" d="M85.9,86.435v2.977h.049q1.33-2.979,3.1-2.977a2.126,2.126,0,0,1,1.659.792l-.618,2.826a3.517,3.517,0,0,0-2.106-1.21,1.973,1.973,0,0,0-1.077.29A4.021,4.021,0,0,0,85.9,90.175V94a1.779,1.779,0,0,0,.315,1.221,2.452,2.452,0,0,0,1.271.507v.424H81.532v-.424a2.479,2.479,0,0,0,1.24-.568A1.7,1.7,0,0,0,83.093,94V89.06a1.878,1.878,0,0,0-.4-1.318,1.93,1.93,0,0,0-1.3-.509v-.424l4.091-.374Z" transform="translate(-58.028 -61.628)" fill="#fff"/>
          <path id="Path_14426" data-name="Path 14426" d="M113.61,85.171v-.386a2.567,2.567,0,0,0,1.38-.5,1.59,1.59,0,0,0,.375-1.185V73.362a1.752,1.752,0,0,0-.381-1.285,2.118,2.118,0,0,0-1.374-.414v-.385l4.138-.243h.424V83.1a1.668,1.668,0,0,0,.308,1.164,2.811,2.811,0,0,0,1.35.522v.386Z" transform="translate(-81.003 -50.647)" fill="#fff"/>
          <g id="Group_1260" data-name="Group 1260" transform="translate(90.818 5.51)">
            <path id="Path_14427" data-name="Path 14427" d="M316.437,19.207a4.462,4.462,0,0,1,4.916,3.512c1,3.978-1.225,7.871-4.916,10.376l.005-1.416a7.488,7.488,0,0,0,1.844-1.654,6.421,6.421,0,0,0-1.855-.28v-1.8a13.218,13.218,0,0,1,3.075.3,4.429,4.429,0,0,0,.684-1.636,15.432,15.432,0,0,0-3.759.02V25.378a15.808,15.808,0,0,1,4.091-.394,3.142,3.142,0,0,0-.079-1.342,15.534,15.534,0,0,0-4.005.477V23.1a16.268,16.268,0,0,1,3.8-.794,2.129,2.129,0,0,0-.564-1.027,17.382,17.382,0,0,0-3.235.685v-.958a9.048,9.048,0,0,1,2.36-.588,4.682,4.682,0,0,0-2.355-.476l-.005-.735Z" transform="translate(-316.431 -19.2)" fill="#fff"/>
          </g>
          <g id="Group_1261" data-name="Group 1261" transform="translate(90.825 4.83)">
            <path id="Path_14428" data-name="Path 14428" d="M318.9,17.1c6.673-1.232,9.692,1.717,7.88,8.912-1.674,5.911-5.221,9.886-10.315,12.931v-3.11a5.2,5.2,0,0,1,.939,1.155,6.732,6.732,0,0,0,1.724-1.252,13.507,13.507,0,0,0-2.663-2.506c-.005.007-.005-.382,0-.4a9.048,9.048,0,0,0,2.418-1.944,11.459,11.459,0,0,1,2.925,2.254,9.426,9.426,0,0,0,1.628-2.284,10.821,10.821,0,0,0-2.957-1.7,7.089,7.089,0,0,0,1.309-2.118,13.82,13.82,0,0,1,3.089,1.054,8.457,8.457,0,0,0,.8-2.341,14.654,14.654,0,0,0-3.168-.66,7.085,7.085,0,0,0,.2-1.829,16.5,16.5,0,0,1,3.413.323,4.385,4.385,0,0,0,.058-1.629A18.491,18.491,0,0,0,322.6,21.8a4.062,4.062,0,0,0-.319-1.409,16.585,16.585,0,0,1,3.56-.039,2.625,2.625,0,0,0-.778-1.3,15.584,15.584,0,0,0-3.26.183,2.761,2.761,0,0,0-.835-.953,9.745,9.745,0,0,1,2.666-.284,5.885,5.885,0,0,0-3.392-.362A4.141,4.141,0,0,0,318.9,17.1Z" transform="translate(-316.456 -16.828)" fill="#fff"/>
          </g>
          <g id="Group_1262" data-name="Group 1262" transform="translate(90.835 2.023)">
            <path id="Path_14429" data-name="Path 14429" d="M316.491,9.728c4.644-1.475,13.89-.638,19.253,4.186a21.834,21.834,0,0,1,7.709,15.723,20.746,20.746,0,0,1-1.876,9.893h7.463V7.049H316.491V9.728Z" transform="translate(-316.491 -7.049)" fill="#fff"/>
          </g>
          <g id="Group_1263" data-name="Group 1263" transform="translate(90.818 5.59)">
            <path id="Path_14430" data-name="Path 14430" d="M330.394,23.019a7.349,7.349,0,0,0-2.285-.58,6.323,6.323,0,0,1,.225,1.6,12.438,12.438,0,0,1,2.685.745,6.3,6.3,0,0,1,.252,2.154,11.136,11.136,0,0,0-3.009-1.118,10.1,10.1,0,0,1-.411,2.331,13.549,13.549,0,0,1,3.092,1.529,9.536,9.536,0,0,1-.957,3.026,14.258,14.258,0,0,0-3.128-1.963,12.615,12.615,0,0,1-1.63,3.2,13.852,13.852,0,0,1,2.72,2.364,9.422,9.422,0,0,1-2.109,2.624,11.672,11.672,0,0,0-2.235-2.753,11.462,11.462,0,0,1-3.016,3.068,14.158,14.158,0,0,1,1.987,2.663,10.389,10.389,0,0,1-2.427,1.73,11.849,11.849,0,0,0-1.39-2.917,9.306,9.306,0,0,1-2.325,1.487v4.548c5.947-2.149,13.665-8.306,15.5-16.641.892-4.056-.007-6.511-.85-7.848-1.383-2.2-3.914-2.627-5.058-2.791a4.638,4.638,0,0,1,1.516,1.41,3.635,3.635,0,0,1,2.858,2.131Z" transform="translate(-316.431 -19.478)" fill="#fff"/>
          </g>
          <g id="Group_1264" data-name="Group 1264" transform="translate(90.82 7.524)">
            <path id="Path_14431" data-name="Path 14431" d="M316.44,53.178V52.79a16.055,16.055,0,0,0,5.021-2.576,13.735,13.735,0,0,1,.754,2.81,11.028,11.028,0,0,0,2.557-2.019,9.641,9.641,0,0,0-1.043-2.2,20,20,0,0,0,3.717-3.491,10.9,10.9,0,0,1,1.065,2.381,14.14,14.14,0,0,0,2.608-3.065,8.882,8.882,0,0,0-1.544-1.975,13.731,13.731,0,0,0,2.187-3.978,7.259,7.259,0,0,1,1.76,1.821,11.84,11.84,0,0,0,1.264-3.806,5.885,5.885,0,0,0-1.839-1.38,10.1,10.1,0,0,0,.4-2.9,6.408,6.408,0,0,1,1.784,1.263,7.021,7.021,0,0,0-.214-2.564,5.009,5.009,0,0,0-1.711-1.019,5.44,5.44,0,0,0-.466-1.648,5.171,5.171,0,0,1,1.558.863,3.69,3.69,0,0,0-1.88-1.789,6.488,6.488,0,0,0-.95-1.3,6.182,6.182,0,0,1,4.479,4.987,17.546,17.546,0,0,1-2.018,11.088c-2.278,4.4-5.08,6.942-9.949,10.887Z" transform="translate(-316.44 -26.215)" fill="#fff"/>
          </g>
          <g id="Group_1265" data-name="Group 1265" transform="translate(100.123 11.511)">
            <path id="Path_14432" data-name="Path 14432" d="M348.852,63.092a15.77,15.77,0,0,0,4.007-3.57,10.735,10.735,0,0,1,.537,2.311,17.756,17.756,0,0,0,3.019-3.464,6.934,6.934,0,0,0-.853-1.8,11.861,11.861,0,0,0,2.557-4.374,5.257,5.257,0,0,1,1.067,1.754,15.024,15.024,0,0,0,1.644-4.573,5.48,5.48,0,0,0-1.074-1.506,9.934,9.934,0,0,0,.46-3.222,6.411,6.411,0,0,1,1.2,1.506c-.01-1.8-.187-2.959-1.267-3.921a6.1,6.1,0,0,0-.512-2.122c1.592,1.349,3,3.146,2.6,7.157-.608,6.051-4.174,11.815-8.382,15.827Z" transform="translate(-348.852 -40.108)" fill="#fff"/>
          </g>
          <g id="Group_1266" data-name="Group 1266" transform="translate(111.729 22.566)">
            <path id="Path_14433" data-name="Path 14433" d="M389.292,90.564A7.664,7.664,0,0,0,391.13,87.9a5.424,5.424,0,0,1,.336,1.8,14.946,14.946,0,0,0,1.651-6.371,20.438,20.438,0,0,0,.849-4.7,19.86,19.86,0,0,1-1.8,11.938Z" transform="translate(-389.292 -78.626)" fill="#fff"/>
          </g>
          <g id="Group_1267" data-name="Group 1267" transform="translate(108.574 15.85)">
            <path id="Path_14434" data-name="Path 14434" d="M384.59,59.717A3.629,3.629,0,0,0,384.1,57.4a14.258,14.258,0,0,0-.2-2.172c.943,1.284,1.734,2.725,1.43,6.11-.528,4.579-1.907,9.18-5.425,12.544l-1.361,0a7.338,7.338,0,0,0-.245-2.094,15.673,15.673,0,0,0,3.259-5.21,6.663,6.663,0,0,1,.66,2.351,17.34,17.34,0,0,0,1.818-5.668,4.328,4.328,0,0,0-.615-1.4,11.374,11.374,0,0,0,.6-3.165,3.782,3.782,0,0,1,.569,1.016Z" transform="translate(-378.298 -55.227)" fill="#fff"/>
          </g>
          <g id="Group_1269" data-name="Group 1269" transform="translate(125.277 29.893)">
            <g id="Group_1268" data-name="Group 1268">
              <path id="Path_14435" data-name="Path 14435" d="M436.5,106.334a2.192,2.192,0,1,1,2.194,2.18,2.174,2.174,0,0,1-2.194-2.18Zm4.053,0a1.857,1.857,0,1,0-1.859,1.847,1.859,1.859,0,0,0,1.859-1.847Zm-.819,1.182h-.4l-.715-1.1h-.4v1.1h-.335v-2.388h1.037c.434,0,.852.116.852.632,0,.471-.331.641-.755.653l.721,1.1Zm-1.119-1.44c.3,0,.819.06.819-.32,0-.249-.328-.294-.583-.294h-.637v.614Z" transform="translate(-436.497 -104.154)" fill="#fff"/>
            </g>
          </g>
          <path id="Path_14436" data-name="Path 14436" d="M143.313,72.034h.424v7.707a1.478,1.478,0,0,0,1.513,1.586v.424h-5.882v-.424a2.245,2.245,0,0,0,1.252-.532,1.9,1.9,0,0,0,.309-1.246V74.562a1.715,1.715,0,0,0-.326-1.2,2.639,2.639,0,0,0-1.355-.534v-.424Zm-2.6-4.189a1.538,1.538,0,0,1,.478-1.137,1.58,1.58,0,0,1,1.156-.472,1.6,1.6,0,0,1,1.609,1.608A1.582,1.582,0,0,1,143.482,69a1.539,1.539,0,0,1-1.137.478A1.56,1.56,0,0,1,141.19,69,1.576,1.576,0,0,1,140.712,67.845Z" transform="translate(-99.282 -47.227)" fill="#fff"/>
          <path id="Path_14437" data-name="Path 14437" d="M171.517,86.435v2.287h.047a4.015,4.015,0,0,1,3.547-2.287,3.19,3.19,0,0,1,2.324.926,3.31,3.31,0,0,1,.943,2.474v4.092a1.892,1.892,0,0,0,.315,1.24,2.228,2.228,0,0,0,1.15.562v.424h-5.748v-.424a2.135,2.135,0,0,0,1.149-.549,1.674,1.674,0,0,0,.327-1.132V90.175a2.632,2.632,0,0,0-.453-1.641,1.524,1.524,0,0,0-1.278-.586,2.626,2.626,0,0,0-2.322,1.633v4.369a1.884,1.884,0,0,0,.29,1.187,2.256,2.256,0,0,0,1.089.592v.424h-5.652v-.424a2.292,2.292,0,0,0,1.144-.556,1.519,1.519,0,0,0,.32-1.054V88.89a1.577,1.577,0,0,0-.368-1.161,2.344,2.344,0,0,0-1.314-.5v-.424l4.067-.374Z" transform="translate(-119.089 -61.628)" fill="#fff"/>
          <path id="Path_14438" data-name="Path 14438" d="M226.887,93.272h.423a5.117,5.117,0,0,1-1.972,2.384,5.441,5.441,0,0,1-3.025.871,5.011,5.011,0,0,1-3.649-1.423,4.768,4.768,0,0,1-1.459-3.563A4.889,4.889,0,0,1,218.7,87.9a5.089,5.089,0,0,1,3.709-1.464,4.909,4.909,0,0,1,3.323,1.143,4.709,4.709,0,0,1,1.579,3.067h-7.08c-.008.129-.013.259-.013.387a4.768,4.768,0,0,0,.954,3.086A2.928,2.928,0,0,0,223.54,95.3,3.911,3.911,0,0,0,226.887,93.272Zm-6.669-3.194h4.08a4.145,4.145,0,0,0-.668-2.149A1.711,1.711,0,0,0,222.2,87.1a1.6,1.6,0,0,0-1.383.811A4.259,4.259,0,0,0,220.217,90.078Z" transform="translate(-154.866 -61.628)" fill="#fff"/>
          <path id="Path_14439" data-name="Path 14439" d="M260.9,96.528V92.921h.423q1.4,2.941,3.387,2.941a1.8,1.8,0,0,0,1.169-.4,1.2,1.2,0,0,0,.49-.957,1.427,1.427,0,0,0-.447-1.048,6.293,6.293,0,0,0-1.937-1.025A6.663,6.663,0,0,1,261.484,91a2.51,2.51,0,0,1-.6-1.7,2.627,2.627,0,0,1,.915-2.034,3.381,3.381,0,0,1,2.353-.824,13.919,13.919,0,0,1,1.851.2c.348.05.558.072.63.072a1.04,1.04,0,0,0,.57-.277h.422v2.928H267.2a3.9,3.9,0,0,0-1.188-1.665,2.676,2.676,0,0,0-1.693-.6,1.957,1.957,0,0,0-1.112.3.874.874,0,0,0-.449.745,1.015,1.015,0,0,0,.375.781,6.242,6.242,0,0,0,1.682.831,6.886,6.886,0,0,1,2.7,1.572,3.12,3.12,0,0,1-.358,4.264,3.392,3.392,0,0,1-2.342.938,7.573,7.573,0,0,1-1.536-.158,6.147,6.147,0,0,0-1.089-.169,1.117,1.117,0,0,0-.86.327Z" transform="translate(-186.006 -61.628)" fill="#fff"/>
        </g>
      </g>
    </g>
  </g>
</svg>
